SplineFontDB: 3.2
FontName: u8z
FullName: u8z
FamilyName: u8z
Weight: regular
Copyright: copyright (c) 2021d=7X5h(sevenso Aksti phaiv), heksadesiml@gmail.com, other fonts as :\nDelius_unicase (designed by natalia raices)\n    => u5.\n        => u5c=>u5h=>u5r=>u5p=>u5ch=>u5v\n        => u8c=>u8h=>u8r=>u8p=>u8ch=>u8v\n        => u2c          =>u2ch          =>u2ch\n        => u2zc\n        \nc -> capital case as like program/heks810 symbols\nh -> LJqwXF continuous , ABCDEF-LJqwXF lost\nrf -> j->H, q->A ,  x->T,  w->D\nr -> f-> N , j->H, q->A ,  x->T,  w->D\np -> capital case no programming symbols yes\nv -> phonetik vokl ordr
Version: 1.000
ItalicAngle: 0
UnderlinePosition: -200
UnderlineWidth: 50
Ascent: 800
Descent: 200
InvalidEm: 0
sfntRevision: 0x00010000
LayerCount: 2
Layer: 0 1 "Back" 1
Layer: 1 1 "Fore" 0
XUID: [1021 467 -1121320856 3309566]
StyleMap: 0x0040
FSType: 0
OS2Version: 2
OS2_WeightWidthSlopeOnly: 0
OS2_UseTypoMetrics: 0
CreationTime: 1314993210
ModificationTime: 1625663207
PfmFamily: 17
TTFWeight: 400
TTFWidth: 5
LineGap: 0
VLineGap: 0
Panose: 2 0 6 3 0 0 0 0 0 0
OS2TypoAscent: 1016
OS2TypoAOffset: 0
OS2TypoDescent: -236
OS2TypoDOffset: 0
OS2TypoLinegap: 0
OS2WinAscent: 1016
OS2WinAOffset: 0
OS2WinDescent: 236
OS2WinDOffset: 0
HheadAscent: 1016
HheadAOffset: 0
HheadDescent: -236
HheadDOffset: 0
OS2SubXSize: 700
OS2SubYSize: 650
OS2SubXOff: 0
OS2SubYOff: 140
OS2SupXSize: 700
OS2SupYSize: 650
OS2SupXOff: 0
OS2SupYOff: 477
OS2StrikeYSize: 50
OS2StrikeYPos: 250
OS2CapHeight: 195
OS2XHeight: 320
OS2FamilyClass: 2560
OS2Vendor: 'pyrs'
OS2CodePages: 00000001.00000000
OS2UnicodeRanges: 00000021.00000000.00000000.00000000
Lookup: 258 0 0 "'kern' Horizontal Kerning in Latin lookup 0" { "'kern' Horizontal Kerning in Latin lookup 0 per glyph data 0"  "'kern' Horizontal Kerning in Latin lookup 0 per glyph data 1"  "'kern' Horizontal Kerning in Latin lookup 0 kerning class 2"  } ['kern' ('latn' <'dflt' > ) ]
MarkAttachClasses: 1
DEI: 91125

StartChar: exclam
Encoding: 33 33 4
Width: 289
GlyphClass: 2
Flags: W
LayerCount: 2
Fore
SplineSet
186 95 m 128,-1,1
 199 78 199 78 199 52.5 c 128,-1,2
 199 27 199 27 182 6 c 128,-1,3
 165 -15 165 -15 141 -15 c 128,-1,4
 117 -15 117 -15 103.5 3.5 c 128,-1,5
 90 22 90 22 90 47 c 128,-1,6
 90 72 90 72 106.5 92 c 128,-1,7
 123 112 123 112 148 112 c 128,-1,0
 173 112 173 112 186 95 c 128,-1,1
188 467 m 1,8,-1
 189 266 l 2,9,10
 189 240 189 240 177 225 c 128,-1,11
 165 210 165 210 144 210 c 128,-1,12
 123 210 123 210 111 225 c 128,-1,13
 99 240 99 240 99 266 c 2,14,-1
 101 467 l 1,15,-1
 93 695 l 2,16,17
 93 725 93 725 106.5 742.5 c 128,-1,18
 120 760 120 760 144 760 c 128,-1,19
 168 760 168 760 181.5 742.5 c 128,-1,20
 195 725 195 725 195 695 c 2,21,-1
 188 467 l 1,8,-1
EndSplineSet
Validated: 1
EndChar

StartChar: quotedbl
Encoding: 34 34 5
Width: 413
GlyphClass: 2
Flags: W
LayerCount: 2
Fore
SplineSet
166 704 m 2,0,-1
 154 596 l 2,1,2
 152 553 152 553 144.5 535 c 128,-1,3
 137 517 137 517 118 517 c 128,-1,4
 99 517 99 517 91.5 535 c 128,-1,5
 84 553 84 553 82 596 c 2,6,-1
 70 704 l 2,7,8
 70 730 70 730 83 745 c 128,-1,9
 96 760 96 760 118 760 c 128,-1,10
 140 760 140 760 153 745 c 128,-1,11
 166 730 166 730 166 704 c 2,0,-1
343 704 m 2,12,-1
 331 596 l 2,13,14
 329 553 329 553 321.5 535 c 128,-1,15
 314 517 314 517 295 517 c 128,-1,16
 276 517 276 517 268.5 535 c 128,-1,17
 261 553 261 553 259 596 c 2,18,-1
 247 704 l 2,19,20
 247 730 247 730 260 745 c 128,-1,21
 273 760 273 760 295 760 c 128,-1,22
 317 760 317 760 330 745 c 128,-1,23
 343 730 343 730 343 704 c 2,12,-1
EndSplineSet
Validated: 1
EndChar

StartChar: numbersign
Encoding: 35 35 6
Width: 858
GlyphClass: 2
Flags: W
LayerCount: 2
Fore
SplineSet
361 431 m 1,0,1
 332 293 332 293 329 274 c 1,2,-1
 498 274 l 1,3,4
 504 298 504 298 515.5 357.5 c 128,-1,5
 527 417 527 417 530 431 c 1,6,-1
 361 431 l 1,0,1
691 196 m 2,7,-1
 564 199 l 1,8,9
 556 156 556 156 533 35 c 0,10,11
 525 -10 525 -10 488 -10 c 0,12,13
 470 -10 470 -10 459.5 1.5 c 128,-1,14
 449 13 449 13 449 27.5 c 128,-1,15
 449 42 449 42 484 200 c 1,16,-1
 317 200 l 1,17,18
 311 170 311 170 286 35 c 0,19,20
 278 -10 278 -10 241 -10 c 0,21,22
 223 -10 223 -10 212.5 1.5 c 128,-1,23
 202 13 202 13 202 25 c 128,-1,24
 202 37 202 37 208.5 68.5 c 128,-1,25
 215 100 215 100 223.5 140 c 128,-1,26
 232 180 232 180 235 200 c 1,27,-1
 122 196 l 2,28,29
 63 196 63 196 63 238 c 0,30,31
 63 278 63 278 122 278 c 2,32,-1
 249 274 l 1,33,34
 255 298 255 298 266.5 357 c 128,-1,35
 278 416 278 416 281 429 c 1,36,-1
 167 427 l 2,37,38
 108 427 108 427 108 466 c 0,39,40
 108 507 108 507 167 507 c 2,41,-1
 296 504 l 1,42,43
 305 547 305 547 327 668 c 0,44,45
 335 713 335 713 372 713 c 0,46,47
 390 713 390 713 400.5 701.5 c 128,-1,48
 411 690 411 690 411 675 c 128,-1,49
 411 660 411 660 376 503 c 1,50,-1
 543 503 l 1,51,52
 549 533 549 533 574 668 c 0,53,54
 582 713 582 713 619 713 c 0,55,56
 636 713 636 713 647 701.5 c 128,-1,57
 658 690 658 690 658 678 c 128,-1,58
 658 666 658 666 651.5 635 c 128,-1,59
 645 604 645 604 636 563 c 128,-1,60
 627 522 627 522 624 503 c 1,61,-1
 736 507 l 2,62,63
 795 507 795 507 795 466 c 0,64,65
 795 427 795 427 736 427 c 0,66,67
 714 427 714 427 609 430 c 1,68,69
 581 300 581 300 577 275 c 1,70,-1
 691 278 l 2,71,72
 750 278 750 278 750 238 c 0,73,74
 750 196 750 196 691 196 c 2,7,-1
EndSplineSet
Validated: 1
EndChar

StartChar: dollar
Encoding: 36 36 7
Width: 624
GlyphClass: 2
Flags: W
LayerCount: 2
Fore
SplineSet
505 64 m 128,-1,1
 452 11 452 11 366 -4 c 1,2,3
 366 -85 366 -85 320 -85 c 128,-1,4
 274 -85 274 -85 274 -7 c 1,5,6
 195 0 195 0 131 39.5 c 128,-1,7
 67 79 67 79 67 115 c 0,8,9
 67 133 67 133 79 145 c 128,-1,10
 91 157 91 157 108.5 157 c 128,-1,11
 126 157 126 157 144 146 c 128,-1,12
 162 135 162 135 176 121.5 c 128,-1,13
 190 108 190 108 217 95 c 128,-1,14
 244 82 244 82 276 78 c 1,15,16
 279 267 279 267 279 345 c 1,17,18
 199 389 199 389 160.5 421 c 128,-1,19
 122 453 122 453 107.5 482 c 128,-1,20
 93 511 93 511 93 545 c 0,21,22
 93 607 93 607 143.5 655 c 128,-1,23
 194 703 194 703 273 715 c 1,24,25
 273 802 273 802 319 802 c 128,-1,26
 365 802 365 802 365 715 c 1,27,28
 429 707 429 707 473.5 680 c 128,-1,29
 518 653 518 653 518 622 c 0,30,31
 518 603 518 603 506 592 c 128,-1,32
 494 581 494 581 473 581 c 128,-1,33
 452 581 452 581 420 602 c 128,-1,34
 388 623 388 623 362 630 c 1,35,36
 359 456 359 456 359 400 c 1,37,38
 405 375 405 375 432.5 358 c 128,-1,39
 460 341 460 341 493 314 c 0,40,41
 558 261 558 261 558 189 c 128,-1,0
 558 117 558 117 505 64 c 128,-1,1
462 188 m 0,42,43
 462 243 462 243 359 301 c 1,44,45
 359 299 359 299 363 83 c 1,46,47
 407 95 407 95 434.5 122 c 128,-1,48
 462 149 462 149 462 188 c 0,42,43
213.5 598 m 128,-1,50
 189 575 189 575 189 546 c 128,-1,51
 189 517 189 517 211.5 494 c 128,-1,52
 234 471 234 471 279 443 c 1,53,54
 275 623 275 623 275 630 c 1,55,49
 238 621 238 621 213.5 598 c 128,-1,50
EndSplineSet
Validated: 1
EndChar

StartChar: percent
Encoding: 37 37 8
Width: 874
GlyphClass: 2
Flags: W
LayerCount: 2
Fore
SplineSet
620 700 m 0,0,1
 620 650 620 650 562 589 c 0,2,3
 561 586 561 586 512 445.5 c 128,-1,4
 463 305 463 305 415 166 c 128,-1,5
 367 27 367 27 363 18 c 0,6,7
 350 -15 350 -15 317 -15 c 0,8,9
 301 -15 301 -15 289 -4 c 128,-1,10
 277 7 277 7 277 25 c 128,-1,11
 277 43 277 43 302 104 c 0,12,13
 406 361 406 361 469 555 c 1,14,15
 451 552 451 552 426.5 552 c 128,-1,16
 402 552 402 552 364 564 c 1,17,18
 366 548 366 548 366 537 c 0,19,20
 366 463 366 463 324 412.5 c 128,-1,21
 282 362 282 362 214 362 c 128,-1,22
 146 362 146 362 104.5 411 c 128,-1,23
 63 460 63 460 63 535.5 c 128,-1,24
 63 611 63 611 106 662 c 128,-1,25
 149 713 149 713 216 713 c 0,26,27
 247 713 247 713 275.5 699 c 128,-1,28
 304 685 304 685 322 668 c 0,29,30
 372 624 372 624 418 624 c 128,-1,31
 464 624 464 624 490 638 c 1,32,33
 516 735 516 735 538 752 c 0,34,35
 549 760 549 760 569 760 c 128,-1,36
 589 760 589 760 604.5 743 c 128,-1,37
 620 726 620 726 620 700 c 0,0,1
267.5 462.5 m 128,-1,39
 286 491 286 491 286 536.5 c 128,-1,40
 286 582 286 582 268 611.5 c 128,-1,41
 250 641 250 641 216 641 c 128,-1,42
 182 641 182 641 162.5 612 c 128,-1,43
 143 583 143 583 143 538 c 128,-1,44
 143 493 143 493 162 463.5 c 128,-1,45
 181 434 181 434 215 434 c 128,-1,38
 249 434 249 434 267.5 462.5 c 128,-1,39
770.5 287 m 128,-1,47
 812 238 812 238 812 162.5 c 128,-1,48
 812 87 812 87 769 36 c 128,-1,49
 726 -15 726 -15 657.5 -15 c 128,-1,50
 589 -15 589 -15 547.5 34 c 128,-1,51
 506 83 506 83 506 159 c 128,-1,52
 506 235 506 235 549 285.5 c 128,-1,53
 592 336 592 336 660.5 336 c 128,-1,46
 729 336 729 336 770.5 287 c 128,-1,47
712.5 86 m 128,-1,55
 732 115 732 115 732 160 c 128,-1,56
 732 205 732 205 713 234.5 c 128,-1,57
 694 264 694 264 659.5 264 c 128,-1,58
 625 264 625 264 605.5 235 c 128,-1,59
 586 206 586 206 586 161.5 c 128,-1,60
 586 117 586 117 605.5 87 c 128,-1,61
 625 57 625 57 659 57 c 128,-1,54
 693 57 693 57 712.5 86 c 128,-1,55
EndSplineSet
Validated: 1
EndChar

StartChar: ampersand
Encoding: 38 38 9
Width: 835
GlyphClass: 2
Flags: W
LayerCount: 2
Fore
SplineSet
455 370 m 2,0,-1
 538 368 l 1,1,2
 706 368 706 368 706 459 c 0,3,4
 706 490 706 490 687.5 510 c 128,-1,5
 669 530 669 530 647 538 c 0,6,7
 588 558 588 558 588 593 c 0,8,9
 588 611 588 611 600 622.5 c 128,-1,10
 612 634 612 634 633 634 c 0,11,12
 690 634 690 634 744 580.5 c 128,-1,13
 798 527 798 527 798 461 c 0,14,15
 798 372 798 372 734.5 330.5 c 128,-1,16
 671 289 671 289 577 287 c 1,17,18
 595 245 595 245 595 203 c 0,19,20
 595 113 595 113 521.5 49 c 128,-1,21
 448 -15 448 -15 332.5 -15 c 128,-1,22
 217 -15 217 -15 139.5 57.5 c 128,-1,23
 62 130 62 130 62 239 c 0,24,25
 62 302 62 302 93 361.5 c 128,-1,26
 124 421 124 421 176 460 c 1,27,28
 112 520 112 520 112 590.5 c 128,-1,29
 112 661 112 661 162.5 713 c 128,-1,30
 213 765 213 765 305 765 c 0,31,32
 362 765 362 765 410.5 737 c 128,-1,33
 459 709 459 709 459 677 c 0,34,35
 459 657 459 657 447 646 c 128,-1,36
 435 635 435 635 419 635 c 128,-1,37
 403 635 403 635 372.5 656.5 c 128,-1,38
 342 678 342 678 301 678 c 128,-1,39
 260 678 260 678 232.5 654.5 c 128,-1,40
 205 631 205 631 205 593 c 0,41,42
 205 536 205 536 257 501 c 1,43,44
 301 505 301 505 304 505 c 0,45,46
 334 505 334 505 353 491 c 128,-1,47
 372 477 372 477 372 452.5 c 128,-1,48
 372 428 372 428 351 413.5 c 128,-1,49
 330 399 330 399 299.5 399 c 128,-1,50
 269 399 269 399 249 409 c 1,51,52
 207 384 207 384 182 341 c 128,-1,53
 157 298 157 298 157 247 c 0,54,55
 157 169 157 169 206 120.5 c 128,-1,56
 255 72 255 72 331 72 c 128,-1,57
 407 72 407 72 454.5 111.5 c 128,-1,58
 502 151 502 151 502 202 c 0,59,60
 502 280 502 280 470 280 c 0,61,62
 452 280 452 280 431.5 270 c 128,-1,63
 411 260 411 260 392.5 260 c 128,-1,64
 374 260 374 260 362 273.5 c 128,-1,65
 350 287 350 287 350 306 c 0,66,67
 350 336 350 336 379.5 353 c 128,-1,68
 409 370 409 370 455 370 c 2,0,-1
EndSplineSet
Validated: 1
EndChar

StartChar: quotesingle
Encoding: 39 39 10
Width: 236
GlyphClass: 2
Flags: W
LayerCount: 2
Fore
SplineSet
166 704 m 2,0,-1
 154 596 l 2,1,2
 152 553 152 553 144.5 535 c 128,-1,3
 137 517 137 517 118 517 c 128,-1,4
 99 517 99 517 91.5 535 c 128,-1,5
 84 553 84 553 82 596 c 2,6,-1
 70 704 l 2,7,8
 70 730 70 730 83 745 c 128,-1,9
 96 760 96 760 118 760 c 128,-1,10
 140 760 140 760 153 745 c 128,-1,11
 166 730 166 730 166 704 c 2,0,-1
EndSplineSet
Validated: 1
EndChar

StartChar: parenleft
Encoding: 40 40 11
Width: 347
GlyphClass: 2
Flags: W
LayerCount: 2
Fore
SplineSet
84.5 209 m 128,-1,1
 62 300 62 300 62 385 c 128,-1,2
 62 470 62 470 82.5 552.5 c 128,-1,3
 103 635 103 635 133.5 695.5 c 128,-1,4
 164 756 164 756 198.5 795.5 c 128,-1,5
 233 835 233 835 258.5 835 c 128,-1,6
 284 835 284 835 298 821 c 128,-1,7
 312 807 312 807 312 789.5 c 128,-1,8
 312 772 312 772 295.5 746.5 c 128,-1,9
 279 721 279 721 256 688 c 128,-1,10
 233 655 233 655 210 612 c 128,-1,11
 187 569 187 569 170.5 502.5 c 128,-1,12
 154 436 154 436 154 352.5 c 128,-1,13
 154 269 154 269 176 190 c 128,-1,14
 198 111 198 111 224.5 67 c 128,-1,15
 251 23 251 23 273 -11.5 c 128,-1,16
 295 -46 295 -46 295 -56.5 c 128,-1,17
 295 -67 295 -67 288 -75.5 c 128,-1,18
 281 -84 281 -84 266 -84 c 0,19,20
 241 -84 241 -84 206.5 -45.5 c 128,-1,21
 172 -7 172 -7 139.5 55.5 c 128,-1,0
 107 118 107 118 84.5 209 c 128,-1,1
EndSplineSet
Validated: 1
EndChar

StartChar: parenright
Encoding: 41 41 12
Width: 347
GlyphClass: 2
Flags: W
LayerCount: 2
Fore
SplineSet
264.5 552.5 m 128,-1,1
 285 470 285 470 285 385 c 128,-1,2
 285 300 285 300 262.5 209 c 128,-1,3
 240 118 240 118 207.5 55.5 c 128,-1,4
 175 -7 175 -7 140.5 -45.5 c 128,-1,5
 106 -84 106 -84 81 -84 c 0,6,7
 66 -84 66 -84 59 -75.5 c 128,-1,8
 52 -67 52 -67 52 -56.5 c 128,-1,9
 52 -46 52 -46 74 -11.5 c 128,-1,10
 96 23 96 23 122.5 67 c 128,-1,11
 149 111 149 111 171 190 c 128,-1,12
 193 269 193 269 193 352.5 c 128,-1,13
 193 436 193 436 176.5 502.5 c 128,-1,14
 160 569 160 569 137 612 c 128,-1,15
 114 655 114 655 91 688 c 128,-1,16
 68 721 68 721 51.5 746.5 c 128,-1,17
 35 772 35 772 35 789.5 c 128,-1,18
 35 807 35 807 49 821 c 128,-1,19
 63 835 63 835 88.5 835 c 128,-1,20
 114 835 114 835 148.5 795.5 c 128,-1,21
 183 756 183 756 213.5 695.5 c 128,-1,0
 244 635 244 635 264.5 552.5 c 128,-1,1
EndSplineSet
Validated: 1
EndChar

StartChar: asterisk
Encoding: 42 42 13
Width: 476
GlyphClass: 2
Flags: W
LayerCount: 2
Fore
SplineSet
204 642 m 1,0,-1
 194 716 l 2,1,2
 194 738 194 738 206 751.5 c 128,-1,3
 218 765 218 765 238 765 c 128,-1,4
 258 765 258 765 270 751.5 c 128,-1,5
 282 738 282 738 282 721 c 128,-1,6
 282 704 282 704 277 679.5 c 128,-1,7
 272 655 272 655 272 642 c 1,8,9
 279 647 279 647 298 662 c 0,10,11
 338 694 338 694 356 694 c 128,-1,12
 374 694 374 694 386 683 c 128,-1,13
 398 672 398 672 398 653.5 c 128,-1,14
 398 635 398 635 381.5 622.5 c 128,-1,15
 365 610 365 610 334 600 c 128,-1,16
 303 590 303 590 298 587 c 1,17,18
 303 584 303 584 334 574 c 128,-1,19
 365 564 365 564 381.5 551.5 c 128,-1,20
 398 539 398 539 398 520 c 128,-1,21
 398 501 398 501 386 490.5 c 128,-1,22
 374 480 374 480 359.5 480 c 128,-1,23
 345 480 345 480 331 488 c 128,-1,24
 317 496 317 496 297.5 511.5 c 128,-1,25
 278 527 278 527 271 532 c 1,26,-1
 282 460 l 2,27,28
 282 438 282 438 270 424 c 128,-1,29
 258 410 258 410 238 410 c 128,-1,30
 218 410 218 410 206 424 c 128,-1,31
 194 438 194 438 194 454.5 c 128,-1,32
 194 471 194 471 199.5 495.5 c 128,-1,33
 205 520 205 520 205 532 c 1,34,35
 198 527 198 527 178 512 c 0,36,37
 139 480 139 480 120.5 480 c 128,-1,38
 102 480 102 480 90 490.5 c 128,-1,39
 78 501 78 501 78 520 c 128,-1,40
 78 539 78 539 94.5 551.5 c 128,-1,41
 111 564 111 564 142 574 c 128,-1,42
 173 584 173 584 178 587 c 1,43,44
 173 590 173 590 142 600 c 128,-1,45
 111 610 111 610 94.5 622.5 c 128,-1,46
 78 635 78 635 78 653.5 c 128,-1,47
 78 672 78 672 90 683 c 128,-1,48
 102 694 102 694 116 694 c 128,-1,49
 130 694 130 694 144 686 c 128,-1,50
 158 678 158 678 177.5 662.5 c 128,-1,51
 197 647 197 647 204 642 c 1,0,-1
EndSplineSet
Validated: 1
EndChar

StartChar: plus
Encoding: 43 43 14
Width: 601
GlyphClass: 2
Flags: W
LayerCount: 2
Fore
SplineSet
113 418 m 2,0,-1
 263 415 l 1,1,2
 263 485 263 485 261 522 c 128,-1,3
 259 559 259 559 259 561 c 0,4,5
 259 584 259 584 270.5 597 c 128,-1,6
 282 610 282 610 301 610 c 128,-1,7
 320 610 320 610 332 596.5 c 128,-1,8
 344 583 344 583 344 560 c 0,9,10
 344 558 344 558 343 540 c 0,11,12
 340 486 340 486 340 415 c 1,13,-1
 490 417 l 2,14,15
 512 417 512 417 526 405 c 128,-1,16
 540 393 540 393 540 375 c 128,-1,17
 540 357 540 357 526 345 c 128,-1,18
 512 333 512 333 490 333 c 2,19,-1
 340 336 l 1,20,-1
 344 177 l 2,21,22
 344 154 344 154 332.5 140 c 128,-1,23
 321 126 321 126 301.5 126 c 128,-1,24
 282 126 282 126 270.5 140.5 c 128,-1,25
 259 155 259 155 259 178 c 2,26,-1
 263 337 l 1,27,-1
 113 334 l 2,28,29
 91 334 91 334 77 346 c 128,-1,30
 63 358 63 358 63 376 c 128,-1,31
 63 394 63 394 77 406 c 128,-1,32
 91 418 91 418 113 418 c 2,0,-1
EndSplineSet
Validated: 1
EndChar

StartChar: comma
Encoding: 44 44 15
Width: 251
GlyphClass: 2
Flags: W
LayerCount: 2
Fore
SplineSet
177 36 m 0,0,1
 177 -18 177 -18 141 -83 c 128,-1,2
 105 -148 105 -148 74 -148 c 128,-1,3
 43 -148 43 -148 43 -122 c 0,4,5
 43 -108 43 -108 58.5 -82.5 c 128,-1,6
 74 -57 74 -57 74 -37.5 c 128,-1,7
 74 -18 74 -18 70 0 c 128,-1,8
 66 18 66 18 66 40.5 c 128,-1,9
 66 63 66 63 82 83.5 c 128,-1,10
 98 104 98 104 123.5 104 c 128,-1,11
 149 104 149 104 163 85.5 c 128,-1,12
 177 67 177 67 177 36 c 0,0,1
EndSplineSet
Validated: 1
EndChar

StartChar: hyphen
Encoding: 45 45 16
Width: 498
GlyphClass: 2
Flags: W
LayerCount: 2
Fore
SplineSet
249 336 m 1,0,-1
 130 333 l 2,1,2
 108 333 108 333 94.5 345 c 128,-1,3
 81 357 81 357 81 375 c 128,-1,4
 81 393 81 393 94.5 405 c 128,-1,5
 108 417 108 417 130 417 c 2,6,-1
 249 414 l 1,7,-1
 368 417 l 2,8,9
 390 417 390 417 403.5 405 c 128,-1,10
 417 393 417 393 417 375 c 128,-1,11
 417 357 417 357 403.5 345 c 128,-1,12
 390 333 390 333 368 333 c 2,13,14
 368 333 368 333 249 336 c 1,0,-1
EndSplineSet
Validated: 1
EndChar

StartChar: period
Encoding: 46 46 17
Width: 254
GlyphClass: 2
Flags: W
LayerCount: 2
Fore
SplineSet
168.5 102 m 128,-1,1
 182 85 182 85 182 58.5 c 128,-1,2
 182 32 182 32 165 11 c 128,-1,3
 148 -10 148 -10 123.5 -10 c 128,-1,4
 99 -10 99 -10 85 8 c 128,-1,5
 71 26 71 26 71 52 c 128,-1,6
 71 78 71 78 87.5 98.5 c 128,-1,7
 104 119 104 119 129.5 119 c 128,-1,0
 155 119 155 119 168.5 102 c 128,-1,1
EndSplineSet
Validated: 1
EndChar

StartChar: slash
Encoding: 47 47 18
Width: 433
GlyphClass: 2
Flags: W
LayerCount: 2
Fore
SplineSet
284.5 822 m 128,-1,1
 298 835 298 835 318 835 c 128,-1,2
 338 835 338 835 349.5 820 c 128,-1,3
 361 805 361 805 361 789 c 128,-1,4
 361 773 361 773 347 717.5 c 128,-1,5
 333 662 333 662 306 558 c 0,6,7
 234 274 234 274 170 -20 c 0,8,9
 163 -51 163 -51 151.5 -67.5 c 128,-1,10
 140 -84 140 -84 118 -84 c 128,-1,11
 96 -84 96 -84 83.5 -70 c 128,-1,12
 71 -56 71 -56 71 -39.5 c 128,-1,13
 71 -23 71 -23 83 25 c 128,-1,14
 95 73 95 73 123 182 c 0,15,16
 189 439 189 439 267 787 c 0,17,0
 271 809 271 809 284.5 822 c 128,-1,1
EndSplineSet
Validated: 1
EndChar

StartChar: zero
Encoding: 48 48 19
Width: 728
GlyphClass: 2
Flags: W
LayerCount: 2
Fore
SplineSet
574.5 650 m 128,-1,1
 651 535 651 535 651 374.5 c 128,-1,2
 651 214 651 214 574.5 99.5 c 128,-1,3
 498 -15 498 -15 367 -15 c 128,-1,4
 236 -15 236 -15 156.5 100.5 c 128,-1,5
 77 216 77 216 77 375 c 0,6,7
 77 477 77 477 110.5 565 c 128,-1,8
 144 653 144 653 211.5 709 c 128,-1,9
 279 765 279 765 366 765 c 0,10,0
 498 765 498 765 574.5 650 c 128,-1,1
555 375 m 128,-1,12
 555 500 555 500 504 589 c 128,-1,13
 453 678 453 678 367 678 c 128,-1,14
 281 678 281 678 227 588 c 128,-1,15
 173 498 173 498 173 375 c 128,-1,16
 173 252 173 252 227 162 c 128,-1,17
 281 72 281 72 367 72 c 128,-1,18
 453 72 453 72 504 161 c 128,-1,11
 555 250 555 250 555 375 c 128,-1,12
EndSplineSet
Validated: 1
EndChar

StartChar: one
Encoding: 49 49 20
Width: 467
GlyphClass: 2
Flags: W
LayerCount: 2
Fore
SplineSet
331 698 m 2,0,-1
 327 380 l 2,1,2
 327 226 327 226 330.5 147.5 c 128,-1,3
 334 69 334 69 334 61 c 0,4,5
 334 -10 334 -10 283 -10 c 0,6,7
 261 -10 261 -10 249 4 c 128,-1,8
 237 18 237 18 234.5 33.5 c 128,-1,9
 232 49 232 49 232 65.5 c 128,-1,10
 232 82 232 82 235 186 c 128,-1,11
 238 290 238 290 238 379 c 2,12,-1
 237 625 l 1,13,-1
 165 517 l 2,14,15
 160 510 160 510 153 499 c 128,-1,16
 146 488 146 488 142 483 c 128,-1,17
 138 478 138 478 132.5 469.5 c 128,-1,18
 127 461 127 461 123.5 457 c 128,-1,19
 120 453 120 453 115 447 c 128,-1,20
 110 441 110 441 106.5 438.5 c 128,-1,21
 103 436 103 436 98 433 c 0,22,23
 91 428 91 428 76 428 c 128,-1,24
 61 428 61 428 49.5 440 c 128,-1,25
 38 452 38 452 38 469.5 c 128,-1,26
 38 487 38 487 52.5 510 c 128,-1,27
 67 533 67 533 92 564.5 c 128,-1,28
 117 596 117 596 119.5 599.5 c 128,-1,29
 122 603 122 603 126 608 c 128,-1,30
 130 613 130 613 141 627 c 128,-1,31
 152 641 152 641 172.5 669.5 c 128,-1,32
 193 698 193 698 202.5 711 c 128,-1,33
 212 724 212 724 225 738 c 0,34,35
 247 760 247 760 273.5 760 c 128,-1,36
 300 760 300 760 315.5 742 c 128,-1,37
 331 724 331 724 331 698 c 2,0,-1
EndSplineSet
Validated: 1
EndChar

StartChar: two
Encoding: 50 50 21
Width: 618
GlyphClass: 2
Flags: W
LayerCount: 2
Fore
SplineSet
311 0 m 1,0,-1
 126 -5 l 2,1,2
 97 -5 97 -5 79 8.5 c 128,-1,3
 61 22 61 22 61 51.5 c 128,-1,4
 61 81 61 81 97 132.5 c 128,-1,5
 133 184 133 184 184.5 241 c 128,-1,6
 236 298 236 298 288 356 c 0,7,8
 411 493 411 493 411 562 c 0,9,10
 411 617 411 617 376.5 647.5 c 128,-1,11
 342 678 342 678 292 678 c 0,12,13
 264 678 264 678 241 665.5 c 128,-1,14
 218 653 218 653 207 640.5 c 128,-1,15
 196 628 196 628 184.5 610 c 128,-1,16
 173 592 173 592 167 585 c 0,17,18
 150 565 150 565 130 565 c 128,-1,19
 110 565 110 565 97.5 578 c 128,-1,20
 85 591 85 591 85 608 c 0,21,22
 85 656 85 656 145 710.5 c 128,-1,23
 205 765 205 765 300 765 c 128,-1,24
 395 765 395 765 451 708 c 128,-1,25
 507 651 507 651 507 568 c 0,26,27
 507 518 507 518 466 447.5 c 128,-1,28
 425 377 425 377 374.5 319.5 c 128,-1,29
 324 262 324 262 263 192.5 c 128,-1,30
 202 123 202 123 178 87 c 1,31,32
 233 82 233 82 294 82 c 128,-1,33
 355 82 355 82 419 85.5 c 128,-1,34
 483 89 483 89 501 89 c 128,-1,35
 519 89 519 89 535.5 76.5 c 128,-1,36
 552 64 552 64 552 42 c 128,-1,37
 552 20 552 20 535.5 7.5 c 128,-1,38
 519 -5 519 -5 492 -5 c 2,39,-1
 311 0 l 1,0,-1
EndSplineSet
Validated: 1
EndChar

StartChar: three
Encoding: 51 51 22
Width: 628
GlyphClass: 2
Flags: W
LayerCount: 2
Fore
SplineSet
305 750 m 1,0,-1
 471 755 l 2,1,2
 498 755 498 755 515 741 c 128,-1,3
 532 727 532 727 532 705 c 0,4,5
 532 663 532 663 463.5 593.5 c 128,-1,6
 395 524 395 524 354 474 c 1,7,8
 449 449 449 449 505 384 c 128,-1,9
 561 319 561 319 561 237 c 0,10,11
 561 137 561 137 491.5 61 c 128,-1,12
 422 -15 422 -15 302 -15 c 0,13,14
 211 -15 211 -15 141.5 35.5 c 128,-1,15
 72 86 72 86 72 129 c 0,16,17
 72 143 72 143 82 154.5 c 128,-1,18
 92 166 92 166 106.5 166 c 128,-1,19
 121 166 121 166 140 151.5 c 128,-1,20
 159 137 159 137 177.5 119 c 128,-1,21
 196 101 196 101 229 86.5 c 128,-1,22
 262 72 262 72 300 72 c 0,23,24
 372 72 372 72 418.5 118.5 c 128,-1,25
 465 165 465 165 465 234.5 c 128,-1,26
 465 304 465 304 416 348 c 128,-1,27
 367 392 367 392 301 398 c 1,28,29
 268 365 268 365 246 353 c 128,-1,30
 224 341 224 341 198.5 341 c 128,-1,31
 173 341 173 341 159 355.5 c 128,-1,32
 145 370 145 370 145 395.5 c 128,-1,33
 145 421 145 421 172 445.5 c 128,-1,34
 199 470 199 470 253 482 c 1,35,36
 321 557 321 557 410 665 c 1,37,38
 381 668 381 668 324.5 668 c 128,-1,39
 268 668 268 668 214 664.5 c 128,-1,40
 160 661 160 661 143.5 661 c 128,-1,41
 127 661 127 661 110.5 673.5 c 128,-1,42
 94 686 94 686 94 708 c 128,-1,43
 94 730 94 730 110.5 742.5 c 128,-1,44
 127 755 127 755 154 755 c 2,45,-1
 305 750 l 1,0,-1
EndSplineSet
Validated: 1
EndChar

StartChar: four
Encoding: 52 52 23
Width: 648
GlyphClass: 2
Flags: W
LayerCount: 2
Fore
SplineSet
482 329 m 1,0,-1
 533 332 l 2,1,2
 561 332 561 332 577.5 319.5 c 128,-1,3
 594 307 594 307 594 287 c 128,-1,4
 594 267 594 267 577.5 254.5 c 128,-1,5
 561 242 561 242 533 242 c 2,6,-1
 482 243 l 1,7,-1
 488 50 l 2,8,9
 488 23 488 23 475 7 c 128,-1,10
 462 -9 462 -9 438.5 -9 c 128,-1,11
 415 -9 415 -9 402 7 c 128,-1,12
 389 23 389 23 389 50 c 2,13,-1
 393 243 l 1,14,-1
 324 243 l 1,15,-1
 96 242 l 2,16,17
 70 242 70 242 55 256 c 128,-1,18
 40 270 40 270 40 291.5 c 128,-1,19
 40 313 40 313 58.5 341.5 c 128,-1,20
 77 370 77 370 137 446 c 2,21,-1
 341 708 l 2,22,23
 382 760 382 760 425 760 c 0,24,25
 451 760 451 760 469.5 743.5 c 128,-1,26
 488 727 488 727 488 690 c 0,27,28
 488 681 488 681 486 634 c 0,29,30
 482 491 482 491 482 329 c 1,0,-1
157 327 m 1,31,-1
 394 327 l 1,32,33
 394 373 394 373 392.5 492.5 c 128,-1,34
 391 612 391 612 391 629 c 1,35,36
 279 496 279 496 157 327 c 1,31,-1
EndSplineSet
Validated: 1
EndChar

StartChar: five
Encoding: 53 53 24
Width: 645
GlyphClass: 2
Flags: W
LayerCount: 2
Fore
SplineSet
325 750 m 1,0,-1
 477 755 l 2,1,2
 504 755 504 755 520.5 742.5 c 128,-1,3
 537 730 537 730 537 708 c 128,-1,4
 537 686 537 686 520.5 673.5 c 128,-1,5
 504 661 504 661 487.5 661 c 128,-1,6
 471 661 471 661 416.5 665 c 128,-1,7
 362 669 362 669 331 669 c 128,-1,8
 300 669 300 669 255.5 667 c 128,-1,9
 211 665 211 665 193 665 c 1,10,11
 198 628 198 628 198 560 c 2,12,-1
 193 454 l 1,13,14
 261 498 261 498 337 498 c 0,15,16
 451 498 451 498 514 427.5 c 128,-1,17
 577 357 577 357 577 249.5 c 128,-1,18
 577 142 577 142 506 63.5 c 128,-1,19
 435 -15 435 -15 314 -15 c 0,20,21
 213 -15 213 -15 146 41.5 c 128,-1,22
 79 98 79 98 79 150 c 0,23,24
 79 168 79 168 91.5 181.5 c 128,-1,25
 104 195 104 195 118.5 195 c 128,-1,26
 133 195 133 195 142 190 c 128,-1,27
 151 185 151 185 155.5 179.5 c 128,-1,28
 160 174 160 174 168 162 c 0,29,30
 228 72 228 72 321 72 c 0,31,32
 390 72 390 72 436 126 c 128,-1,33
 482 180 482 180 482 251 c 128,-1,34
 482 322 482 322 441.5 368.5 c 128,-1,35
 401 415 401 415 332 415 c 0,36,37
 267 415 267 415 188 359 c 0,38,39
 162 340 162 340 146 340 c 0,40,41
 96 340 96 340 96 390 c 0,42,43
 96 403 96 403 103 461 c 128,-1,44
 110 519 110 519 110 559.5 c 128,-1,45
 110 600 110 600 104 641 c 128,-1,46
 98 682 98 682 98 699 c 0,47,48
 98 754 98 754 164 754 c 2,49,-1
 325 750 l 1,0,-1
EndSplineSet
Validated: 1
EndChar

StartChar: six
Encoding: 54 54 25
Width: 647
GlyphClass: 2
Flags: W
LayerCount: 2
Fore
SplineSet
517 414 m 128,-1,1
 579 341 579 341 579 240.5 c 128,-1,2
 579 140 579 140 514 63 c 128,-1,3
 449 -14 449 -14 331 -14 c 128,-1,4
 213 -14 213 -14 145 70.5 c 128,-1,5
 77 155 77 155 77 285 c 0,6,7
 77 481 77 481 188 620.5 c 128,-1,8
 299 760 299 760 466 760 c 0,9,10
 503 760 503 760 522.5 748 c 128,-1,11
 542 736 542 736 542 717 c 0,12,13
 542 669 542 669 477 669 c 0,14,15
 368 669 368 669 286.5 595.5 c 128,-1,16
 205 522 205 522 182 416 c 1,17,18
 251 487 251 487 353 487 c 128,-1,0
 455 487 455 487 517 414 c 128,-1,1
223.5 121 m 128,-1,20
 264 73 264 73 330 73 c 128,-1,21
 396 73 396 73 439.5 120 c 128,-1,22
 483 167 483 167 483 236 c 128,-1,23
 483 305 483 305 441.5 352.5 c 128,-1,24
 400 400 400 400 335 400 c 128,-1,25
 270 400 270 400 226.5 352.5 c 128,-1,26
 183 305 183 305 183 237 c 128,-1,19
 183 169 183 169 223.5 121 c 128,-1,20
EndSplineSet
Validated: 1
EndChar

StartChar: seven
Encoding: 55 55 26
Width: 560
GlyphClass: 2
Flags: W
LayerCount: 2
Fore
SplineSet
273 750 m 1,0,-1
 439 754 l 2,1,2
 520 754 520 754 520 695 c 0,3,4
 520 673 520 673 498.5 630 c 128,-1,5
 477 587 477 587 434 507 c 0,6,7
 320 295 320 295 244 31 c 0,8,9
 232 -9 232 -9 195 -9 c 0,10,11
 175 -9 175 -9 162 5 c 128,-1,12
 149 19 149 19 149 47 c 128,-1,13
 149 75 149 75 171.5 137 c 128,-1,14
 194 199 194 199 238 301.5 c 128,-1,15
 282 404 282 404 319 481.5 c 128,-1,16
 356 559 356 559 377 601 c 128,-1,17
 398 643 398 643 405 663 c 1,18,19
 353 668 353 668 292.5 668 c 128,-1,20
 232 668 232 668 172.5 664.5 c 128,-1,21
 113 661 113 661 96 661 c 128,-1,22
 79 661 79 661 62.5 673.5 c 128,-1,23
 46 686 46 686 46 708 c 128,-1,24
 46 730 46 730 62.5 742.5 c 128,-1,25
 79 755 79 755 106 755 c 2,26,-1
 273 750 l 1,0,-1
EndSplineSet
Validated: 1
EndChar

StartChar: eight
Encoding: 56 56 27
Width: 646
GlyphClass: 2
Flags: W
LayerCount: 2
Fore
SplineSet
572 204 m 0,0,1
 572 113 572 113 502 49 c 128,-1,2
 432 -15 432 -15 323 -15 c 128,-1,3
 214 -15 214 -15 144 49 c 128,-1,4
 74 113 74 113 74 204 c 0,5,6
 74 337 74 337 237 419 c 1,7,8
 114 491 114 491 114 590 c 0,9,10
 114 662 114 662 173.5 714 c 128,-1,11
 233 766 233 766 322.5 766 c 128,-1,12
 412 766 412 766 472 714 c 128,-1,13
 532 662 532 662 532 590 c 0,14,15
 532 494 532 494 416 419 c 1,16,17
 572 336 572 336 572 204 c 0,0,1
476 204 m 0,18,19
 476 304 476 304 323 371 c 1,20,21
 170 304 170 304 170 204 c 0,22,23
 170 145 170 145 214 108.5 c 128,-1,24
 258 72 258 72 323 72 c 128,-1,25
 388 72 388 72 432 108.5 c 128,-1,26
 476 145 476 145 476 204 c 0,18,19
439 590 m 128,-1,28
 439 627 439 627 403.5 653 c 128,-1,29
 368 679 368 679 323.5 679 c 128,-1,30
 279 679 279 679 243 653 c 128,-1,31
 207 627 207 627 207 590.5 c 128,-1,32
 207 554 207 554 238 525 c 128,-1,33
 269 496 269 496 325 464 c 1,34,35
 379 494 379 494 409 523.5 c 128,-1,27
 439 553 439 553 439 590 c 128,-1,28
EndSplineSet
Validated: 1
EndChar

StartChar: nine
Encoding: 57 57 28
Width: 645
GlyphClass: 2
Flags: W
LayerCount: 2
Fore
SplineSet
128 341 m 128,-1,1
 66 417 66 417 66 516.5 c 128,-1,2
 66 616 66 616 134 690.5 c 128,-1,3
 202 765 202 765 317 765 c 128,-1,4
 432 765 432 765 500 681 c 128,-1,5
 568 597 568 597 568 466 c 0,6,7
 568 263 568 263 457.5 124.5 c 128,-1,8
 347 -14 347 -14 179 -14 c 0,9,10
 143 -14 143 -14 123.5 -1 c 128,-1,11
 104 12 104 12 104 31.5 c 128,-1,12
 104 51 104 51 120 65.5 c 128,-1,13
 136 80 136 80 170 80 c 0,14,15
 279 80 279 80 359.5 153.5 c 128,-1,16
 440 227 440 227 464 337 c 1,17,18
 392 265 392 265 291 265 c 128,-1,0
 190 265 190 265 128 341 c 128,-1,1
205 631 m 128,-1,20
 162 584 162 584 162 515 c 128,-1,21
 162 446 162 446 201.5 399 c 128,-1,22
 241 352 241 352 309 352 c 128,-1,23
 377 352 377 352 421 403.5 c 128,-1,24
 465 455 465 455 465 521 c 128,-1,25
 465 587 465 587 421.5 632.5 c 128,-1,26
 378 678 378 678 313 678 c 128,-1,19
 248 678 248 678 205 631 c 128,-1,20
EndSplineSet
Validated: 1
EndChar

StartChar: colon
Encoding: 58 58 29
Width: 583
GlyphClass: 2
Flags: W
LayerCount: 2
Fore
SplineSet
336 310 m 1,0,-1
 252 313 l 1,1,2
 258 224 258 224 242 180 c 0,3,4
 226 135 226 135 200 86 c 1,5,6
 231 82 231 82 287 82 c 0,7,8
 345 82 345 82 394 86 c 0,9,10
 449.5 89 449.5 89 466 89 c 0,11,12
 483 89 483 89 500 76 c 0,13,14
 516 63 516 63 516 42 c 0,15,16
 516 20 516 20 500 8 c 0,17,18
 481 -6 481 -6 456 -5 c 2,19,20
 301 0 l 1,21,22
 147 -5 l 2,23,24
 120 -6.5 120 -6.5 102 10 c 0,25,26
 86 25 86 25 86 53 c 0,27,28
 86 80 86 80 104 112 c 0,29,30
 120 137 120 137 142 182 c 0,31,32
 160 219 160 219 162 258 c 0,33,34
 162 300 162 300 161 311 c 1,35,36
 156 310 156 310 130 310 c 0,37,38
 75 310 75 310 75 350 c 0,39,40
 75 391 75 391 128 391 c 0,41,42
 134 391 134 391 139 390 c 2,43,44
 149 390 l 2,45,46
 148 393 148 393 138 437 c 0,47,48
 122 502 122 502 122 544 c 0,49,50
 122 663 122 663 174 712 c 0,51,52
 227 761 227 761 319 761 c 1,53,-1
 312 666 l 1,54,55
 269 666 269 666 244 643 c 0,56,57
 218 621 218 621 218 564 c 0,58,59
 218 511 218 511 241 388 c 1,60,-1
 336 391 l 1,61,-1
 356 380 l 2,62,63
 370 369 370 369 370 351 c 0,64,65
 370 328 370 328 356 322 c 2,66,-1
 336 310 l 1,0,-1
EndSplineSet
EndChar

StartChar: semicolon
Encoding: 59 59 30
Width: 593
GlyphClass: 2
Flags: W
LayerCount: 2
Fore
SplineSet
328 750 m 1,0,-1
 477 756 l 2,1,2
 505 756 505 756 520 744 c 0,3,4
 537 731 537 731 537 710 c 0,5,6
 537 688 537 688 518 675 c 0,7,8
 499 662 499 662 469 662 c 1,9,10
 468 621 468 621 468 257 c 0,11,12
 468 186 468 186 448 129 c 0,13,14
 427 74 427 74 393 44 c 0,15,16
 325 -15 325 -15 240 -15 c 0,17,18
 154 -15 154 -15 100 20 c 0,19,20
 46 53 46 53 46 87 c 0,21,22
 46 105 46 105 57 118 c 0,23,24
 68 129 68 129 86 129 c 0,25,26
 103 129 103 129 122 115 c 0,27,28
 143 99 143 99 168 86 c 0,29,30
 198 72 198 72 237 72 c 0,31,32
 296 72 296 72 336 122 c 0,33,34
 378 170 378 170 378 278 c 2,35,-1
 375 667 l 1,36,37
 312 667 312 667 261 664 c 0,38,39
 210 661 210 661 191 661 c 0,40,41
 170 661 170 661 156 674 c 0,42,43
 139 685 139 685 139 708 c 0,44,45
 139 731 139 731 156 742 c 0,46,47
 170 755 170 755 199 755 c 2,48,-1
 328 750 l 1,0,-1
EndSplineSet
EndChar

StartChar: less
Encoding: 60 60 31
Width: 651
GlyphClass: 2
Flags: W
LayerCount: 2
Fore
SplineSet
505 578 m 1,0,-1
 491 374 l 1,1,2
 422 356 422 356 351 362 c 0,3,4
 318 365 318 365 257 412 c 1,5,-1
 505 578 l 1,0,-1
380 679 m 0,6,7
 446 679 446 679 490 656 c 1,8,-1
 203 466 l 1,9,10
 203 598 203 598 234 629 c 0,11,12
 284 679 284 679 380 679 c 0,6,7
590 48 m 2,13,-1
 582 382 l 1,14,15
 582 629 582 629 588 629 c 0,16,17
 610.5 632 610.5 632 621 644 c 0,18,19
 632 657 632 657 632 676 c 0,20,21
 632 694 632 694 603 714 c 0,22,23
 575 733 575 733 532 744 c 0,24,25
 448 765 448 765 386 765 c 0,26,27
 237 765 237 765 158 694 c 0,28,29
 80 623.5 80 623.5 80 520 c 0,30,31
 80 416.5 80 416.5 158 346 c 0,32,33
 236 274 236 274 360 274 c 0,34,35
 451 274 451 274 493 285 c 1,36,-1
 488 48 l 2,37,38
 488 23 488 23 502 6 c 0,39,40
 515 -10 515 -10 538 -10 c 0,41,42
 561 -10 561 -10 576 6 c 0,43,44
 590 23 590 23 590 48 c 2,13,-1
EndSplineSet
EndChar

StartChar: equal
Encoding: 61 61 32
Width: 862
GlyphClass: 2
Flags: W
LayerCount: 2
Fore
SplineSet
740 675 m 0,0,1
 758 654 758 654 758 622 c 0,2,3
 758 592 758 592 740 569 c 0,4,5
 722 548 722 548 694 548 c 0,6,7
 666 548 666 548 648 569 c 0,8,9
 630 592 630 592 630 622 c 0,10,11
 630 654 630 654 648 675 c 0,12,13
 666 697 666 697 694 697 c 0,14,15
 722 697 722 697 740 675 c 0,0,1
570 706 m 0,16,17
 599 671 599 671 599 624 c 0,18,19
 599 577 599 577 570 543 c 0,20,21
 542 509 542 509 495 509 c 0,22,23
 448.5 509 448.5 509 420 542 c 0,24,25
 391 576 391 576 391 624 c 0,26,27
 391 671 391 671 420 706 c 0,28,29
 448.5 739 448.5 739 495 739 c 0,30,31
 541.5 739 541.5 739 570 706 c 0,16,17
540 624 m 0,32,33
 540 651 540 651 528 669 c 0,34,35
 516 686 516 686 495 686 c 0,36,37
 475 686 475 686 461 669 c 0,38,39
 449 651 449 651 449 624 c 0,40,41
 449 598 449 598 461 580 c 0,42,43
 474 562 474 562 495 562 c 0,44,45
 516 562 516 562 528 580 c 0,46,47
 540 596 540 596 540 624 c 0,32,33
331 675 m 0,48,49
 349 654 349 654 349 622 c 0,50,51
 349 592 349 592 331 569 c 0,52,53
 313 548 313 548 285 548 c 0,54,55
 256 548 256 548 239 569 c 0,56,57
 221 592 221 592 221 622 c 0,58,59
 221 654 221 654 239 675 c 0,60,61
 255 697 255 697 285 697 c 0,62,63
 313 697 313 697 331 675 c 0,48,49
144 675 m 0,64,65
 162 654 162 654 162 622 c 0,66,67
 162 592 162 592 144 569 c 0,68,69
 127 548 127 548 98 548 c 0,70,71
 70 548 70 548 52 569 c 0,72,73
 34 592 34 592 34 622 c 0,74,75
 34 654 34 654 52 675 c 0,76,77
 70 697 70 697 98 697 c 0,78,79
 128 697 128 697 144 675 c 0,64,65
801 395 m 2,80,81
 796 244 l 1,82,83
 801 78 l 2,84,85
 802 53 802 53 787 34 c 0,86,87
 773 17 773 17 751 17 c 0,88,89
 709 17 709 17 640 86 c 0,90,91
 562 160 562 160 520 195 c 1,92,93
 494 99 494 99 430 44 c 0,94,95
 365 -12 365 -12 283 -12 c 0,96,97
 183 -12 183 -12 107 58 c 0,98,99
 31 127 31 127 31 247 c 0,100,101
 31 338 31 338 82 408 c 0,102,103
 131.5 477 131.5 477 175 477 c 0,104,105
 190 477 190 477 200 467 c 0,106,107
 212 456 212 456 212 442 c 0,108,109
 212 429 212 429 198 409 c 0,110,111
 185 392 185 392 165 372 c 0,112,113
 147 352 147 352 132 320 c 0,114,115
 118 286 118 286 118 249 c 0,116,117
 118 179 118 179 164 130 c 1,118,119
 213 84 213 84 280 84 c 0,120,121
 351 84 351 84 394 133 c 0,122,123
 438 183 438 183 444 248 c 1,124,125
 410 282 410 282 399 303 c 0,126,127
 387 326 387 326 387 350 c 0,128,129
 387 376 387 376 402 390 c 0,130,131
 416 404 416 404 442 404 c 0,132,133
 467 404 467 404 492 377 c 0,134,135
 516 350 516 350 528 296 c 1,136,137
 615 217 615 217 711 139 c 1,138,139
 714 168 714 168 714 224 c 0,140,141
 714 287 714 287 710 335 c 0,142,143
 707 389 707 389 707 406 c 0,144,145
 707 424 707 424 720 438 c 0,146,147
 731 455 731 455 754 455 c 0,148,149
 777 455 777 455 788 438 c 0,150,151
 802 420 802 420 801 395 c 2,80,81
EndSplineSet
EndChar

StartChar: greater
Encoding: 62 62 33
Width: 696
GlyphClass: 2
Flags: W
LayerCount: 2
Fore
SplineSet
328 311 m 1,0,1
 312 285 312 285 260 202 c 0,2,3
 242 172 242 172 223 141.5 c 128,-1,4
 204 111 204 111 202 108 c 0,5,6
 199 104 199 104 191.5 92.5 c 128,-1,7
 184 81 184 81 180 75 c 0,8,9
 177 70 177 70 174 65 c 128,-1,10
 171 60 171 60 168.5 55.5 c 128,-1,11
 166 51 166 51 165 50 c 2,12,-1
 152 31 l 2,13,14
 141 15 141 15 131 6 c 0,15,16
 115 -10 115 -10 96 -10 c 0,17,18
 79 -10 79 -10 67 2 c 128,-1,19
 55 14 55 14 55 28 c 0,20,21
 55 43 55 43 62 56 c 0,22,23
 67 68 67 68 86 100 c 0,24,25
 92 108 92 108 98.5 118 c 128,-1,26
 105 128 105 128 113 140.5 c 128,-1,27
 121 153 121 153 126 160 c 0,28,29
 221 296 221 296 278 387 c 1,30,31
 185 552 185 552 130 636 c 0,32,33
 106 672 106 672 74 672 c 0,34,35
 56 672 56 672 52 678 c 0,36,37
 48 683 48 683 48 695 c 0,38,39
 48 726 48 726 66 744 c 0,40,41
 85 763 85 763 110 763 c 0,42,43
 137 763 137 763 154 750 c 0,44,45
 174 737 174 737 201 698 c 0,46,47
 217 673 217 673 336 465 c 1,48,49
 343 476 343 476 366.5 515 c 128,-1,50
 390 554 390 554 408 582 c 0,51,52
 454 662 454 662 464 676 c 0,53,54
 477 698 477 698 478 701 c 0,55,56
 482 706 482 706 490 720 c 0,57,58
 493 725 493 725 497.5 731 c 128,-1,59
 502 737 502 737 503 738 c 2,60,-1
 514 749 l 2,61,62
 527 760 527 760 544 760 c 0,63,64
 562 760 562 760 574 748 c 0,65,66
 585 734 585 734 585 718 c 0,67,68
 585 703 585 703 565 666 c 0,69,70
 553 646 553 646 480 532 c 0,71,72
 463 507 463 507 442 474.5 c 128,-1,73
 421 442 421 442 407.5 421.5 c 128,-1,74
 394 401 394 401 386 388 c 1,75,76
 525 165 525 165 562 123 c 0,77,78
 598 78 598 78 626 78 c 0,79,80
 641 78 641 78 644 72 c 0,81,82
 648 68 648 68 648 57 c 0,83,84
 648 27 648 27 630 6 c 0,85,86
 609 -13 609 -13 585 -13 c 0,87,88
 544.5 -13 544.5 -13 495 53 c 0,89,90
 465 93 465 93 328 311 c 1,0,1
EndSplineSet
EndChar

StartChar: question
Encoding: 63 63 34
Width: 616
GlyphClass: 2
Flags: W
LayerCount: 2
Fore
SplineSet
284 440 m 1,0,-1
 454 445 l 2,1,2
 481 445 481 445 497 432 c 0,3,4
 513 420 513 420 513 399 c 0,5,6
 513 355 513 355 454 355 c 2,7,-1
 284 359 l 2,8,9
 232 359 232 359 217 358 c 1,10,11
 217 227.5 217 227.5 220 148 c 0,12,13
 223 68.5 223 68.5 223 61 c 0,14,15
 223 -10 223 -10 172 -10 c 0,16,17
 121 -10 121 -10 121 61 c 0,18,19
 121 82 121 82 122 108 c 0,20,21
 127 238 127 238 127 355 c 1,22,23
 60 355 60 355 60 399 c 0,24,25
 60 422 60 422 79 434 c 0,26,27
 99 445 99 445 127 445 c 1,28,29
 126 624 126 624 120 670 c 1,30,31
 108 690 108 690 108 710 c 0,32,33
 108 755 108 755 170 755 c 2,34,-1
 355 750 l 1,35,-1
 515 756 l 2,36,37
 543 756 543 756 558 744 c 0,38,39
 575 731 575 731 575 709 c 0,40,41
 575 687 575 687 558 674 c 0,42,43
 543 662 543 662 515 662 c 2,44,-1
 355 668 l 2,45,46
 284 668 284 668 217 663 c 1,47,-1
 217 441 l 1,48,49
 230 440 230 440 284 440 c 1,0,-1
EndSplineSet
EndChar

StartChar: at
Encoding: 64 64 35
Width: 938
GlyphClass: 2
Flags: W
LayerCount: 2
Fore
SplineSet
864 369 m 0,0,1
 864 266 864 266 813.5 196.5 c 128,-1,2
 763 127 763 127 692 127 c 0,3,4
 603 127 603 127 575 210 c 1,5,6
 518 127 518 127 429 127 c 0,7,8
 385 127 385 127 350 148 c 128,-1,9
 315 169 315 169 296 202 c 0,10,11
 257 267 257 267 257 342 c 0,12,13
 257 437 257 437 315.5 506.5 c 128,-1,14
 374 576 374 576 465 576 c 0,15,16
 514 576 514 576 564 540 c 1,17,18
 578 576 578 576 610 576 c 0,19,20
 664 576 664 576 664 496 c 0,21,22
 664 486 664 486 654 421 c 128,-1,23
 644 356 644 356 644 313 c 0,24,25
 644 209 644 209 691 209 c 0,26,27
 723 209 723 209 748.5 247.5 c 128,-1,28
 774 286 774 286 774 371 c 0,29,30
 774 521 774 521 685.5 599.5 c 128,-1,31
 597 678 597 678 468 678 c 128,-1,32
 339 678 339 678 249 581 c 128,-1,33
 159 484 159 484 159 338.5 c 128,-1,34
 159 193 159 193 236 109.5 c 128,-1,35
 313 26 313 26 421 26 c 0,36,37
 474 26 474 26 531 48.5 c 128,-1,38
 588 71 588 71 592 71 c 0,39,40
 608 71 608 71 618 61.5 c 128,-1,41
 628 52 628 52 628 37 c 0,42,43
 628 10 628 10 566.5 -22.5 c 128,-1,44
 505 -55 505 -55 417 -55 c 0,45,46
 268 -55 268 -55 166 54.5 c 128,-1,47
 64 164 64 164 64 338.5 c 128,-1,48
 64 513 64 513 180 639 c 128,-1,49
 296 765 296 765 467.5 765 c 128,-1,50
 639 765 639 765 751.5 658 c 128,-1,51
 864 551 864 551 864 369 c 0,0,1
561 334 m 1,52,-1
 561 453 l 1,53,54
 512 489 512 489 465.5 489 c 128,-1,55
 419 489 419 489 385.5 447.5 c 128,-1,56
 352 406 352 406 352 348.5 c 128,-1,57
 352 291 352 291 372 252 c 128,-1,58
 392 213 392 213 432.5 213 c 128,-1,59
 473 213 473 213 505.5 248 c 128,-1,60
 538 283 538 283 561 334 c 1,52,-1
EndSplineSet
Validated: 1
EndChar

StartChar: A
Encoding: 65 65 36
Width: 620
GlyphClass: 2
Flags: W
LayerCount: 2
Fore
SplineSet
85 376 m 128,-1,1
 85 394 85 394 93.5 408 c 128,-1,2
 102 422 102 422 125 435.5 c 128,-1,3
 148 449 148 449 166 457 c 128,-1,4
 184 465 184 465 227.5 481.5 c 128,-1,5
 271 498 271 498 297.5 509 c 128,-1,6
 324 520 324 520 362 536 c 128,-1,7
 400 552 400 552 419.5 560.5 c 128,-1,8
 439 569 439 569 462 578 c 0,9,10
 504 593 504 593 522.5 593 c 128,-1,11
 541 593 541 593 553 582.5 c 128,-1,12
 565 572 565 572 565 556 c 0,13,14
 565 529 565 529 531 514 c 0,15,16
 494 499 494 499 436 477.5 c 128,-1,17
 378 456 378 456 354 446 c 0,18,19
 202 386 202 386 202 376 c 0,20,21
 202 368 202 368 316 322 c 2,22,-1
 353 306 l 2,23,24
 377 296 377 296 435 274.5 c 128,-1,25
 493 253 493 253 530 238 c 0,26,27
 564 223 564 223 564 196 c 0,28,29
 564 180 564 180 552 169.5 c 128,-1,30
 540 159 540 159 526.5 159 c 128,-1,31
 513 159 513 159 498.5 162.5 c 128,-1,32
 484 166 484 166 461 174.5 c 128,-1,33
 438 183 438 183 418 192 c 0,34,35
 309 239 309 239 246 263 c 128,-1,36
 183 287 183 287 165.5 295 c 128,-1,37
 148 303 148 303 125 316.5 c 128,-1,38
 102 330 102 330 93.5 344 c 128,-1,0
 85 358 85 358 85 376 c 128,-1,1
EndSplineSet
EndChar

StartChar: B
Encoding: 66 66 37
Width: 844
GlyphClass: 2
Flags: W
LayerCount: 2
Fore
SplineSet
414 417 m 1,0,-1
 732 422 l 2,1,2
 758 422 758 422 775 410 c 0,3,4
 792 396 792 396 792 377 c 128,-1,5
 792 358 792 358 775 344 c 0,6,7
 759 331 759 331 732 331 c 2,8,-1
 414 336 l 1,9,-1
 162 336 l 1,10,11
 226 280 226 280 344 183 c 0,12,13
 365 165 365 165 365 146 c 0,14,15
 365 128 365 128 354 115 c 0,16,17
 342 103 342 103 328 103 c 0,18,19
 315 103 315 103 306 106 c 0,20,21
 294 111 294 111 282 122 c 0,22,23
 274 128 274 128 256 144 c 0,24,25
 202 197 202 197 184 212 c 0,26,27
 160 234 160 234 122 268 c 0,28,29
 94 295 94 295 53 332 c 0,30,31
 31 355 31 355 31 376 c 0,32,33
 31 398 31 398 53 421 c 0,34,35
 84.5 449.5 84.5 449.5 122 484 c 0,36,37
 139 500 139 500 176 533 c 0,38,39
 179 536 179 536 193 549 c 128,-1,40
 207 562 207 562 217 572 c 0,41,42
 227 581 227 581 240 593 c 128,-1,43
 253 605 253 605 256 608 c 0,44,45
 264 616 264 616 282 632 c 0,46,47
 304.5 650 304.5 650 324 650 c 0,48,49
 342 650 342 650 354 638 c 0,50,51
 365 625 365 625 365 607 c 0,52,53
 365 588 365 588 344 570 c 0,54,55
 226 473 226 473 162 417 c 1,56,-1
 414 417 l 1,0,-1
EndSplineSet
EndChar

StartChar: C
Encoding: 67 67 38
Width: 637
GlyphClass: 2
Flags: W
LayerCount: 2
Fore
SplineSet
82 457 m 132,-1,1
 82 475 82 475 90 489 c 4,2,3
 100 504 100 504 122 516 c 4,4,5
 142 529 142 529 163 538 c 4,6,7
 200 553 200 553 224 562 c 4,8,9
 235 566 235 566 250.5 572.5 c 132,-1,10
 266 579 266 579 276 583 c 132,-1,11
 286 587 286 587 294 590 c 4,12,13
 325 602 325 602 359 617 c 4,14,15
 368 621 368 621 381 626.5 c 132,-1,16
 394 632 394 632 402.5 635.5 c 132,-1,17
 411 639 411 639 416 642 c 4,18,19
 421 644 421 644 436 649.5 c 132,-1,20
 451 655 451 655 459 658 c 4,21,22
 500 674 500 674 520 674 c 4,23,24
 537 674 537 674 550 664 c 4,25,26
 562 652 562 652 562 637 c 4,27,28
 562 610 562 610 528 595 c 4,29,30
 498 583 498 583 433 558 c 4,31,32
 371 536 371 536 351 527 c 4,33,34
 199 467 199 467 199 457 c 4,35,36
 199 449 199 449 312 402 c 6,37,-1
 350 387 l 6,38,39
 370 378 370 378 432 356 c 4,40,41
 497 331 497 331 527 319 c 4,42,43
 561 304 561 304 561 277 c 4,44,45
 561 262 561 262 549 250 c 4,46,47
 536 240 536 240 524 240 c 4,48,49
 508 240 508 240 496 244 c 4,50,51
 480 247 480 247 458 256 c 4,52,53
 455 257 455 257 416 272 c 4,54,55
 310 319 310 319 243 344 c 4,56,57
 194 363 194 363 162 376 c 4,58,59
 140 386 140 386 122 398 c 4,60,61
 100 410 100 410 90 425 c 4,62,0
 82 439 82 439 82 457 c 132,-1,1
131 170 m 6,63,-1
 321 167 l 5,64,-1
 511 170 l 6,65,66
 534 170 534 170 546 158 c 4,67,68
 560 147 560 147 560 128 c 132,-1,69
 560 109 560 109 546 98 c 4,70,71
 534 86 534 86 511 86 c 6,72,-1
 321 89 l 5,73,74
 131 86 l 6,75,76
 108 86 108 86 96 98 c 4,77,78
 82 109 82 109 82 128 c 132,-1,79
 82 147 82 147 96 158 c 4,80,81
 108 170 108 170 131 170 c 6,63,-1
EndSplineSet
EndChar

StartChar: D
Encoding: 68 68 39
Width: 662
GlyphClass: 2
Flags: W
LayerCount: 2
Fore
SplineSet
326 412 m 1,0,-1
 142 409 l 2,1,2
 120 409 120 409 106.5 421 c 128,-1,3
 93 433 93 433 93 451 c 128,-1,4
 93 469 93 469 106.5 481 c 128,-1,5
 120 493 120 493 142 493 c 2,6,-1
 326 490 l 1,7,-1
 520 493 l 2,8,9
 542 493 542 493 555.5 481 c 128,-1,10
 569 469 569 469 569 451 c 128,-1,11
 569 433 569 433 555.5 421 c 128,-1,12
 542 409 542 409 520 409 c 2,13,-1
 326 412 l 1,0,-1
326 258 m 1,14,-1
 142 255 l 2,15,16
 120 255 120 255 106.5 267 c 128,-1,17
 93 279 93 279 93 297 c 128,-1,18
 93 315 93 315 106.5 327 c 128,-1,19
 120 339 120 339 142 339 c 2,20,-1
 326 336 l 1,21,-1
 520 339 l 2,22,23
 542 339 542 339 555.5 327 c 128,-1,24
 569 315 569 315 569 297 c 128,-1,25
 569 279 569 279 555.5 267 c 128,-1,26
 542 255 542 255 520 255 c 2,27,-1
 326 258 l 1,14,-1
EndSplineSet
EndChar

StartChar: E
Encoding: 69 69 40
Width: 662
GlyphClass: 2
Flags: W
LayerCount: 2
Fore
SplineSet
326 96 m 5,0,-1
 142 93 l 6,1,2
 120 93 120 93 106.5 105 c 132,-1,3
 93 117 93 117 93 135 c 132,-1,4
 93 153 93 153 106.5 165 c 132,-1,5
 120 177 120 177 142 177 c 6,6,-1
 326 174 l 5,7,-1
 520 177 l 6,8,9
 542 177 542 177 555.5 165 c 132,-1,10
 569 153 569 153 569 135 c 132,-1,11
 569 117 569 117 555.5 105 c 132,-1,12
 542 93 542 93 520 93 c 6,13,-1
 326 96 l 5,0,-1
326 412 m 1,14,-1
 142 409 l 2,15,16
 120 409 120 409 106.5 421 c 128,-1,17
 93 433 93 433 93 451 c 128,-1,18
 93 469 93 469 106.5 481 c 128,-1,19
 120 493 120 493 142 493 c 2,20,-1
 326 490 l 1,21,-1
 520 493 l 2,22,23
 542 493 542 493 555.5 481 c 128,-1,24
 569 469 569 469 569 451 c 128,-1,25
 569 433 569 433 555.5 421 c 128,-1,26
 542 409 542 409 520 409 c 2,27,-1
 326 412 l 1,14,-1
326 258 m 1,28,-1
 142 255 l 2,29,30
 120 255 120 255 106.5 267 c 128,-1,31
 93 279 93 279 93 297 c 128,-1,32
 93 315 93 315 106.5 327 c 128,-1,33
 120 339 120 339 142 339 c 2,34,-1
 326 336 l 1,35,-1
 520 339 l 2,36,37
 542 339 542 339 555.5 327 c 128,-1,38
 569 315 569 315 569 297 c 128,-1,39
 569 279 569 279 555.5 267 c 128,-1,40
 542 255 542 255 520 255 c 2,41,-1
 326 258 l 1,28,-1
EndSplineSet
EndChar

StartChar: F
Encoding: 70 70 41
Width: 355
GlyphClass: 2
Flags: W
LayerCount: 2
Fore
SplineSet
121.927734375 -0.591796875 m 128,-1,1
 118.353515625 2.5107421875 118.353515625 2.5107421875 115.41796875 6.83984375 c 0,2,3
 103 20.7880859375 103 20.7880859375 103 40.4892578125 c 2,4,-1
 103.0625 55.7802734375 l 2,5,6
 103.125976562 63.4296875 103.125976562 63.4296875 103.25 71.0791015625 c 0,7,8
 103.313476562 74.904296875 103.313476562 74.904296875 103.391601562 78.728515625 c 128,-1,9
 103.470703125 82.552734375 103.470703125 82.552734375 103.564453125 86.3779296875 c 128,-1,10
 103.659179688 90.203125 103.659179688 90.203125 103.768554688 94.0244140625 c 128,-1,11
 103.877929688 97.84765625 103.877929688 97.84765625 104.002929688 101.672851562 c 0,12,13
 109 256.002929688 109 256.002929688 109 375.862304688 c 2,14,-1
 109 431.568359375 l 1,15,-1
 109 434.720703125 l 1,16,-1
 105.881835938 434.598632812 l 1,17,-1
 65.1376953125 433 l 2,18,19
 61.611328125 433 61.611328125 433 58.3720703125 433.265625 c 128,-1,20
 55.1337890625 433.532226562 55.1337890625 433.532226562 52.130859375 434.0703125 c 128,-1,21
 49.1279296875 434.609375 49.1279296875 434.609375 46.3427734375 435.426757812 c 0,22,23
 44.26171875 436.037109375 44.26171875 436.037109375 42.3212890625 436.791992188 c 128,-1,24
 40.380859375 437.546875 40.380859375 437.546875 38.5771484375 438.44921875 c 128,-1,25
 36.7724609375 439.3515625 36.7724609375 439.3515625 35.1064453125 440.403320312 c 128,-1,26
 33.4404296875 441.455078125 33.4404296875 441.455078125 31.921875 442.651367188 c 0,27,28
 29.931640625 444.219726562 29.931640625 444.219726562 28.2666015625 446.022460938 c 128,-1,29
 26.6015625 447.825195312 26.6015625 447.825195312 25.2685546875 449.860351562 c 128,-1,30
 23.9345703125 451.89453125 23.9345703125 451.89453125 22.9443359375 454.146484375 c 0,31,32
 20 460.841796875 20 460.841796875 20 470 c 0,33,34
 20 489.564453125 20 489.564453125 33.8828125 499.66015625 c 0,35,36
 46.7236328125 509 46.7236328125 509 65.140625 509 c 2,37,-1
 104.879882812 507.41015625 l 1,38,-1
 108 507.286132812 l 1,39,-1
 108 510.46484375 l 1,40,-1
 108 583.095703125 l 2,41,42
 108 629.674804688 108 629.674804688 117.791992188 663.266601562 c 0,43,44
 122.703125 680.119140625 122.703125 680.119140625 129.861328125 693.763671875 c 128,-1,45
 137.01953125 707.408203125 137.01953125 707.408203125 146.689152644 717.827148438 c 2,46,-1
 146.737830529 717.877929688 l 1,47,-1
 146.789550781 717.92578125 l 2,48,49
 192.197904147 760 192.197904147 760 249.799804688 760 c 0,50,51
 262.61328125 760 262.61328125 760 274.18359375 758.813476562 c 128,-1,52
 285.752929688 757.626953125 285.752929688 757.626953125 296.0859375 755.248046875 c 0,53,54
 316.813476562 750.474609375 316.813476562 750.474609375 332.59375 741.0078125 c 0,55,56
 368 719.985351562 368 719.985351562 368 695 c 0,57,58
 368 655 368 655 333 655 c 0,59,60
 331.217773438 655 331.217773438 655 329.361328125 655.171875 c 128,-1,61
 327.50390625 655.342773438 327.50390625 655.342773438 325.58984375 655.681640625 c 128,-1,62
 323.674804688 656.020507812 323.674804688 656.020507812 321.68359375 656.52734375 c 0,63,64
 318.622070312 657.307617188 318.622070312 657.307617188 315.534179688 658.388671875 c 128,-1,65
 312.4453125 659.46875 312.4453125 659.46875 309.33203125 660.84765625 c 2,66,-1
 295.52734375 667.921875 l 1,67,-1
 285.84765625 672.8046875 l 2,68,69
 284.256835938 673.499023438 284.256835938 673.499023438 282.67578125 674.11328125 c 128,-1,70
 281.095703125 674.728515625 281.095703125 674.728515625 279.528320312 675.262695312 c 128,-1,71
 277.961914062 675.796875 277.961914062 675.796875 276.40625 676.251953125 c 2,72,-1
 267.11328125 678.3125 l 2,73,74
 264.811523438 678.65625 264.811523438 678.65625 262.534179688 678.828125 c 128,-1,75
 260.255859375 679 260.255859375 679 258 679 c 0,76,77
 238.067683293 679 238.067683293 679 224.492638221 667.569335938 c 128,-1,78
 210.917593149 656.138671875 210.917593149 656.138671875 203.969839243 632.603515625 c 128,-1,79
 197.021071214 609.068359375 197.021071214 609.068359375 197.021071214 573.407226562 c 2,80,-1
 197.021071214 510.287109375 l 1,81,-1
 197.021071214 507.155273438 l 1,82,-1
 199.712552584 507.208984375 l 1,83,-1
 292.923828125 509 l 2,84,85
 295.234375 509 295.234375 509 297.44140625 508.85546875 c 128,-1,86
 299.649414062 508.7109375 299.649414062 508.7109375 301.770507812 508.420898438 c 128,-1,87
 303.890625 508.130859375 303.890625 508.130859375 305.922851562 507.692382812 c 128,-1,88
 307.956054688 507.254882812 307.956054688 507.254882812 309.907226562 506.66796875 c 0,89,90
 317.708007812 504.322265625 317.708007812 504.322265625 324.118164062 499.66015625 c 0,91,92
 331.124023438 494.565429688 331.124023438 494.565429688 334.576171875 487.23828125 c 0,93,94
 335.7265625 484.796875 335.7265625 484.796875 336.489257812 482.05078125 c 128,-1,95
 337.251953125 479.3046875 337.251953125 479.3046875 337.625976562 476.301757812 c 128,-1,96
 338 473.298828125 338 473.298828125 338 470 c 0,97,98
 338 468.171875 338 468.171875 337.881835938 466.440429688 c 128,-1,99
 337.763671875 464.709960938 337.763671875 464.709960938 337.526367188 463.075195312 c 128,-1,100
 337.288085938 461.435546875 337.288085938 461.435546875 336.931640625 459.892578125 c 128,-1,101
 336.576171875 458.350585938 336.576171875 458.350585938 336.1015625 456.907226562 c 2,102,-1
 333.6953125 451.44921875 l 1,103,-1
 330.340820312 446.713867188 l 2,104,105
 329.393554688 445.627929688 329.393554688 445.627929688 328.325195312 444.616210938 c 128,-1,106
 327.255859375 443.603515625 327.255859375 443.603515625 326.067382812 442.666992188 c 0,107,108
 319.990234375 437.874023438 319.990234375 437.874023438 311.66796875 435.422851562 c 128,-1,109
 303.438476562 433 303.438476562 433 292.923828125 433 c 2,110,-1
 199.709510216 434.791015625 l 1,111,-1
 197.021071214 434.844726562 l 1,112,-1
 197.021071214 431.760742188 l 1,113,-1
 197.021071214 375.862304688 l 2,114,115
 197.021071214 241.231445312 197.021071214 241.231445312 200.416353666 147.869140625 c 0,116,117
 202.120079627 101.021484375 202.120079627 101.021484375 202.96890024 74.236328125 c 128,-1,118
 203.818734976 47.4501953125 203.818734976 47.4501953125 203.818734976 40.48046875 c 0,119,120
 203.818734976 31.0693359375 203.818734976 31.0693359375 200.101975661 22.373046875 c 128,-1,121
 196.354792668 13.60546875 196.354792668 13.60546875 189.945537861 7.2490234375 c 0,122,123
 182.818284255 -0.1142578125 182.818284255 -0.1142578125 182.350773738 -0.478515625 c 0,124,125
 178.293269231 -3.6572265625 178.293269231 -3.6572265625 173.372746394 -5.7734375 c 0,126,127
 170.052509014 -7.1865234375 170.052509014 -7.1865234375 166.44121845 -8.126953125 c 128,-1,128
 162.829927885 -9.0673828125 162.829927885 -9.0673828125 158.963078425 -9.5341796875 c 128,-1,129
 155.095214844 -10 155.095214844 -10 150.951509916 -10 c 0,130,131
 145.006723257 -10 145.006723257 -10 139.80859375 -8.9736328125 c 2,132,-1
 129.985351562 -5.84375 l 2,133,0
 125.510742188 -3.716796875 125.510742188 -3.716796875 121.927734375 -0.591796875 c 128,-1,1
EndSplineSet
EndChar

StartChar: G
Encoding: 71 71 42
Width: 637
GlyphClass: 2
Flags: W
LayerCount: 2
Fore
SplineSet
555 457 m 128,-1,1
 555 438 555 438 546 425 c 0,2,3
 538 410 538 410 515 398 c 0,4,5
 495 385 495 385 474 376 c 0,6,7
 448 364 448 364 414 352 c 0,8,9
 403 348 403 348 387.5 341.5 c 128,-1,10
 372 335 372 335 362 331 c 128,-1,11
 352 327 352 327 344 324 c 0,12,13
 313 312 313 312 279 297 c 0,14,15
 270 293 270 293 257 287.5 c 128,-1,16
 244 282 244 282 235.5 278.5 c 128,-1,17
 227 275 227 275 222 272 c 0,18,19
 217 270 217 270 202 264.5 c 128,-1,20
 187 259 187 259 179 256 c 0,21,22
 138 240 138 240 118 240 c 0,23,24
 101 240 101 240 88 250 c 0,25,26
 76 262 76 262 76 277 c 0,27,28
 76 304 76 304 110 319 c 0,29,30
 140 331 140 331 205 356 c 0,31,32
 267 378 267 378 287 387 c 0,33,34
 438 447 438 447 438 457 c 0,35,36
 438 466 438 466 324 512 c 2,37,-1
 286 527 l 2,38,39
 266 536 266 536 204 558 c 0,40,41
 139 583 139 583 109 595 c 0,42,43
 75 610 75 610 75 637 c 0,44,45
 75 652 75 652 87 664 c 0,46,47
 100 674 100 674 112 674 c 0,48,49
 128 674 128 674 140 670 c 0,50,51
 156 667 156 667 178 658 c 0,52,53
 181 657 181 657 220 642 c 0,54,55
 326 595 326 595 393 570 c 0,56,57
 442 551 442 551 474 538 c 0,58,59
 495 529 495 529 515 516 c 0,60,61
 538 504 538 504 546 489 c 0,62,0
 555 476 555 476 555 457 c 128,-1,1
506 86 m 2,63,-1
 316 89 l 1,64,-1
 126 86 l 2,65,66
 105 86 105 86 90 98 c 0,67,68
 77 111 77 111 77 128 c 128,-1,69
 77 145 77 145 90 158 c 0,70,71
 105 170 105 170 126 170 c 2,72,-1
 316 167 l 1,73,74
 506 170 l 2,75,76
 527 170 527 170 542 158 c 0,77,78
 555 145 555 145 555 128 c 128,-1,79
 555 111 555 111 542 98 c 0,80,81
 527 86 527 86 506 86 c 2,63,-1
EndSplineSet
EndChar

StartChar: H
Encoding: 72 72 43
Width: 620
GlyphClass: 2
Flags: W
LayerCount: 2
Fore
SplineSet
535 376 m 128,-1,1
 535 358 535 358 526.5 344 c 128,-1,2
 518 330 518 330 495 316.5 c 128,-1,3
 472 303 472 303 454.5 295 c 128,-1,4
 437 287 437 287 393.5 270.5 c 128,-1,5
 350 254 350 254 323.5 243 c 128,-1,6
 297 232 297 232 259 216 c 128,-1,7
 221 200 221 200 201.5 191.5 c 128,-1,8
 182 183 182 183 159 174 c 0,9,10
 117 159 117 159 98.5 159 c 128,-1,11
 80 159 80 159 68 169.5 c 128,-1,12
 56 180 56 180 56 196 c 0,13,14
 56 223 56 223 90 238 c 0,15,16
 127 253 127 253 185 274.5 c 128,-1,17
 243 296 243 296 267 306 c 0,18,19
 418 366 418 366 418 376 c 0,20,21
 418 384 418 384 304 430 c 2,22,-1
 266 446 l 2,23,24
 242 456 242 456 184 477.5 c 128,-1,25
 126 499 126 499 89 514 c 0,26,27
 55 529 55 529 55 556 c 0,28,29
 55 572 55 572 67 582.5 c 128,-1,30
 79 593 79 593 92.5 593 c 128,-1,31
 106 593 106 593 120.5 589.5 c 128,-1,32
 135 586 135 586 158 577.5 c 128,-1,33
 181 569 181 569 200 560 c 0,34,35
 310 513 310 513 373 489 c 128,-1,36
 436 465 436 465 454 457 c 128,-1,37
 472 449 472 449 495 435.5 c 128,-1,38
 518 422 518 422 526.5 408 c 128,-1,0
 535 394 535 394 535 376 c 128,-1,1
EndSplineSet
EndChar

StartChar: I
Encoding: 73 73 44
Width: 604
GlyphClass: 2
Flags: W
LayerCount: 2
Fore
SplineSet
351 700 m 2,0,-1
 346 373 l 1,1,-1
 346 121 l 1,2,3
 402 185 402 185 499 303 c 0,4,5
 517 324 517 324 536 324 c 128,-1,6
 555 324 555 324 567 312 c 0,7,8
 579 302 579 302 579 288 c 128,-1,9
 579 274 579 274 576 264 c 0,10,11
 570 253 570 253 560 241 c 0,12,13
 554 233 554 233 538 215 c 0,14,15
 485 161 485 161 470 143 c 0,16,17
 462 135 462 135 442 113 c 128,-1,18
 422 91 422 91 414 82 c 0,19,20
 380 46 380 46 350 12 c 0,21,22
 327 -10 327 -10 306 -10 c 0,23,24
 284 -10 284 -10 261 12 c 0,25,26
 213 65 213 65 198 82 c 0,27,28
 185 95 185 95 169 112.5 c 128,-1,29
 153 130 153 130 149 134 c 0,30,31
 122 164 122 164 110 176 c 0,32,33
 101 186 101 186 89 199 c 128,-1,34
 77 212 77 212 74 215 c 0,35,36
 66 223 66 223 50 241 c 0,37,38
 32 264 32 264 32 282 c 0,39,40
 32 301.5 32 301.5 44 312 c 0,41,42
 56 324 56 324 75 324 c 128,-1,43
 94 324 94 324 112 303 c 0,44,45
 209 185 209 185 265 121 c 1,46,-1
 265 373 l 1,47,-1
 260 700 l 2,48,49
 260 726 260 726 272 743 c 0,50,51
 286 760 286 760 305 760 c 128,-1,52
 324 760 324 760 338 743 c 0,53,54
 351 727 351 727 351 700 c 2,0,-1
EndSplineSet
EndChar

StartChar: J
Encoding: 74 74 45
Width: 593
GlyphClass: 2
Flags: W
LayerCount: 2
Fore
SplineSet
298 412 m 132,-1,1
 336 368.5 336 368.5 336 306 c 132,-1,2
 336 243.5 336 243.5 298 200 c 132,-1,3
 260 156.5 260 156.5 199 156.5 c 132,-1,4
 138 156.5 138 156.5 100 199.5 c 132,-1,5
 62 242.5 62 242.5 62 305.5 c 132,-1,6
 62 368.5 62 368.5 100 412 c 132,-1,7
 138 455.5 138 455.5 199 455.5 c 132,-1,0
 260 455.5 260 455.5 298 412 c 132,-1,1
258 305.5 m 132,-1,9
 258 340.5 258 340.5 242.5 363.5 c 132,-1,10
 227 386.5 227 386.5 199 386.5 c 132,-1,11
 171 386.5 171 386.5 155 363.5 c 132,-1,12
 139 340.5 139 340.5 139 306 c 132,-1,13
 139 271.5 139 271.5 155 248.5 c 132,-1,14
 171 225.5 171 225.5 199 225.5 c 132,-1,15
 227 225.5 227 225.5 242.5 248 c 132,-1,8
 258 270.5 258 270.5 258 305.5 c 132,-1,9
328 750 m 1,16,-1
 477 756 l 2,17,18
 505 756 505 756 520 744 c 0,19,20
 537 731 537 731 537 710 c 0,21,22
 537 688 537 688 518 675 c 128,-1,23
 499 662 499 662 469 662 c 1,24,25
 468 621 468 621 468 257 c 0,26,27
 468 186 468 186 448 129 c 0,28,29
 427 74 427 74 393 44 c 0,30,31
 325 -15 325 -15 240 -15 c 0,32,33
 154 -15 154 -15 100 20 c 0,34,35
 46 53 46 53 46 87 c 0,36,37
 46 105 46 105 57 118 c 0,38,39
 68 129 68 129 86 129 c 0,40,41
 103 129 103 129 122 115 c 0,42,43
 143 99 143 99 168 86 c 0,44,45
 198 72 198 72 237 72 c 0,46,47
 296 72 296 72 336 122 c 0,48,49
 378 170 378 170 378 278 c 2,50,-1
 375 667 l 1,51,52
 312 667 312 667 261 664 c 128,-1,53
 210 661 210 661 191 661 c 0,54,55
 170 661 170 661 156 674 c 0,56,57
 139 685 139 685 139 708 c 128,-1,58
 139 731 139 731 156 742 c 0,59,60
 170 755 170 755 199 755 c 2,61,-1
 328 750 l 1,16,-1
EndSplineSet
EndChar

StartChar: K
Encoding: 75 75 46
Width: 604
GlyphClass: 2
Flags: W
LayerCount: 2
Fore
SplineSet
339 377 m 1,0,-1
 344 50 l 2,1,2
 344 23 344 23 331 7 c 0,3,4
 317 -10 317 -10 298 -10 c 0,5,6
 278 -10 278 -10 266 7 c 0,7,8
 253 23 253 23 253 50 c 2,9,-1
 258 377 l 1,10,-1
 258 629 l 1,11,12
 202 565 202 565 105 447 c 0,13,14
 87 426 87 426 68 426 c 128,-1,15
 49 426 49 426 37 438 c 0,16,17
 25 448 25 448 25 462 c 128,-1,18
 25 476 25 476 28 486 c 0,19,20
 34 497 34 497 44 509 c 0,21,22
 50 517 50 517 66 535 c 0,23,24
 119 589 119 589 134 607 c 0,25,26
 142 615 142 615 162 637 c 128,-1,27
 182 659 182 659 190 668 c 0,28,29
 224 704 224 704 254 738 c 0,30,31
 277 760 277 760 298 760 c 0,32,33
 320 760 320 760 343 738 c 0,34,35
 391 685 391 685 406 668 c 0,36,37
 419 655 419 655 435 637.5 c 128,-1,38
 451 620 451 620 455 616 c 0,39,40
 482 586 482 586 494 574 c 0,41,42
 503 564 503 564 515 551 c 128,-1,43
 527 538 527 538 530 535 c 0,44,45
 538 527 538 527 554 509 c 0,46,47
 572 487 572 487 572 468 c 0,48,49
 572 448.5 572 448.5 560 438 c 0,50,51
 548 426 548 426 529 426 c 128,-1,52
 510 426 510 426 492 447 c 0,53,54
 395 565 395 565 339 629 c 1,55,-1
 339 377 l 1,0,-1
EndSplineSet
EndChar

StartChar: L
Encoding: 76 76 47
Width: 273
GlyphClass: 2
Flags: W
LayerCount: 2
Fore
SplineSet
178.5 487 m 128,-1,1
 192 470 192 470 192 444 c 128,-1,2
 192 418 192 418 175 396.5 c 128,-1,3
 158 375 158 375 133.5 375 c 128,-1,4
 109 375 109 375 95 393 c 128,-1,5
 81 411 81 411 81 437 c 128,-1,6
 81 463 81 463 97.5 483.5 c 128,-1,7
 114 504 114 504 139.5 504 c 128,-1,0
 165 504 165 504 178.5 487 c 128,-1,1
178.5 102 m 128,-1,9
 192 85 192 85 192 58.5 c 128,-1,10
 192 32 192 32 175 11 c 128,-1,11
 158 -10 158 -10 133.5 -10 c 128,-1,12
 109 -10 109 -10 95 8 c 128,-1,13
 81 26 81 26 81 52 c 128,-1,14
 81 78 81 78 97.5 98.5 c 128,-1,15
 114 119 114 119 139.5 119 c 128,-1,8
 165 119 165 119 178.5 102 c 128,-1,9
EndSplineSet
EndChar

StartChar: M
Encoding: 77 77 48
Width: 743
GlyphClass: 2
Flags: W
LayerCount: 2
Fore
SplineSet
569 680 m 4,0,1
 501 757 501 757 372 757 c 132,-1,2
 243 757 243 757 174 680 c 132,-1,3
 105 603 105 603 103 493 c 4,4,5
 102 458 102 458 102 364 c 4,6,7
 102 264 102 264 100 216 c 4,8,9
 100 191 100 191 99 153.5 c 132,-1,10
 98 116 98 116 98 104 c 4,11,12
 96 75 96 75 96 53 c 4,13,14
 96 -18 96 -18 147 -18 c 132,-1,15
 198 -18 198 -18 198 53 c 4,16,17
 198 55 198 55 197.5 62.5 c 132,-1,18
 197 70 197 70 196.5 85 c 132,-1,19
 196 100 196 100 196 116 c 4,20,21
 192 264 192 264 192 376 c 4,22,23
 192 475 192 475 200 512 c 4,24,25
 206 553 206 553 226 592 c 4,26,27
 264 670 264 670 371 670 c 4,28,29
 524 670 524 670 546 493 c 4,30,31
 551 455 551 455 551 398 c 4,32,33
 551 380 551 380 550.5 333 c 132,-1,34
 550 286 550 286 550 256 c 4,35,36
 549 231 549 231 548 184 c 132,-1,37
 547 137 547 137 546 116 c 4,38,39
 546 100 546 100 546 85.5 c 132,-1,40
 546 71 546 71 545.5 62.5 c 132,-1,41
 545 54 545 54 545 53 c 4,42,43
 545 -18 545 -18 596 -18 c 132,-1,44
 647 -18 647 -18 647 53 c 4,45,46
 647 75 647 75 646 104 c 4,47,48
 641 246 641 246 641 336 c 4,49,50
 641 458 641 458 640 493 c 4,51,52
 638 604 638 604 569 680 c 4,0,1
EndSplineSet
EndChar

StartChar: N
Encoding: 78 78 49
Width: 521
GlyphClass: 2
Flags: W
LayerCount: 2
Fore
SplineSet
456 580 m 0,0,1
 456 542 456 542 439.5 506 c 128,-1,2
 423 470 423 470 407.5 451.5 c 128,-1,3
 392 433 392 433 360 400 c 1,4,5
 330 375 330 375 314.5 360.5 c 128,-1,6
 299 346 299 346 284.5 322 c 128,-1,7
 270 298 270 298 270 274 c 0,8,9
 270 208 270 208 225 208 c 0,10,11
 205 208 205 208 192 225.5 c 128,-1,12
 179 243 179 243 179 272 c 128,-1,13
 179 301 179 301 187 325 c 128,-1,14
 195 349 195 349 214 372 c 0,15,16
 240 403 240 403 288 446 c 1,17,18
 312 473 312 473 324 488 c 128,-1,19
 336 503 336 503 348 529 c 128,-1,20
 360 555 360 555 360 580 c 0,21,22
 360 623 360 623 327.5 650.5 c 128,-1,23
 295 678 295 678 254 678 c 0,24,25
 193 678 193 678 149 634 c 0,26,27
 125 606 125 606 105.5 606 c 128,-1,28
 86 606 86 606 75 618.5 c 128,-1,29
 64 631 64 631 64 648 c 0,30,31
 64 686 64 686 121.5 726 c 128,-1,32
 179 766 179 766 249 766 c 0,33,34
 341 766 341 766 398.5 712.5 c 128,-1,35
 456 659 456 659 456 580 c 0,0,1
264 95 m 128,-1,37
 277 78 277 78 277 52.5 c 128,-1,38
 277 27 277 27 260 6 c 128,-1,39
 243 -15 243 -15 219 -15 c 128,-1,40
 195 -15 195 -15 181.5 3.5 c 128,-1,41
 168 22 168 22 168 47 c 128,-1,42
 168 72 168 72 184.5 92 c 128,-1,43
 201 112 201 112 226 112 c 128,-1,36
 251 112 251 112 264 95 c 128,-1,37
EndSplineSet
EndChar

StartChar: O
Encoding: 79 79 50
Width: 824
GlyphClass: 2
Flags: W
LayerCount: 2
Fore
SplineSet
472 376 m 0,0,1
 472 412 472 412 456 434 c 0,2,3
 441 457 441 457 413 457 c 0,4,5
 386 457 386 457 369 434 c 0,6,7
 353 412 353 412 353 376 c 0,8,9
 353 341 353 341 369 319 c 0,10,11
 386 296 386 296 413 296 c 0,12,13
 440 296 440 296 456 318 c 0,14,15
 472 341 472 341 472 376 c 0,0,1
586 164 m 0,16,17
 656 255 656 255 656 377 c 0,18,19
 656 498 656 498 587 588 c 0,20,21
 518 679 518 679 412 679 c 0,22,23
 307 679 307 679 238 588 c 0,24,25
 168 499 168 499 168 378 c 0,26,27
 168 256 168 256 238 164 c 0,28,29
 309 72 309 72 412 72 c 0,30,31
 517 72 517 72 586 164 c 0,16,17
752 376 m 0,32,33
 752 212 752 212 654 99 c 0,34,35
 558 -15 558 -15 412 -15 c 0,36,37
 266 -15 266 -15 169 99 c 0,38,39
 72 212 72 212 72 376 c 0,40,41
 72 539 72 539 170 652 c 0,42,43
 268 765 268 765 414 765 c 0,44,45
 558 765 558 765 656 652 c 0,46,47
 752 539.5 752 539.5 752 376 c 0,32,33
EndSplineSet
EndChar

StartChar: P
Encoding: 80 80 51
Width: 844
GlyphClass: 2
Flags: W
LayerCount: 2
Fore
SplineSet
430 336 m 1,0,-1
 112 331 l 2,1,2
 85 331 85 331 69 344 c 0,3,4
 52 358 52 358 52 377 c 128,-1,5
 52 396 52 396 69 410 c 0,6,7
 86 422 86 422 112 422 c 2,8,-1
 430 417 l 1,9,-1
 682 417 l 1,10,11
 618 473 618 473 500 570 c 0,12,13
 479 588 479 588 479 607 c 0,14,15
 479 625 479 625 490 638 c 0,16,17
 502 650 502 650 516 650 c 128,-1,18
 530 650 530 650 538 646 c 0,19,20
 547 643 547 643 562 632 c 0,21,22
 580 616 580 616 588 608 c 0,23,24
 605 592 605 592 629 569 c 128,-1,25
 653 546 653 546 660 540 c 0,26,27
 682 521 682 521 722 484 c 0,28,29
 759.5 449.5 759.5 449.5 791 421 c 0,30,31
 813 398 813 398 813 376 c 0,32,33
 813 355 813 355 791 332 c 0,34,35
 750 295 750 295 722 268 c 0,36,37
 683 233.5 683 233.5 668 220 c 0,38,39
 654 206 654 206 627 182 c 0,40,41
 617 172 617 172 604 159.5 c 128,-1,42
 591 147 591 147 588 144 c 0,43,44
 570 128 570 128 562 122 c 0,45,46
 540 103 540 103 520 103 c 0,47,48
 502 103 502 103 490 115 c 0,49,50
 479 128 479 128 479 146 c 0,51,52
 479 165 479 165 500 183 c 0,53,54
 618 280 618 280 682 336 c 1,55,-1
 430 336 l 1,0,-1
EndSplineSet
EndChar

StartChar: Q
Encoding: 81 81 52
Width: 661
GlyphClass: 2
Flags: W
LayerCount: 2
Fore
SplineSet
568 494 m 0,0,1
 568 464 568 464 526 434 c 0,2,3
 485 402 485 402 440 402 c 0,4,5
 396 402 396 402 341 430 c 0,6,7
 286 458 286 458 259 458 c 0,8,9
 233.5 458 233.5 458 199 428 c 0,10,11
 164 399 164 399 141 399 c 0,12,13
 118 399 118 399 105 410 c 0,14,15
 93 420 93 420 93 439 c 0,16,17
 93 472 93 472 141 503 c 0,18,19
 188 534 188 534 244 534 c 0,20,21
 298 534 298 534 357 506 c 0,22,23
 412 477 412 477 439 477 c 0,24,25
 465 477 465 477 490 502 c 0,26,27
 517 526 517 526 534 526 c 0,28,29
 550 526 550 526 559 516 c 0,30,31
 568 507 568 507 568 494 c 0,0,1
568 314 m 0,32,33
 568 284 568 284 526 254 c 0,34,35
 485 222 485 222 440 222 c 0,36,37
 396 222 396 222 341 250 c 0,38,39
 286 278 286 278 259 278 c 0,40,41
 233.5 278 233.5 278 199 248 c 0,42,43
 164 219 164 219 141 219 c 0,44,45
 118 219 118 219 105 230 c 0,46,47
 93 240 93 240 93 259 c 0,48,49
 93 292 93 292 141 323 c 0,50,51
 188 354 188 354 244 354 c 0,52,53
 298 354 298 354 357 326 c 0,54,55
 412 297 412 297 439 297 c 0,56,57
 465 297 465 297 490 322 c 0,58,59
 517 346 517 346 534 346 c 0,60,61
 550 346 550 346 559 336 c 0,62,63
 568 327 568 327 568 314 c 0,32,33
EndSplineSet
EndChar

StartChar: R
Encoding: 82 82 53
Width: 628
GlyphClass: 2
Flags: W
LayerCount: 2
Fore
SplineSet
314 406 m 5,0,-1
 511 409 l 6,1,2
 529 409 529 409 540.5 399 c 132,-1,3
 552 389 552 389 552 374 c 132,-1,4
 552 359 552 359 540.5 349 c 132,-1,5
 529 339 529 339 511 339 c 6,6,-1
 314 342 l 5,7,-1
 117 339 l 6,8,9
 99 339 99 339 87.5 349 c 132,-1,10
 76 359 76 359 76 374 c 132,-1,11
 76 389 76 389 87.5 399 c 132,-1,12
 99 409 99 409 117 409 c 6,13,14
 117 409 117 409 314 406 c 5,0,-1
355.5 598 m 132,-1,16
 369 581 369 581 369 554.5 c 132,-1,17
 369 528 369 528 352 507 c 132,-1,18
 335 486 335 486 310.5 486 c 132,-1,19
 286 486 286 486 272 504 c 132,-1,20
 258 522 258 522 258 548 c 132,-1,21
 258 574 258 574 274.5 594.5 c 132,-1,22
 291 615 291 615 316.5 615 c 132,-1,15
 342 615 342 615 355.5 598 c 132,-1,16
357.5 245 m 132,-1,24
 371 228 371 228 371 202 c 132,-1,25
 371 176 371 176 354 154.5 c 132,-1,26
 337 133 337 133 312.5 133 c 132,-1,27
 288 133 288 133 274 151 c 132,-1,28
 260 169 260 169 260 195 c 132,-1,29
 260 221 260 221 276.5 241.5 c 132,-1,30
 293 262 293 262 318.5 262 c 132,-1,23
 344 262 344 262 357.5 245 c 132,-1,24
EndSplineSet
EndChar

StartChar: S
Encoding: 83 83 54
Width: 283
GlyphClass: 2
Flags: W
LayerCount: 2
Fore
SplineSet
183.5 487 m 128,-1,1
 197 470 197 470 197 444 c 128,-1,2
 197 418 197 418 180 396.5 c 128,-1,3
 163 375 163 375 138.5 375 c 128,-1,4
 114 375 114 375 100 393 c 128,-1,5
 86 411 86 411 86 437 c 128,-1,6
 86 463 86 463 102.5 483.5 c 128,-1,7
 119 504 119 504 144.5 504 c 128,-1,0
 170 504 170 504 183.5 487 c 128,-1,1
196 36 m 0,8,9
 196 -18 196 -18 160 -83 c 128,-1,10
 124 -148 124 -148 93 -148 c 128,-1,11
 62 -148 62 -148 62 -122 c 0,12,13
 62 -108 62 -108 77.5 -82.5 c 128,-1,14
 93 -57 93 -57 93 -37.5 c 128,-1,15
 93 -18 93 -18 89 0 c 128,-1,16
 85 18 85 18 85 40.5 c 128,-1,17
 85 63 85 63 101 83.5 c 128,-1,18
 117 104 117 104 142.5 104 c 128,-1,19
 168 104 168 104 182 85.5 c 128,-1,20
 196 67 196 67 196 36 c 0,8,9
EndSplineSet
EndChar

StartChar: T
Encoding: 84 84 55
Width: 586
GlyphClass: 2
Flags: W
LayerCount: 2
Fore
SplineSet
488 408 m 0,0,1
 520 370 520 370 520 329 c 0,2,3
 520 288 520 288 494 250 c 0,4,5
 468 214 468 214 426 191 c 1,6,7
 485 149 485 149 485 83 c 0,8,9
 485 17 485 17 426 -34 c 0,10,11
 368 -85 368 -85 272 -85 c 0,12,13
 201 -85 201 -85 136 -48 c 0,14,15
 69 -11 69 -11 69 26 c 0,16,17
 69 42 69 42 80 53 c 0,18,19
 90 63 90 63 108 63 c 0,20,21
 125 63 125 63 146 48 c 0,22,23
 207 2 207 2 266 2 c 0,24,25
 323 2 323 2 357 25 c 0,26,27
 390 48 390 48 390 81 c 0,28,29
 390 113 390 113 358 140 c 0,30,31
 325 165 325 165 280 187 c 0,32,33
 220 217 220 217 190 234 c 0,34,35
 143.5 258 143.5 258 112 294 c 0,36,37
 80 329 80 329 80 373 c 0,38,39
 80 417 80 417 114 451 c 0,40,41
 148.5 485.5 148.5 485.5 204 499 c 1,42,43
 115 561 115 561 115 620 c 0,44,45
 115 679 115 679 170 722 c 0,46,47
 226 765 226 765 302 765 c 0,48,49
 376 765 376 765 429 738 c 0,50,51
 481 711 481 711 481 675 c 0,52,53
 481 660 481 660 470 650 c 0,54,55
 461 640 461 640 444 640 c 0,56,57
 429 640 429 640 392 659 c 0,58,59
 355 678 355 678 312 678 c 0,60,61
 268 678 268 678 240 662 c 0,62,63
 210 646 210 646 210 619 c 0,64,65
 210 592 210 592 242 566 c 0,66,67
 271 542 271 542 320 516 c 0,68,69
 360 497 360 497 410 469 c 0,70,71
 457 443 457 443 488 408 c 0,0,1
405 276 m 0,72,73
 429 298.5 429 298.5 429 330 c 0,74,75
 429 361 429 361 376 394 c 0,76,77
 325 429 325 429 277 429 c 0,78,79
 231 429 231 429 201 414 c 0,80,81
 171 399 171 399 171 374 c 0,82,83
 171 350 171 350 206 324 c 0,84,85
 241 298 241 298 340 243 c 1,86,87
 381 254 381 254 405 276 c 0,72,73
EndSplineSet
EndChar

StartChar: U
Encoding: 85 85 56
Width: 743
GlyphClass: 2
Flags: W
LayerCount: 2
Fore
SplineSet
569 62 m 0,0,1
 501 -15 501 -15 372 -15 c 128,-1,2
 243 -15 243 -15 174 62 c 128,-1,3
 105 139 105 139 103 249 c 0,4,5
 102 284 102 284 102 378 c 0,6,7
 102 478 102 478 100 526 c 0,8,9
 100 551 100 551 99 588.5 c 128,-1,10
 98 626 98 626 98 638 c 0,11,12
 96 667 96 667 96 689 c 0,13,14
 96 760 96 760 147 760 c 128,-1,15
 198 760 198 760 198 689 c 0,16,17
 198 687 198 687 197.5 679.5 c 128,-1,18
 197 672 197 672 196.5 657 c 128,-1,19
 196 642 196 642 196 626 c 0,20,21
 192 478 192 478 192 366 c 0,22,23
 192 267 192 267 200 230 c 0,24,25
 206 189 206 189 226 150 c 0,26,27
 264 72 264 72 371 72 c 0,28,29
 524 72 524 72 546 249 c 0,30,31
 551 287 551 287 551 344 c 0,32,33
 551 362 551 362 550.5 409 c 128,-1,34
 550 456 550 456 550 486 c 0,35,36
 549 511 549 511 548 558 c 128,-1,37
 547 605 547 605 546 626 c 0,38,39
 546 642 546 642 546 656.5 c 128,-1,40
 546 671 546 671 545.5 679.5 c 128,-1,41
 545 688 545 688 545 689 c 0,42,43
 545 760 545 760 596 760 c 128,-1,44
 647 760 647 760 647 689 c 0,45,46
 647 667 647 667 646 638 c 0,47,48
 641 496 641 496 641 406 c 0,49,50
 641 284 641 284 640 249 c 0,51,52
 638 138 638 138 569 62 c 0,0,1
EndSplineSet
EndChar

StartChar: V
Encoding: 86 86 57
Width: 605
GlyphClass: 2
Flags: W
LayerCount: 2
Fore
SplineSet
230 358.220703125 m 5,0,-1
 187.16015625 356.690429688 l 6,1,2
 179.240234375 356.690429688 179.240234375 356.690429688 174.379882812 362.810546875 c 132,-1,3
 169.51953125 368.930664062 169.51953125 368.930664062 169.51953125 378.110351562 c 132,-1,4
 169.51953125 387.290039062 169.51953125 387.290039062 174.379882812 393.41015625 c 132,-1,5
 179.240234375 399.530273438 179.240234375 399.530273438 187.16015625 399.530273438 c 6,6,-1
 230 398 l 5,7,-1
 272.83984375 399.530273438 l 6,8,9
 280.759765625 399.530273438 280.759765625 399.530273438 285.620117188 393.41015625 c 132,-1,10
 290.479492188 387.290039062 290.479492188 387.290039062 290.479492188 378.110351562 c 132,-1,11
 290.479492188 368.930664062 290.479492188 368.930664062 285.620117188 362.810546875 c 132,-1,12
 280.759765625 356.690429688 280.759765625 356.690429688 272.83984375 356.690429688 c 6,13,14
 272.83984375 356.690429688 272.83984375 356.690429688 230 358.220703125 c 5,0,-1
150 376 m 128,-1,16
 150 368 150 368 207 327 c 0,17,18
 215 321 215 321 233 309.5 c 128,-1,19
 251 298 251 298 260 291 c 0,20,21
 288 271 288 271 288 253 c 128,-1,22
 288 235 288 235 276 223.5 c 128,-1,23
 264 212 264 212 246.5 212 c 128,-1,24
 229 212 229 212 215.5 220 c 128,-1,25
 202 228 202 228 184 245 c 128,-1,26
 166 262 166 262 128.5 292.5 c 128,-1,27
 91 323 91 323 75 341 c 128,-1,28
 59 359 59 359 59 376 c 128,-1,29
 59 393 59 393 75 411 c 128,-1,30
 91 429 91 429 128.5 459.5 c 128,-1,31
 166 490 166 490 180.5 503.5 c 128,-1,32
 195 517 195 517 203 524 c 0,33,34
 223 540 223 540 243.5 540 c 128,-1,35
 264 540 264 540 276 528.5 c 128,-1,36
 288 517 288 517 288 501.5 c 128,-1,37
 288 486 288 486 277.5 475 c 128,-1,38
 267 464 267 464 239 446 c 128,-1,39
 211 428 211 428 207 425 c 0,40,15
 150 384 150 384 150 376 c 128,-1,16
390 376 m 128,-1,42
 390 368 390 368 447 327 c 0,43,44
 455 321 455 321 473 309.5 c 128,-1,45
 491 298 491 298 500 291 c 0,46,47
 528 271 528 271 528 253 c 128,-1,48
 528 235 528 235 516 223.5 c 128,-1,49
 504 212 504 212 486.5 212 c 128,-1,50
 469 212 469 212 455.5 220 c 128,-1,51
 442 228 442 228 424 245 c 128,-1,52
 406 262 406 262 368.5 292.5 c 128,-1,53
 331 323 331 323 315 341 c 128,-1,54
 299 359 299 359 299 376 c 128,-1,55
 299 393 299 393 315 411 c 128,-1,56
 331 429 331 429 368.5 459.5 c 128,-1,57
 406 490 406 490 420.5 503.5 c 128,-1,58
 435 517 435 517 443 524 c 0,59,60
 463 540 463 540 483.5 540 c 128,-1,61
 504 540 504 540 516 528.5 c 128,-1,62
 528 517 528 517 528 501.5 c 128,-1,63
 528 486 528 486 517.5 475 c 128,-1,64
 507 464 507 464 479 446 c 128,-1,65
 451 428 451 428 447 425 c 0,66,41
 390 384 390 384 390 376 c 128,-1,42
EndSplineSet
EndChar

StartChar: W
Encoding: 87 87 58
Width: 604
GlyphClass: 2
Flags: W
LayerCount: 2
Fore
SplineSet
378 360.220703125 m 5,0,-1
 335.16015625 358.690429688 l 6,1,2
 327.240234375 358.690429688 327.240234375 358.690429688 322.379882812 364.810546875 c 132,-1,3
 317.51953125 370.930664062 317.51953125 370.930664062 317.51953125 380.110351562 c 132,-1,4
 317.51953125 389.290039062 317.51953125 389.290039062 322.379882812 395.41015625 c 132,-1,5
 327.240234375 401.530273438 327.240234375 401.530273438 335.16015625 401.530273438 c 6,6,-1
 378 400 l 5,7,-1
 420.83984375 401.530273438 l 6,8,9
 428.759765625 401.530273438 428.759765625 401.530273438 433.620117188 395.41015625 c 132,-1,10
 438.479492188 389.290039062 438.479492188 389.290039062 438.479492188 380.110351562 c 132,-1,11
 438.479492188 370.930664062 438.479492188 370.930664062 433.620117188 364.810546875 c 132,-1,12
 428.759765625 358.690429688 428.759765625 358.690429688 420.83984375 358.690429688 c 6,13,14
 420.83984375 358.690429688 420.83984375 358.690429688 378 360.220703125 c 5,0,-1
546 376 m 128,-1,16
 546 359 546 359 530 341 c 128,-1,17
 514 323 514 323 476.5 292.5 c 128,-1,18
 439 262 439 262 424.5 248.5 c 128,-1,19
 410 235 410 235 402 228 c 0,20,21
 382 212 382 212 361.5 212 c 128,-1,22
 341 212 341 212 329 223.5 c 128,-1,23
 317 235 317 235 317 250.5 c 128,-1,24
 317 266 317 266 327.5 277 c 128,-1,25
 338 288 338 288 366 306 c 128,-1,26
 394 324 394 324 398 327 c 0,27,28
 455 368 455 368 455 376 c 128,-1,29
 455 384 455 384 398 425 c 0,30,31
 390 431 390 431 372 442.5 c 128,-1,32
 354 454 354 454 344 461 c 0,33,34
 317 481 317 481 317 499 c 128,-1,35
 317 517 317 517 329 528.5 c 128,-1,36
 341 540 341 540 358.5 540 c 128,-1,37
 376 540 376 540 389.5 532 c 128,-1,38
 403 524 403 524 421 507 c 128,-1,39
 439 490 439 490 476.5 459.5 c 128,-1,40
 514 429 514 429 530 411 c 128,-1,15
 546 393 546 393 546 376 c 128,-1,16
306 376 m 128,-1,42
 306 359 306 359 290 341 c 128,-1,43
 274 323 274 323 236.5 292.5 c 128,-1,44
 199 262 199 262 184.5 248.5 c 128,-1,45
 170 235 170 235 162 228 c 0,46,47
 142 212 142 212 121.5 212 c 128,-1,48
 101 212 101 212 89 223.5 c 128,-1,49
 77 235 77 235 77 250.5 c 128,-1,50
 77 266 77 266 87.5 277 c 128,-1,51
 98 288 98 288 126 306 c 128,-1,52
 154 324 154 324 158 327 c 0,53,54
 215 368 215 368 215 376 c 128,-1,55
 215 384 215 384 158 425 c 0,56,57
 150 431 150 431 132 442.5 c 128,-1,58
 114 454 114 454 104 461 c 0,59,60
 77 481 77 481 77 499 c 128,-1,61
 77 517 77 517 89 528.5 c 128,-1,62
 101 540 101 540 118.5 540 c 128,-1,63
 136 540 136 540 149.5 532 c 128,-1,64
 163 524 163 524 181 507 c 128,-1,65
 199 490 199 490 236.5 459.5 c 128,-1,66
 274 429 274 429 290 411 c 128,-1,41
 306 393 306 393 306 376 c 128,-1,42
EndSplineSet
EndChar

StartChar: X
Encoding: 88 88 59
Width: 573
GlyphClass: 2
Flags: W
LayerCount: 2
Fore
SplineSet
286 322 m 1,0,1
 283 319 283 319 243.5 282.5 c 128,-1,2
 204 246 204 246 161 203 c 0,3,4
 145 187 145 187 127 187 c 128,-1,5
 109 187 109 187 97 199 c 128,-1,6
 85 211 85 211 85 227.5 c 128,-1,7
 85 244 85 244 105.5 264 c 128,-1,8
 126 284 126 284 170.5 321.5 c 128,-1,9
 215 359 215 359 233 376 c 1,10,11
 215 393 215 393 172 428 c 128,-1,12
 129 463 129 463 108 483.5 c 128,-1,13
 87 504 87 504 87 522 c 128,-1,14
 87 540 87 540 99.5 551.5 c 128,-1,15
 112 563 112 563 129 563 c 128,-1,16
 146 563 146 563 167 545 c 128,-1,17
 188 527 188 527 227.5 488 c 128,-1,18
 267 449 267 449 286 432 c 1,19,20
 301 445 301 445 341.5 485.5 c 128,-1,21
 382 526 382 526 403.5 545 c 128,-1,22
 425 564 425 564 442 564 c 128,-1,23
 459 564 459 564 471.5 552.5 c 128,-1,24
 484 541 484 541 484 523 c 128,-1,25
 484 505 484 505 463 485 c 128,-1,26
 442 465 442 465 400 430 c 128,-1,27
 358 395 358 395 339 377 c 1,28,29
 356 361 356 361 400.5 323.5 c 128,-1,30
 445 286 445 286 472 261 c 0,31,32
 488 245 488 245 488 228.5 c 128,-1,33
 488 212 488 212 476 200 c 128,-1,34
 464 188 464 188 446 188 c 128,-1,35
 428 188 428 188 412 204 c 0,36,37
 359 257 359 257 286 322 c 1,0,1
EndSplineSet
EndChar

StartChar: Y
Encoding: 89 89 60
Width: 844
GlyphClass: 2
Flags: W
LayerCount: 2
Fore
SplineSet
568.907226562 538.077148438 m 6,0,1
 584.378170019 549.675854269 584.378170019 549.675854269 612 526 c 4,2,3
 636 506 636 506 628.907226562 493.077148438 c 4,4,5
 612 463 612 463 611.907226562 460.077148438 c 4,6,-1
 568.907226562 447.077148438 l 6,7,-1
 164 151 l 5,8,9
 142 174 142 174 142 195 c 5,10,-1
 116 424 l 5,11,-1
 194 408 l 4,12,13
 204 340 204 340 214 272 c 5,14,-1
 568.907226562 538.077148438 l 6,0,1
EndSplineSet
EndChar

StartChar: Z
Encoding: 90 90 61
Width: 628
GlyphClass: 2
Flags: W
LayerCount: 2
Fore
SplineSet
340 328 m 1,0,-1
 502 331 l 2,1,2
 524.5 331 524.5 331 538 319 c 0,3,4
 552 307 552 307 552 289 c 0,5,6
 552 271 552 271 538 259 c 0,7,8
 524.5 247 524.5 247 502 247 c 2,9,-1
 290 250 l 1,10,11
 257 193 257 193 236 166 c 0,12,13
 214 138 214 138 194 138 c 0,14,15
 153 138 153 138 153 175 c 0,16,17
 153 190 153 190 194 248 c 1,18,-1
 125 247 l 2,19,20
 102 247 102 247 90 259 c 0,21,22
 76 270 76 270 76 289 c 0,23,24
 76 308 76 308 90 319 c 0,25,26
 102 331 102 331 125 331 c 2,27,-1
 246 328 l 1,28,29
 256 346 256 346 268 364 c 0,30,31
 286 392 286 392 291 404 c 1,32,-1
 125 401 l 2,33,34
 103 401 103 401 90 412 c 0,35,36
 76 423 76 423 76 442 c 0,37,38
 76 462 76 462 90 472 c 0,39,40
 102 484 102 484 125 484 c 2,41,-1
 339 481 l 2,42,43
 340 482 340 482 362 518 c 0,44,45
 386 558 386 558 391 564 c 0,46,47
 410 588 410 588 428 588 c 0,48,49
 446 588 446 588 460 577 c 0,50,51
 473 567 473 567 473 550 c 0,52,53
 473 534 473 534 462 518 c 2,54,-1
 436 483 l 1,55,56
 453 484 453 484 492 484 c 0,57,58
 524 484 524 484 538 472 c 0,59,60
 552 461 552 461 552 442 c 0,61,62
 552 424 552 424 538 412 c 0,63,64
 524 401 524 401 502 401 c 2,65,-1
 384 403 l 1,66,-1
 340 328 l 1,0,-1
EndSplineSet
EndChar

StartChar: bracketleft
Encoding: 91 91 62
Width: 438
GlyphClass: 2
Flags: W
LayerCount: 2
Fore
SplineSet
193 0 m 1,0,-1
 337 3 l 2,1,2
 365 3 365 3 380 -9 c 0,3,4
 397 -20 397 -20 397 -42 c 0,5,6
 397 -63 397 -63 380 -74 c 0,7,8
 365 -86 365 -86 337 -86 c 2,9,-1
 243 -83 l 1,10,-1
 146 -87 l 2,11,12
 121 -87 121 -87 107 -74 c 0,13,14
 92 -62 92 -62 92 -46 c 0,15,16
 92 -29.5 92 -29.5 95 104 c 0,17,18
 98 239 98 239 98 375 c 0,19,20
 98 525 98 525 94 640 c 0,21,22
 91 770.5 91 770.5 91 790 c 0,23,24
 91 810 91 810 106 824 c 0,25,26
 121 839 121 839 146 839 c 2,27,-1
 243 835 l 1,28,-1
 337 838 l 2,29,30
 364 838 364 838 380 826 c 0,31,32
 397 812 397 812 397 793 c 0,33,34
 397 774 397 774 380 760 c 0,35,36
 364 748 364 748 337 748 c 0,37,38
 326 748 326 748 314 749 c 0,39,40
 266 751 266 751 193 751 c 1,41,42
 193 748 193 748 190 618 c 0,43,44
 187 489 187 489 187 376 c 0,45,46
 187 264 187 264 190 136 c 0,47,48
 193 8 193 8 193 0 c 1,0,-1
EndSplineSet
Validated: 1
EndChar

StartChar: backslash
Encoding: 92 92 63
Width: 433
GlyphClass: 2
Flags: W
LayerCount: 2
Fore
SplineSet
82 820 m 0,0,1
 94 835 94 835 114 835 c 0,2,3
 134 835 134 835 148 822 c 0,4,5
 161 807 161 807 165 787 c 0,6,7
 239 456 239 456 290 256 c 0,8,9
 361 -22 361 -22 361 -38 c 0,10,11
 361 -57 361 -57 348 -70 c 0,12,13
 336 -84 336 -84 314 -84 c 0,14,15
 293 -84 293 -84 280 -68 c 0,16,17
 269 -49 269 -49 262 -20 c 0,18,19
 197 278 197 278 148 468 c 0,20,21
 71 774 71 774 71 788 c 0,22,23
 71 804 71 804 82 820 c 0,0,1
EndSplineSet
Validated: 1
EndChar

StartChar: bracketright
Encoding: 93 93 64
Width: 438
GlyphClass: 2
Flags: W
LayerCount: 2
Fore
SplineSet
245 752 m 1,0,-1
 101 749 l 2,1,2
 73 749 73 749 58 761 c 0,3,4
 41 772 41 772 41 794 c 0,5,6
 41 815 41 815 58 826 c 0,7,8
 73 838 73 838 101 838 c 2,9,-1
 195 835 l 1,10,-1
 292 839 l 2,11,12
 317 839 317 839 331 826 c 0,13,14
 346 814 346 814 346 798 c 0,15,16
 346 781.5 346 781.5 343 648 c 0,17,18
 340 513 340 513 340 377 c 0,19,20
 340 227 340 227 344 112 c 0,21,22
 347 -18.5 347 -18.5 347 -38 c 0,23,24
 347 -58 347 -58 332 -72 c 0,25,26
 317 -87 317 -87 292 -87 c 2,27,-1
 195 -83 l 1,28,-1
 101 -86 l 2,29,30
 74 -86 74 -86 58 -74 c 0,31,32
 41 -60 41 -60 41 -41 c 0,33,34
 41 -22 41 -22 58 -8 c 0,35,36
 74 4 74 4 101 4 c 2,37,-1
 245 1 l 2,38,39
 245 3 245 3 248 134 c 0,40,41
 251 263 251 263 251 376 c 0,42,43
 251 488 251 488 248 616 c 0,44,45
 245 744 245 744 245 752 c 1,0,-1
EndSplineSet
Validated: 1
EndChar

StartChar: asciicircum
Encoding: 94 94 65
Width: 591
GlyphClass: 2
Flags: W
LayerCount: 2
Fore
SplineSet
79 458 m 0,0,1
 133 548 133 548 162 594 c 0,2,3
 177 618 177 618 197 650 c 128,-1,4
 217 682 217 682 227.5 699 c 128,-1,5
 238 716 238 716 244 726 c 0,6,7
 263 760 263 760 296 760 c 128,-1,8
 329 760 329 760 350 725 c 0,9,10
 508 471 508 471 526 437 c 0,11,12
 536 412 536 412 536 402 c 0,13,14
 536 388 536 388 524 376 c 128,-1,15
 512 364 512 364 490 364 c 0,16,17
 467.5 364 467.5 364 454 391 c 0,18,19
 394 498 394 498 359 560 c 0,20,21
 300 660 300 660 296 660 c 128,-1,22
 292 660 292 660 234 560 c 0,23,24
 167 444 167 444 139 391 c 0,25,26
 132 378 132 378 122 372 c 0,27,28
 111 364 111 364 96 364 c 128,-1,29
 81 364 81 364 69 376 c 128,-1,30
 57 388 57 388 57 404 c 0,31,32
 57 421 57 421 79 458 c 0,0,1
EndSplineSet
Validated: 1
EndChar

StartChar: underscore
Encoding: 95 95 66
Width: 382
GlyphClass: 2
Flags: W
LayerCount: 2
Fore
SplineSet
189 14 m 1,0,-1
 50 11 l 2,1,2
 35 11 35 11 26 23 c 0,3,4
 16 34 16 34 16 52 c 0,5,6
 16 70 16 70 26 81 c 0,7,8
 34 92 34 92 50 92 c 2,9,10
 189 90 l 1,11,12
 328 92 l 2,13,14
 343 92 343 92 353 81 c 0,15,16
 362 69 362 69 362 52 c 0,17,18
 362 35 362 35 353 23 c 0,19,20
 342 11 342 11 328 11 c 2,21,-1
 189 14 l 1,0,-1
EndSplineSet
Validated: 1
EndChar

StartChar: grave
Encoding: 96 96 67
Width: 330
GlyphClass: 2
Flags: W
LayerCount: 2
Fore
SplineSet
85 696 m 0,0,1
 85 713 85 713 96 726 c 0,2,3
 107 740 107 740 126 740 c 0,4,5
 143 740 143 740 156 730 c 0,6,7
 168 721 168 721 174 712 c 0,8,9
 176 708 176 708 181 697.5 c 128,-1,10
 186 687 186 687 188 682 c 0,11,12
 198 661 198 661 221 632 c 0,13,14
 245 604 245 604 245 591 c 128,-1,15
 245 578 245 578 236 571 c 0,16,17
 228 563 228 563 212 563 c 0,18,19
 180 563 180 563 132 608 c 0,20,21
 85 652 85 652 85 696 c 0,0,1
EndSplineSet
Validated: 1
EndChar

StartChar: a
Encoding: 97 97 68
Width: 810
GlyphClass: 2
Flags: W
LayerCount: 2
Fore
SplineSet
648 367 m 1,0,1
 648 257 648 257 662 178 c 0,2,3
 677 101 677 101 698 90 c 0,4,5
 700 89 700 89 717 84 c 0,6,7
 727 84 727 84 733 80 c 0,8,9
 738 77 738 77 738 69 c 0,10,11
 738 33 738 33 718 10 c 128,-1,12
 698 -13 698 -13 665 -13 c 0,13,14
 622 -13 622 -13 599 37 c 0,15,16
 577 85 577 85 577 165 c 1,17,18
 526 84 526 84 466 33 c 0,19,20
 406 -15 406 -15 334 -15 c 0,21,22
 260 -15 260 -15 212 20 c 0,23,24
 163 53 163 53 132 110 c 0,25,26
 72 226 72 226 72 363 c 0,27,28
 72 528 72 528 157 646 c 0,29,30
 243 765 243 765 377 765 c 0,31,32
 427 765 427 765 478 746 c 0,33,34
 529 725 529 725 561 696 c 1,35,36
 561 765 561 765 612 765 c 0,37,38
 675 765 675 765 675 664 c 0,39,40
 675 589 675 589 648 367 c 1,0,1
569 355 m 1,41,-1
 563 600 l 1,42,43
 477.5 678 477.5 678 377 678 c 0,44,45
 294 678 294 678 231 588 c 0,46,47
 168 500 168 500 168 371 c 0,48,49
 168 240 168 240 212 158 c 0,50,51
 254 72 254 72 330 72 c 0,52,53
 403 72 403 72 480 167 c 0,54,55
 556 262 556 262 569 355 c 1,41,-1
484 986 m 0,56,57
 514 956 514 956 514 914 c 0,58,59
 514 873 514 873 486 843 c 0,60,61
 457 815 457 815 411 815 c 128,-1,62
 365 815 365 815 336 843 c 0,63,64
 308 873 308 873 308 914 c 0,65,66
 308 957.5 308 957.5 338 986 c 0,67,68
 366 1016 366 1016 411 1016 c 128,-1,69
 456 1016 456 1016 484 986 c 0,56,57
449 914 m 128,-1,71
 449 928 449 928 437 942 c 0,72,73
 425 955 425 955 410 955 c 0,74,75
 396 955 396 955 384 942 c 0,76,77
 373 929 373 929 373 914 c 0,78,79
 373 900 373 900 384 887 c 0,80,81
 395 875 395 875 410 875 c 0,82,83
 426 875 426 875 438 887 c 0,84,70
 449 900 449 900 449 914 c 128,-1,71
EndSplineSet
Validated: 1
EndChar

StartChar: b
Encoding: 98 98 69
Width: 651
GlyphClass: 2
Flags: W
LayerCount: 2
Fore
SplineSet
324 93 m 0,0,1
 258 93 258 93 214 116 c 1,2,3
 211 164 211 164 211 259 c 0,4,5
 211 340 211 340 213 398 c 1,6,7
 274 413 274 413 348 413 c 0,8,9
 422 413 422 413 474 368 c 0,10,11
 528 323 528 323 528 252 c 0,12,13
 528 182 528 182 474 138 c 0,14,15
 420 93 420 93 324 93 c 0,0,1
114 724 m 2,16,-1
 122 390 l 1,17,18
 122 143 122 143 116 143 c 0,19,20
 93.5 140 93.5 140 83 128 c 0,21,22
 72 115 72 115 72 96 c 0,23,24
 72 78 72 78 101 58 c 0,25,26
 129 39 129 39 172 28 c 0,27,28
 256 7 256 7 318 7 c 0,29,30
 467 7 467 7 546 78 c 0,31,32
 624 148.5 624 148.5 624 252 c 0,33,34
 624 355.5 624 355.5 546 426 c 0,35,36
 468 498 468 498 344 498 c 0,37,38
 253 498 253 498 211 487 c 1,39,-1
 216 724 l 2,40,41
 216 749 216 749 202 766 c 0,42,43
 189 782 189 782 166 782 c 0,44,45
 143 782 143 782 128 766 c 0,46,47
 114 749 114 749 114 724 c 2,16,-1
EndSplineSet
Validated: 9
EndChar

StartChar: c
Encoding: 99 99 70
Width: 708
GlyphClass: 2
Flags: W
LayerCount: 2
Fore
SplineSet
515 -133 m 0,0,1
 515 -174 515 -174 478 -202 c 0,2,3
 440 -230 440 -230 388 -230 c 0,4,5
 337 -230 337 -230 304 -206 c 0,6,7
 273 -180 273 -180 273 -155 c 0,8,9
 273 -147 273 -147 280 -138 c 0,10,11
 290 -130 290 -130 300 -130 c 0,12,13
 312 -130 312 -130 336 -142 c 0,14,15
 363 -154 363 -154 381 -154 c 0,16,17
 401 -154 401 -154 412 -147 c 0,18,19
 424 -140 424 -140 424 -131 c 0,20,21
 424 -121 424 -121 410 -112 c 0,22,23
 404 -108 404 -108 393 -100.5 c 128,-1,24
 382 -93 382 -93 378 -90 c 0,25,26
 363 -82 363 -82 346 -58 c 0,27,28
 331 -34 331 -34 331 -6 c 1,29,30
 215 23 215 23 144 128 c 0,31,32
 72 236 72 236 72 376 c 0,33,34
 72 539.5 72 539.5 168 652 c 0,35,36
 263 765 263 765 407 765 c 0,37,38
 495 765 495 765 564 732 c 0,39,40
 634 699 634 699 634 658 c 0,41,42
 634 638 634 638 622 626 c 128,-1,43
 610 614 610 614 590 614 c 0,44,45
 572 614 572 614 535 637 c 0,46,47
 476 678 476 678 407 678 c 0,48,49
 302 678 302 678 236 588 c 0,50,51
 168 501 168 501 168 376 c 0,52,53
 168 253 168 253 236 163 c 0,54,55
 302 72 302 72 401 72 c 128,-1,56
 500 72 500 72 580 121 c 0,57,58
 613 139 613 139 624 139 c 0,59,60
 636 139 636 139 646 130 c 0,61,62
 655 119.5 655 119.5 655 106 c 0,63,64
 655 71 655 71 583 29 c 0,65,66
 510 -14 510 -14 412 -15 c 1,67,68
 415 -32 415 -32 441 -49 c 0,69,70
 463 -63 463 -63 491 -86 c 0,71,72
 515 -106 515 -106 515 -133 c 0,0,1
EndSplineSet
Validated: 1
EndChar

StartChar: d
Encoding: 100 100 71
Width: 651
GlyphClass: 2
Flags: W
LayerCount: 2
Fore
SplineSet
368 93 m 0,0,1
 434 93 434 93 478 116 c 1,2,3
 481 164 481 164 481 259 c 0,4,5
 481 340 481 340 479 398 c 1,6,7
 418 413 418 413 344 413 c 0,8,9
 270 413 270 413 218 368 c 0,10,11
 164 323 164 323 164 252 c 0,12,13
 164 182 164 182 218 138 c 0,14,15
 272 93 272 93 368 93 c 0,0,1
578 724 m 2,16,-1
 570 390 l 1,17,18
 570 143 570 143 576 143 c 0,19,20
 598.5 140 598.5 140 609 128 c 0,21,22
 620 115 620 115 620 96 c 0,23,24
 620 78 620 78 591 58 c 0,25,26
 563 39 563 39 520 28 c 0,27,28
 436 7 436 7 374 7 c 0,29,30
 225 7 225 7 146 78 c 0,31,32
 68 148.5 68 148.5 68 252 c 0,33,34
 68 355.5 68 355.5 146 426 c 0,35,36
 224 498 224 498 348 498 c 0,37,38
 439 498 439 498 481 487 c 1,39,-1
 476 724 l 2,40,41
 476 749 476 749 490 766 c 0,42,43
 503 782 503 782 526 782 c 0,44,45
 549 782 549 782 564 766 c 0,46,47
 578 749 578 749 578 724 c 2,16,-1
EndSplineSet
Validated: 1
EndChar

StartChar: e
Encoding: 101 101 72
Width: 745
GlyphClass: 2
Flags: W
LayerCount: 2
Fore
SplineSet
596 553 m 0,0,1
 596 599 596 599 558 639 c 0,2,3
 519 678 519 678 452 678 c 0,4,5
 384 678 384 678 334 638 c 0,6,7
 240 565 240 565 213 421 c 1,8,9
 289.5 400 289.5 400 384 400 c 0,10,11
 480 400 480 400 538 440 c 0,12,13
 596 480 596 480 596 553 c 0,0,1
597 28 m 0,14,15
 527 -15 527 -15 444 -15 c 0,16,17
 362 -15 362 -15 301 16 c 0,18,19
 239 48 239 48 201 99 c 0,20,21
 120 207 120 207 114 352 c 1,22,23
 42 374 42 374 42 423 c 0,24,25
 42 443 42 443 54 454 c 0,26,27
 65 466 65 466 80 466 c 0,28,29
 95 466 95 466 122 454 c 1,30,31
 154 589 154 589 238 676 c 0,32,33
 324 765 324 765 448 765 c 0,34,35
 550 765 550 765 620 704 c 0,36,37
 692 642.5 692 642.5 692 557 c 0,38,39
 692 472 692 472 648 416 c 0,40,41
 565 315 565 315 390 315 c 0,42,43
 320 315 320 315 211 335 c 1,44,45
 220 227 220 227 282 150 c 0,46,47
 345 72 345 72 432 72 c 0,48,49
 519 72 519 72 593 121 c 0,50,51
 626 139 626 139 638 139 c 0,52,53
 649 139 649 139 658 130 c 0,54,55
 668 120 668 120 668 106 c 0,56,57
 668 72 668 72 597 28 c 0,14,15
EndSplineSet
Validated: 1
EndChar

StartChar: f
Encoding: 102 102 73
Width: 743
GlyphClass: 2
Flags: W
LayerCount: 2
Fore
SplineSet
626 372 m 2,0,-1
 629 62 l 2,1,2
 629 -10 629 -10 576 -10 c 0,3,4
 543 -10 543 -10 526 21 c 2,5,-1
 209 567 l 1,6,7
 209 334 209 334 211.5 195 c 128,-1,8
 214 56 214 56 214 39.5 c 128,-1,9
 214 23 214 23 199 6.5 c 128,-1,10
 184 -10 184 -10 163.5 -10 c 128,-1,11
 143 -10 143 -10 128.5 6.5 c 128,-1,12
 114 23 114 23 114 48 c 2,13,-1
 118 372 l 2,14,15
 118 475 118 475 115.5 581 c 128,-1,16
 113 687 113 687 113 689 c 0,17,18
 113 760 113 760 164 760 c 0,19,20
 201 760 201 760 219 729 c 0,21,22
 510 229 510 229 536 189 c 1,23,24
 536 472 536 472 533 579 c 128,-1,25
 530 686 530 686 530 689 c 0,26,27
 530 760 530 760 581 760 c 128,-1,28
 632 760 632 760 632 689 c 0,29,30
 632 681 632 681 630 636 c 0,31,32
 626 503 626 503 626 372 c 2,0,-1
EndSplineSet
EndChar

StartChar: g
Encoding: 103 103 74
Width: 558
GlyphClass: 2
Flags: W
LayerCount: 2
Fore
SplineSet
429 482 m 1,0,-1
 429 633 l 1,1,2
 367 695 367 695 293 695 c 0,3,4
 235 695 235 695 170 624 c 0,5,6
 113 561 113 561 122 490 c 0,7,8
 128 419 128 419 161 364 c 0,9,10
 193 311 193 311 253 311 c 0,11,12
 318 311 318 311 350 346 c 0,13,14
 400 397 400 397 429 482 c 1,0,-1
427 714 m 1,15,16
 429 764 429 764 470 764 c 0,17,18
 525 764 525 764 521 691 c 0,19,20
 512 530 512 530 512 491 c 2,21,-1
 512 298 l 2,22,23
 512 160 512 160 443 75 c 0,24,25
 373 -10 373 -10 250 -10 c 0,26,27
 182 -10 182 -10 119 17 c 0,28,29
 57 44 57 44 57 98 c 0,30,31
 57 125 57 125 82 125 c 0,32,33
 91 125 91 125 140 105 c 0,34,35
 185 86 185 86 250 86 c 0,36,37
 313 86 313 86 378 139 c 0,38,39
 418 170 418 170 418 250 c 0,40,41
 418 287 418 287 412 326 c 1,42,43
 400 306 400 306 350 265 c 0,44,45
 302 223 302 223 242 223 c 0,46,47
 132 223 132 223 74 311 c 0,48,49
 24 388 24 388 24 496 c 0,50,51
 24 592 24 592 99 678 c 0,52,53
 174 764 174 764 287 764 c 0,54,55
 363 764 363 764 427 714 c 1,15,16
EndSplineSet
Validated: 33
EndChar

StartChar: h
Encoding: 104 104 75
Width: 768
GlyphClass: 2
Flags: W
LayerCount: 2
Fore
SplineSet
553 353 m 1,0,-1
 381 355 l 2,1,2
 248 355 248 355 213 354 c 1,3,4
 213 275 213 275 216 170 c 0,5,6
 219 67 219 67 219 61 c 0,7,8
 219 -10 219 -10 168 -10 c 0,9,10
 117 -10 117 -10 117 61 c 0,11,12
 117 65.5 117 65.5 120 169 c 0,13,14
 123 273 123 273 123 351 c 1,15,16
 59 351 59 351 59 396 c 0,17,18
 59 417 59 417 76 430 c 0,19,20
 91 442 91 442 123 442 c 1,21,22
 123 521 123 521 120 602 c 0,23,24
 117 684.5 117 684.5 117 689 c 0,25,26
 117 760 117 760 168 760 c 0,27,28
 219 760 219 760 219 689 c 0,29,30
 219 684 219 684 216 601 c 0,31,32
 213 518.5 213 518.5 213 439 c 1,33,34
 343 437 343 437 408 437 c 0,35,36
 489 437 489 437 553 439 c 2,37,-1
 644 443 l 1,38,-1
 644 350 l 2,39,40
 644 272 644 272 647 168 c 0,41,42
 650 66 650 66 650 61 c 0,43,44
 650 -10 650 -10 599 -10 c 0,45,46
 548 -10 548 -10 548 61 c 2,47,-1
 553 353 l 1,0,-1
EndSplineSet
Validated: 1
EndChar

StartChar: i
Encoding: 105 105 76
Width: 267
GlyphClass: 2
Flags: W
LayerCount: 2
Fore
SplineSet
174 742 m 0,0,1
 188 724 188 724 188 698 c 0,2,3
 188 674 188 674 172 653 c 0,4,5
 154 633 154 633 130 633 c 0,6,7
 106 633 106 633 92 650 c 0,8,9
 79 666 79 666 79 692 c 0,10,11
 79 717 79 717 96 739 c 0,12,13
 113 760 113 760 137 760 c 0,14,15
 162 760 162 760 174 742 c 0,0,1
177 278 m 1,16,-1
 185 50 l 2,17,18
 185 22 185 22 172 2 c 0,19,20
 157 -15 157 -15 134 -15 c 0,21,22
 111 -15 111 -15 96 2 c 0,23,24
 83 21 83 21 83 50 c 2,25,-1
 90 278 l 1,26,-1
 89 479 l 2,27,28
 89 505 89 505 101 520 c 0,29,30
 113 535 113 535 134 535 c 0,31,32
 155 535 155 535 167 520 c 0,33,34
 179 505 179 505 179 479 c 2,35,-1
 177 278 l 1,16,-1
EndSplineSet
Validated: 1
EndChar

StartChar: j
Encoding: 106 106 77
Width: 768
GlyphClass: 2
Flags: W
LayerCount: 2
Fore
SplineSet
553 353 m 1,0,-1
 381 355 l 2,1,2
 248 355 248 355 213 354 c 1,3,4
 213 275 213 275 216 170 c 0,5,6
 219 67 219 67 219 61 c 0,7,8
 219 -10 219 -10 168 -10 c 128,-1,9
 117 -10 117 -10 117 61 c 0,10,11
 117 65.5 117 65.5 120 169 c 0,12,13
 123 273 123 273 123 351 c 1,14,15
 59 351 59 351 59 396 c 0,16,17
 59 417 59 417 76 430 c 0,18,19
 91 442 91 442 123 442 c 1,20,21
 123 521 123 521 120 602 c 0,22,23
 117 684.5 117 684.5 117 689 c 0,24,25
 117 760 117 760 168 760 c 128,-1,26
 219 760 219 760 219 689 c 0,27,28
 219 684 219 684 216 601 c 0,29,30
 213 518.5 213 518.5 213 439 c 1,31,32
 343 437 343 437 408 437 c 0,33,34
 489 437 489 437 553 439 c 1,35,36
 553 518.5 553 518.5 550 601 c 0,37,38
 550 625 550 625 549.5 646.5 c 128,-1,39
 549 668 549 668 548.5 678 c 128,-1,40
 548 688 548 688 548 689 c 0,41,42
 548 760 548 760 599 760 c 128,-1,43
 650 760 650 760 650 689 c 0,44,45
 650 684 650 684 647 603 c 128,-1,46
 644 522 644 522 644 443 c 1,47,48
 675 443 675 443 692 430 c 0,49,50
 709 416 709 416 709 396 c 128,-1,51
 709 376 709 376 692 362 c 0,52,53
 674 350 674 350 644 350 c 1,54,55
 644 272 644 272 647 168 c 0,56,57
 650 66 650 66 650 61 c 0,58,59
 650 -10 650 -10 599 -10 c 128,-1,60
 548 -10 548 -10 548 61 c 2,61,-1
 553 353 l 1,0,-1
EndSplineSet
EndChar

StartChar: k
Encoding: 107 107 78
Width: 604
GlyphClass: 2
Flags: W
LayerCount: 2
Fore
SplineSet
34 260 m 0,0,1
 34 280 34 280 43 297 c 0,2,3
 53 314 53 314 76 328 c 0,4,5
 85 334 85 334 100 342 c 128,-1,6
 115 350 115 350 120 353 c 0,7,8
 139.5 362 139.5 362 186 380 c 0,9,10
 251 407 251 407 261 412 c 0,11,12
 296 427 296 427 331 443 c 0,13,14
 385 467 385 467 392 470 c 0,15,16
 418 483 418 483 438 490 c 0,17,18
 481 507 481 507 503 507 c 0,19,20
 523 507 523 507 535 495 c 0,21,22
 548 485 548 485 548 465 c 0,23,24
 548 435 548 435 512 417 c 0,25,26
 442 389 442 389 410 376 c 0,27,28
 350 353 350 353 322 340 c 0,29,30
 159 271 159 271 159 260 c 0,31,32
 159 252 159 252 281 199 c 2,33,-1
 321 181 l 2,34,35
 349 168 349 168 409 145 c 0,36,37
 470.5 119.5 470.5 119.5 511 103 c 0,38,39
 547 86.5 547 86.5 547 55 c 0,40,41
 547 37 547 37 534 25 c 0,42,43
 522 13 522 13 507 13 c 0,44,45
 490 13 490 13 477 17 c 0,46,47
 452 25 452 25 437 31 c 0,48,49
 417 38 417 38 391 51 c 0,50,51
 282 100 282 100 206 132 c 0,52,53
 136 160 136 160 120 168 c 0,54,55
 105 175 105 175 76 192 c 0,56,57
 51 209 51 209 43 224 c 0,58,59
 34 239 34 239 34 260 c 0,0,1
182 50 m 2,60,61
 182 24 182 24 169 7 c 0,62,63
 155 -10 155 -10 136 -10 c 0,64,65
 112 -10 112 -10 104 7 c 0,66,67
 91 34 91 34 91 50 c 2,68,-1
 96 377 l 1,69,-1
 96 629 l 1,70,-1
 92 738 l 1,71,72
 114 760 114 760 136 760 c 0,73,74
 162 760 162 760 181 738 c 1,75,-1
 177 629 l 1,76,-1
 181 308 l 1,77,-1
 182 50 l 2,60,61
EndSplineSet
Validated: 5
EndChar

StartChar: l
Encoding: 108 108 79
Width: 267
GlyphClass: 2
Flags: W
LayerCount: 2
Fore
SplineSet
176 337 m 1,0,-1
 181 47 l 2,1,2
 181 24 181 24 166 6 c 0,3,4
 150 -10 150 -10 130 -10 c 0,5,6
 110 -10 110 -10 96 6 c 0,7,8
 81 24 81 24 81 47 c 2,9,-1
 85 372 l 1,10,-1
 81 702 l 2,11,12
 81 727 81 727 96 742 c 0,13,14
 109 759 109 759 130 759 c 0,15,16
 152 759 152 759 166 742 c 0,17,18
 181 727 181 727 181 702 c 2,19,-1
 178 612 l 2,20,21
 176 492 176 492 176 434 c 2,22,-1
 176 337 l 1,0,-1
EndSplineSet
Validated: 1
PairPos2: "'kern' Horizontal Kerning in Latin lookup 0 per glyph data 1" edieresis dx=0 dy=0 dh=-50 dv=0 dx=0 dy=0 dh=0 dv=0
PairPos2: "'kern' Horizontal Kerning in Latin lookup 0 per glyph data 1" ecircumflex dx=0 dy=0 dh=-50 dv=0 dx=0 dy=0 dh=0 dv=0
PairPos2: "'kern' Horizontal Kerning in Latin lookup 0 per glyph data 1" eacute dx=0 dy=0 dh=-50 dv=0 dx=0 dy=0 dh=0 dv=0
PairPos2: "'kern' Horizontal Kerning in Latin lookup 0 per glyph data 1" egrave dx=0 dy=0 dh=-50 dv=0 dx=0 dy=0 dh=0 dv=0
PairPos2: "'kern' Horizontal Kerning in Latin lookup 0 per glyph data 1" o dx=0 dy=0 dh=-20 dv=0 dx=0 dy=0 dh=0 dv=0
PairPos2: "'kern' Horizontal Kerning in Latin lookup 0 per glyph data 1" e dx=0 dy=0 dh=-50 dv=0 dx=0 dy=0 dh=0 dv=0
EndChar

StartChar: m
Encoding: 109 109 80
Width: 673
GlyphClass: 2
Flags: W
LayerCount: 2
Fore
SplineSet
397 710 m 0,0,1
 380 760 380 760 336 760 c 0,2,3
 293 760 293 760 276 710 c 0,4,5
 142 333 142 333 120 270 c 0,6,7
 116 257 116 257 88 177 c 0,8,9
 56 91 56 91 52 80 c 0,10,11
 40 48 40 48 40 34 c 128,-1,12
 40 20 40 20 52 5 c 0,13,14
 65 -10 65 -10 87 -10 c 0,15,16
 125 -10 125 -10 140 35 c 0,17,18
 331 617 331 617 337 617 c 0,19,20
 347.5 617 347.5 617 538 35 c 0,21,22
 553 -10 553 -10 586 -10 c 0,23,24
 608 -10 608 -10 620 5 c 0,25,26
 633 19 633 19 633 34 c 0,27,28
 633 48 633 48 621 80 c 0,29,30
 561 243 561 243 554 268 c 0,31,32
 550 277 550 277 534 323.5 c 128,-1,33
 518 370 518 370 476.5 486.5 c 128,-1,34
 435 603 435 603 397 710 c 0,0,1
EndSplineSet
PairPos2: "'kern' Horizontal Kerning in Latin lookup 0 per glyph data 1" aring dx=0 dy=0 dh=-30 dv=0 dx=0 dy=0 dh=0 dv=0
PairPos2: "'kern' Horizontal Kerning in Latin lookup 0 per glyph data 1" adieresis dx=0 dy=0 dh=-30 dv=0 dx=0 dy=0 dh=0 dv=0
PairPos2: "'kern' Horizontal Kerning in Latin lookup 0 per glyph data 1" atilde dx=0 dy=0 dh=-30 dv=0 dx=0 dy=0 dh=0 dv=0
PairPos2: "'kern' Horizontal Kerning in Latin lookup 0 per glyph data 1" acircumflex dx=0 dy=0 dh=-30 dv=0 dx=0 dy=0 dh=0 dv=0
PairPos2: "'kern' Horizontal Kerning in Latin lookup 0 per glyph data 1" aacute dx=0 dy=0 dh=-30 dv=0 dx=0 dy=0 dh=0 dv=0
PairPos2: "'kern' Horizontal Kerning in Latin lookup 0 per glyph data 1" agrave dx=0 dy=0 dh=-30 dv=0 dx=0 dy=0 dh=0 dv=0
PairPos2: "'kern' Horizontal Kerning in Latin lookup 0 per glyph data 1" q dx=0 dy=0 dh=-30 dv=0 dx=0 dy=0 dh=0 dv=0
PairPos2: "'kern' Horizontal Kerning in Latin lookup 0 per glyph data 1" o dx=0 dy=0 dh=-20 dv=0 dx=0 dy=0 dh=0 dv=0
PairPos2: "'kern' Horizontal Kerning in Latin lookup 0 per glyph data 1" g dx=0 dy=0 dh=-30 dv=0 dx=0 dy=0 dh=0 dv=0
PairPos2: "'kern' Horizontal Kerning in Latin lookup 0 per glyph data 1" d dx=0 dy=0 dh=-30 dv=0 dx=0 dy=0 dh=0 dv=0
PairPos2: "'kern' Horizontal Kerning in Latin lookup 0 per glyph data 1" a dx=0 dy=0 dh=-30 dv=0 dx=0 dy=0 dh=0 dv=0
EndChar

StartChar: n
Encoding: 110 110 81
Width: 805
GlyphClass: 2
Flags: W
LayerCount: 2
Fore
SplineSet
670 497 m 1,0,-1
 663 215 l 2,1,2
 663 171 663 171 664 158 c 0,3,4
 666 136 666 136 672 118 c 0,5,6
 679.5 97 679.5 97 693 91 c 0,7,8
 701 86 701 86 712 86 c 0,9,10
 727 82 727 82 728 81 c 0,11,12
 733 78 733 78 733 70 c 0,13,14
 733 34 733 34 711 12 c 0,15,16
 688 -12 688 -12 659 -12 c 0,17,18
 606 -12 606 -12 588 28 c 0,19,20
 568 67 568 67 568 147 c 2,21,-1
 574 431 l 2,22,23
 574 539 574 539 536 606 c 0,24,25
 498 671 498 671 426 671 c 0,26,27
 352.5 671 352.5 671 285 584 c 0,28,29
 216 493 216 493 191 385 c 1,30,-1
 195 57 l 2,31,32
 195 -12 195 -12 144 -12 c 0,33,34
 82 -12 82 -12 82 92 c 0,35,36
 82 198 82 198 109 385 c 1,37,38
 109 444 109 444 98 562 c 0,39,40
 86 673 86 673 86 698 c 0,41,42
 86 722 86 722 100 742 c 0,43,44
 113 760 113 760 138 760 c 0,45,46
 163.5 760 163.5 760 177 742 c 0,47,48
 191 722 191 722 191 700 c 0,49,50
 191 666 191 666 190 644 c 2,51,52
 190 589 l 1,53,54
 288 760 288 760 438 760 c 0,55,56
 548 760 548 760 610 684 c 0,57,58
 670 606 670 606 670 497 c 1,0,-1
EndSplineSet
Validated: 1
EndChar

StartChar: o
Encoding: 111 111 82
Width: 824
GlyphClass: 2
Flags: W
LayerCount: 2
Fore
SplineSet
586 164 m 0,0,1
 656 255 656 255 656 377 c 0,2,3
 656 498 656 498 587 588 c 0,4,5
 518 679 518 679 412 679 c 0,6,7
 307 679 307 679 238 588 c 0,8,9
 168 499 168 499 168 378 c 0,10,11
 168 256 168 256 238 164 c 0,12,13
 309 72 309 72 412 72 c 0,14,15
 517 72 517 72 586 164 c 0,0,1
752 376 m 0,16,17
 752 212 752 212 654 99 c 0,18,19
 558 -15 558 -15 412 -15 c 0,20,21
 266 -15 266 -15 169 99 c 0,22,23
 72 212 72 212 72 376 c 0,24,25
 72 539 72 539 170 652 c 0,26,27
 268 765 268 765 414 765 c 0,28,29
 558 765 558 765 656 652 c 0,30,31
 752 539.5 752 539.5 752 376 c 0,16,17
EndSplineSet
Validated: 1
EndChar

StartChar: p
Encoding: 112 112 83
Width: 617
GlyphClass: 2
Flags: W
LayerCount: 2
Fore
SplineSet
209 524 m 1,0,1
 208 499 208 499 208 430 c 0,2,3
 208 396 208 396 210 298 c 1,4,5
 264 284 264 284 329 284 c 0,6,7
 395 284 395 284 438 319 c 0,8,9
 479 354 479 354 479 411 c 0,10,11
 479 469 479 469 437 503 c 0,12,13
 394 538 394 538 328 538 c 0,14,15
 263 538 263 538 209 524 c 1,0,1
113 61 m 1,16,17
 119 375 l 1,18,19
 113 689 l 2,20,21
 113 760 113 760 164 760 c 0,22,23
 215 760 215 760 215 689 c 0,24,25
 215 674 215 674 212 650 c 0,26,27
 210 620 210 620 210 612 c 1,28,29
 256 625 256 625 328 625 c 0,30,31
 437 625 437 625 506 564 c 0,32,33
 574 501 574 501 574 410 c 0,34,35
 574 319 574 319 506 258 c 0,36,37
 441 197 441 197 329 197 c 0,38,39
 261 197 261 197 210 209 c 1,40,41
 215 84 215 84 215 61 c 0,42,43
 215 -10 215 -10 164 -10 c 0,44,45
 113 -10 113 -10 113 61 c 1,16,17
EndSplineSet
Validated: 1
EndChar

StartChar: q
Encoding: 113 113 84
Width: 692
GlyphClass: 2
Flags: W
LayerCount: 2
Fore
SplineSet
476 241 m 1,0,-1
 347 244 l 2,1,2
 265 244 265 244 207 242 c 1,3,4
 188 182 188 182 176 138 c 0,5,6
 149 49 149 49 142 29 c 0,7,8
 128 -10 128 -10 96 -10 c 0,9,10
 76.5 -10 76.5 -10 66 2 c 0,11,12
 54 14 54 14 54 28 c 0,13,14
 54 46 54 46 56 52 c 0,15,16
 56 55 56 55 62 79 c 0,17,18
 66 91 66 91 74 113 c 2,19,20
 116 239 l 1,21,22
 87 239 87 239 70 252 c 0,23,24
 54 265 54 265 54 285 c 0,25,26
 54 332 54 332 128 332 c 2,27,-1
 146 332 l 1,28,29
 169 397 169 397 256 638 c 0,30,31
 272 681 272 681 273 683 c 0,32,33
 275 691 275 691 280 700 c 0,34,35
 283 711 283 711 288 718 c 0,36,37
 290 721 290 721 296 731 c 0,38,39
 300 738 300 738 306 744 c 0,40,41
 308 746 308 746 316 752 c 0,42,43
 330 760 330 760 344 760 c 0,44,45
 358 760 358 760 367 757 c 0,46,47
 376 754 376 754 384 746 c 0,48,49
 392 738 392 738 398 729 c 0,50,51
 407 711 407 711 410 701 c 0,52,53
 416 688 416 688 424 666 c 0,54,55
 471 522 471 522 544 332 c 1,56,-1
 580 333 l 2,57,58
 606 333 606 333 622 319 c 0,59,60
 639 306 639 306 639 284 c 0,61,62
 639 240 639 240 573 237 c 1,63,64
 600 156 l 2,65,66
 639 49 639 49 639 34 c 0,67,68
 639 17 639 17 628 4 c 0,69,70
 617 -10 617 -10 596 -10 c 0,71,72
 560 -10 560 -10 544 29 c 0,73,74
 515 116 515 116 476 241 c 1,0,-1
232 328 m 1,75,76
 318 326 318 326 356 326 c 0,77,78
 403 326 403 326 451 328 c 1,79,80
 346 630 346 630 344 630 c 0,81,82
 337 630 337 630 258 404 c 2,83,-1
 232 328 l 1,75,76
EndSplineSet
EndChar

StartChar: r
Encoding: 114 114 85
Width: 563
GlyphClass: 2
Flags: W
LayerCount: 2
Fore
SplineSet
192 355 m 1,0,-1
 195 57 l 2,1,2
 195 -12 195 -12 144 -12 c 0,3,4
 82 -12 82 -12 82 92 c 0,5,6
 82 198 82 198 109 385 c 1,7,8
 109 444 109 444 98 562 c 0,9,10
 86 673 86 673 86 698 c 0,11,12
 86 722 86 722 100 742 c 0,13,14
 113 760 113 760 138 760 c 0,15,16
 163.5 760 163.5 760 177 742 c 0,17,18
 191 722 191 722 191 700 c 0,19,20
 191 666 191 666 190 644 c 2,21,22
 190 590 l 1,23,24
 218 657 218 657 279 712 c 0,25,26
 340 764 340 764 402 764 c 0,27,28
 464 764 464 764 497 740 c 0,29,30
 530 714 530 714 530 686 c 0,31,32
 530 657 530 657 514 642 c 0,33,34
 500 625 500 625 476 625 c 0,35,36
 452 625 452 625 426 650 c 0,37,38
 398 675 398 675 381 675 c 0,39,40
 334 675 334 675 272 568 c 0,41,42
 209 462 209 462 192 355 c 1,0,-1
EndSplineSet
Validated: 1
EndChar

StartChar: s
Encoding: 115 115 86
Width: 606
GlyphClass: 2
Flags: W
LayerCount: 2
Fore
SplineSet
547 204 m 0,0,1
 547 110 547 110 476 48 c 0,2,3
 407 -15 407 -15 294 -15 c 0,4,5
 207 -15 207 -15 132 27 c 128,-1,6
 57 69 57 69 57 109 c 0,7,8
 57 127 57 127 69 139 c 128,-1,9
 81 151 81 151 100 151 c 0,10,11
 118 151 118 151 137 138 c 0,12,13
 150 130 150 130 172 112 c 0,14,15
 187 98 187 98 220 84 c 0,16,17
 253 72 253 72 294 72 c 0,18,19
 362 72 362 72 406 107 c 0,20,21
 451 142 451 142 451 204 c 0,22,23
 451 244 451 244 413 282 c 0,24,25
 377 318 377 318 321 349 c 0,26,27
 303 359 303 359 267 379.5 c 128,-1,28
 231 400 231 400 213 410 c 0,29,30
 156 445 156 445 121 488 c 0,31,32
 83 534 83 534 83 586 c 0,33,34
 83 660 83 660 147 712 c 0,35,36
 212 765 212 765 298 765 c 0,37,38
 383 765 383 765 446 736 c 0,39,40
 507 706 507 706 507 668 c 0,41,42
 507 648.5 507 648.5 495 638 c 0,43,44
 482 627 482 627 463 627 c 0,45,46
 443 627 443 627 424 640 c 0,47,48
 407 652 407 652 377 666 c 0,49,50
 350 679 350 679 302 679 c 0,51,52
 255 679 255 679 217 653 c 128,-1,53
 179 627 179 627 179 589 c 128,-1,54
 179 551 179 551 217 518 c 0,55,56
 255 486 255 486 309 456 c 128,-1,57
 363 426 363 426 417 393 c 0,58,59
 473 359 473 359 509 311 c 0,60,61
 547 261 547 261 547 204 c 0,0,1
EndSplineSet
Validated: 1
EndChar

StartChar: t
Encoding: 116 116 87
Width: 616
GlyphClass: 2
Flags: W
LayerCount: 2
Fore
SplineSet
293 302 m 2,0,-1
 430 297 l 2,1,2
 457 295 457 295 473 310 c 0,3,4
 489 322 489 322 489 343 c 0,5,6
 489 389 489 389 430 387 c 2,7,-1
 293 383 l 2,8,9
 269 382 269 382 226 384 c 1,10,11
 226 514.5 226 514.5 229 594 c 0,12,13
 232 673.5 232 673.5 232 681 c 0,14,15
 232 752 232 752 181 752 c 0,16,17
 130 752 130 752 130 681 c 0,18,19
 130 660 130 660 131 634 c 0,20,21
 136 504 136 504 136 387 c 1,22,23
 45 387 45 387 45 343 c 0,24,25
 45 320 45 320 64 308 c 0,26,27
 84 297 84 297 136 297 c 1,28,29
 135 118 135 118 129 72 c 1,30,31
 117 52 117 52 117 32 c 0,32,33
 117 -15 117 -15 179 -13 c 2,34,-1
 364 -8 l 1,35,-1
 491 -14 l 2,36,37
 516 -15 516 -15 534 -2 c 0,38,39
 551 11 551 11 551 33 c 0,40,41
 551 55 551 55 534 68 c 0,42,43
 517 82 517 82 491 80 c 2,44,-1
 364 74 l 2,45,46
 312 72 312 72 226 79 c 1,47,-1
 226 301 l 1,48,49
 276 303 276 303 293 302 c 2,0,-1
EndSplineSet
Validated: 41
PairPos2: "'kern' Horizontal Kerning in Latin lookup 0 per glyph data 1" edieresis dx=0 dy=0 dh=-30 dv=0 dx=0 dy=0 dh=0 dv=0
PairPos2: "'kern' Horizontal Kerning in Latin lookup 0 per glyph data 1" ecircumflex dx=0 dy=0 dh=-30 dv=0 dx=0 dy=0 dh=0 dv=0
PairPos2: "'kern' Horizontal Kerning in Latin lookup 0 per glyph data 1" eacute dx=0 dy=0 dh=-30 dv=0 dx=0 dy=0 dh=0 dv=0
PairPos2: "'kern' Horizontal Kerning in Latin lookup 0 per glyph data 1" egrave dx=0 dy=0 dh=-30 dv=0 dx=0 dy=0 dh=0 dv=0
PairPos2: "'kern' Horizontal Kerning in Latin lookup 0 per glyph data 1" aring dx=0 dy=0 dh=-20 dv=0 dx=0 dy=0 dh=0 dv=0
PairPos2: "'kern' Horizontal Kerning in Latin lookup 0 per glyph data 1" adieresis dx=0 dy=0 dh=-20 dv=0 dx=0 dy=0 dh=0 dv=0
PairPos2: "'kern' Horizontal Kerning in Latin lookup 0 per glyph data 1" atilde dx=0 dy=0 dh=-20 dv=0 dx=0 dy=0 dh=0 dv=0
PairPos2: "'kern' Horizontal Kerning in Latin lookup 0 per glyph data 1" acircumflex dx=0 dy=0 dh=-20 dv=0 dx=0 dy=0 dh=0 dv=0
PairPos2: "'kern' Horizontal Kerning in Latin lookup 0 per glyph data 1" aacute dx=0 dy=0 dh=-20 dv=0 dx=0 dy=0 dh=0 dv=0
PairPos2: "'kern' Horizontal Kerning in Latin lookup 0 per glyph data 1" agrave dx=0 dy=0 dh=-20 dv=0 dx=0 dy=0 dh=0 dv=0
PairPos2: "'kern' Horizontal Kerning in Latin lookup 0 per glyph data 1" q dx=0 dy=0 dh=-20 dv=0 dx=0 dy=0 dh=0 dv=0
PairPos2: "'kern' Horizontal Kerning in Latin lookup 0 per glyph data 1" o dx=0 dy=0 dh=-30 dv=0 dx=0 dy=0 dh=0 dv=0
PairPos2: "'kern' Horizontal Kerning in Latin lookup 0 per glyph data 1" g dx=0 dy=0 dh=-20 dv=0 dx=0 dy=0 dh=0 dv=0
PairPos2: "'kern' Horizontal Kerning in Latin lookup 0 per glyph data 1" e dx=0 dy=0 dh=-30 dv=0 dx=0 dy=0 dh=0 dv=0
PairPos2: "'kern' Horizontal Kerning in Latin lookup 0 per glyph data 1" d dx=0 dy=0 dh=-20 dv=0 dx=0 dy=0 dh=0 dv=0
PairPos2: "'kern' Horizontal Kerning in Latin lookup 0 per glyph data 1" a dx=0 dy=0 dh=-20 dv=0 dx=0 dy=0 dh=0 dv=0
EndChar

StartChar: u
Encoding: 117 117 88
Width: 819
GlyphClass: 2
Flags: W
LayerCount: 2
Fore
SplineSet
202 646 m 1,0,-1
 191 314 l 2,1,2
 191 207 191 207 228 138 c 0,3,4
 267 72 267 72 342 72 c 0,5,6
 419 72 419 72 490 162 c 0,7,8
 560.5 250.5 560.5 250.5 574 360 c 1,9,-1
 570 688 l 2,10,11
 570 757 570 757 621 757 c 0,12,13
 683 757 683 757 683 655 c 0,14,15
 683 554 683 554 656 360 c 1,16,17
 656 252 656 252 670 174 c 0,18,19
 685 97 685 97 706 88 c 0,20,21
 709 86 709 86 726 82 c 0,22,23
 736 82 736 82 742 78 c 0,24,25
 747 75 747 75 747 67 c 0,26,27
 747 29 747 29 725 8 c 0,28,29
 703 -15 703 -15 669 -15 c 0,30,31
 584 -15 584 -15 584 158 c 1,32,33
 483 -15 483 -15 332 -15 c 0,34,35
 252 -15 252 -15 196 30 c 0,36,37
 96 114 96 114 96 297 c 1,38,-1
 104 536 l 2,39,40
 104 587 104 587 93 636 c 0,41,42
 82 685 82 685 82 702 c 0,43,44
 82 724 82 724 98 740 c 0,45,46
 115 757 115 757 140 757 c 0,47,48
 202 757 202 757 202 646 c 1,0,-1
EndSplineSet
Validated: 1
EndChar

StartChar: v
Encoding: 118 118 89
Width: 673
GlyphClass: 2
Flags: W
LayerCount: 2
Fore
SplineSet
397 40 m 0,0,1
 380 -10 380 -10 336 -10 c 0,2,3
 293 -10 293 -10 276 40 c 0,4,5
 142 417 142 417 120 480 c 0,6,7
 116 493 116 493 88 573 c 0,8,9
 56 659 56 659 52 670 c 0,10,11
 40 701 40 701 40 716 c 0,12,13
 40 730 40 730 52 745 c 0,14,15
 66 760 66 760 87 760 c 0,16,17
 125 760 125 760 140 715 c 0,18,19
 331 133 331 133 337 133 c 0,20,21
 347.5 133 347.5 133 538 715 c 0,22,23
 553 760 553 760 586 760 c 0,24,25
 608 760 608 760 620 745 c 0,26,27
 633 731 633 731 633 716 c 128,-1,28
 633 701 633 701 621 670 c 0,29,30
 561 507 561 507 554 482 c 0,31,32
 550 473 550 473 534 426.5 c 128,-1,33
 518 380 518 380 476.5 263.5 c 128,-1,34
 435 147 435 147 397 40 c 0,0,1
EndSplineSet
Validated: 1
EndChar

StartChar: w
Encoding: 119 119 90
Width: 759
GlyphClass: 2
Flags: W
LayerCount: 2
Fore
SplineSet
128 376 m 1,0,-1
 123 636 l 1,1,2
 79 641 79 641 79 678 c 0,3,4
 79 715 79 715 158 740 c 0,5,6
 238 764 238 764 322 764 c 0,7,8
 405 764 405 764 479 731 c 0,9,10
 552 698 552 698 596 642 c 0,11,12
 687 529 687 529 687 372 c 0,13,14
 687 220.5 687 220.5 600 108 c 0,15,16
 556.5 52.5 556.5 52.5 486 18 c 0,17,18
 416 -15 416 -15 317 -15 c 0,19,20
 218 -15 218 -15 147 10 c 0,21,22
 75 36 75 36 75 74 c 0,23,24
 75 111 75 111 125 111 c 1,25,-1
 128 376 l 1,0,-1
520 590 m 0,26,27
 447 678 447 678 313 678 c 0,28,29
 258 678 258 678 222 661 c 1,30,31
 219 600 219 600 219 390 c 0,32,33
 219 193 219 193 224 85 c 1,34,35
 259 72 259 72 325 72 c 0,36,37
 390 72 390 72 442 98 c 0,38,39
 493 122 493 122 526 168 c 0,40,41
 591 259 591 259 591 380 c 0,42,43
 591 499 591 499 520 590 c 0,26,27
EndSplineSet
EndChar

StartChar: x
Encoding: 120 120 91
Width: 593
GlyphClass: 2
Flags: W
LayerCount: 2
Fore
SplineSet
102 756 m 2,0,1
 301 750 l 1,2,3
 494 756 l 2,4,5
 520 756 520 756 538 744 c 0,6,7
 554 730 554 730 554 709 c 0,8,9
 554 688 554 688 538 674 c 0,10,11
 520 662 520 662 494 662 c 2,12,-1
 350 668 l 1,13,14
 346 581 346 581 346 372 c 2,15,-1
 352 48 l 2,16,17
 352 23 352 23 338 6 c 0,18,19
 325 -10 325 -10 302 -10 c 0,20,21
 279 -10 279 -10 264 6 c 0,22,23
 250 23 250 23 250 48 c 2,24,-1
 256 372 l 2,25,26
 256 533 256 533 251 668 c 1,27,-1
 102 662 l 2,28,29
 76 662 76 662 58 674 c 0,30,31
 42 688 42 688 42 709 c 0,32,33
 42 730 42 730 58 744 c 0,34,35
 76 756 76 756 102 756 c 2,0,1
EndSplineSet
EndChar

StartChar: y
Encoding: 121 121 92
Width: 607
GlyphClass: 2
Flags: W
LayerCount: 2
Fore
SplineSet
347 303 m 5,0,1
 347 223 347 223 350 142 c 6,2,-1
 352 61 l 6,3,4
 352 -10 352 -10 301 -10 c 132,-1,5
 250 -10 250 -10 250 61 c 6,6,-1
 252 144 l 6,7,8
 255 227 255 227 255 304 c 5,9,10
 63 634 63 634 43 673 c 4,11,12
 30 699 30 699 30 717 c 4,13,14
 30 733.5 30 733.5 42 747 c 4,15,16
 54 760 54 760 76 760 c 4,17,18
 99 760 99 760 115 738 c 4,19,20
 127 723 127 723 190 603 c 4,21,22
 244 494 244 494 306 401 c 5,23,24
 331 439 331 439 390 549 c 4,25,26
 454 667 454 667 460 678 c 4,27,28
 467 688 467 688 474 702 c 4,29,30
 475 704 475 704 479 710 c 132,-1,31
 483 716 483 716 486 721 c 4,32,33
 492 734 492 734 498 738 c 4,34,35
 500 742 500 742 508 750 c 4,36,37
 518 760 518 760 536 760 c 132,-1,38
 554 760 554 760 566 748 c 4,39,40
 577 735 577 735 577 719 c 4,41,42
 577 702.5 577 702.5 562 674 c 4,43,44
 550 650 550 650 500 564 c 4,45,46
 480 531 480 531 459 496 c 132,-1,47
 438 461 438 461 437 458 c 4,48,49
 435 454 435 454 421 430.5 c 132,-1,50
 407 407 407 407 398 390 c 4,51,52
 390 376 390 376 373 347 c 132,-1,53
 356 318 356 318 347 303 c 5,0,1
EndSplineSet
Validated: 1
EndChar

StartChar: z
Encoding: 122 122 93
Width: 618
GlyphClass: 2
Flags: W
LayerCount: 2
Fore
SplineSet
120 755 m 2,0,1
 295 750 l 1,2,3
 498 755 l 2,4,5
 555 755 555 755 555 714 c 0,6,7
 555 689 555 689 534 653 c 0,8,9
 522 630 522 630 456 530 c 0,10,11
 407 460 407 460 351 368 c 2,12,-1
 180 87 l 1,13,14
 243 82 243 82 308 82 c 0,15,16
 385 82 385 82 440 86 c 0,17,18
 502 89 502 89 520 89 c 0,19,20
 537 89 537 89 554 76 c 0,21,22
 570 63 570 63 570 42 c 0,23,24
 570 21 570 21 554 8 c 0,25,26
 537 -5 537 -5 510 -5 c 2,27,28
 335 0 l 1,29,30
 106 -5 l 2,31,32
 49 -5 49 -5 49 38 c 0,33,34
 49 63 49 63 74 104 c 0,35,36
 97 142 97 142 160 238 c 0,37,38
 230 341 230 341 273 413 c 2,39,-1
 425 664 l 1,40,41
 385 668 385 668 316 668 c 0,42,43
 245 668 245 668 190 664 c 0,44,45
 128 661 128 661 110 661 c 0,46,47
 93 661 93 661 76 674 c 0,48,49
 60 687 60 687 60 708 c 0,50,51
 60 729 60 729 76 742 c 0,52,53
 93 755 93 755 120 755 c 2,0,1
EndSplineSet
Validated: 1
EndChar

StartChar: braceleft
Encoding: 123 123 94
Width: 369
GlyphClass: 2
Flags: W
LayerCount: 2
Fore
SplineSet
308 -8 m 0,0,1
 322 -17 322 -17 322 -38 c 0,2,3
 322 -58 322 -58 310 -70 c 0,4,5
 298 -83 298 -83 277 -83 c 0,6,7
 219 -83 219 -83 176 -51 c 0,8,9
 132 -20 132 -20 132 39 c 0,10,11
 132 73 132 73 140 122 c 0,12,13
 147 188 147 188 147 210 c 0,14,15
 147 303 147 303 125 322 c 1,16,17
 110 315 110 315 86 315 c 0,18,19
 65 315 65 315 47 330 c 0,20,21
 29 344 29 344 29 374 c 0,22,23
 29 405 29 405 48 418 c 0,24,25
 66 433 66 433 88 433 c 0,26,27
 111 433 111 433 126 426 c 1,28,29
 148 445 148 445 148 538 c 0,30,31
 148 575 148 575 140 628 c 0,32,33
 133 695 133 695 133 713 c 0,34,35
 133 771 133 771 176 803 c 0,36,37
 222 835 222 835 278 835 c 0,38,39
 299 835 299 835 311 822 c 0,40,41
 323 810 323 810 323 790 c 0,42,43
 323 769 323 769 308 760 c 0,44,45
 295 749 295 749 277 747 c 0,46,47
 259 745 259 745 246 734 c 0,48,49
 231 725 231 725 231 706 c 0,50,51
 231 683 231 683 238 634 c 0,52,53
 245 584 245 584 245 534 c 0,54,55
 245 492 245 492 238 454 c 0,56,57
 228 416 228 416 223 408 c 0,58,59
 214 394 214 394 199 376 c 1,60,61
 214 358 214 358 222 344 c 0,62,63
 244 306 244 306 244 210 c 0,64,65
 244 165 244 165 237 116 c 0,66,67
 230 68 230 68 230 46 c 0,68,69
 230 27 230 27 244 18 c 0,70,71
 258 7 258 7 276 5 c 0,72,73
 294 3 294 3 308 -8 c 0,0,1
EndSplineSet
Validated: 1
EndChar

StartChar: bar
Encoding: 124 124 95
Width: 279
GlyphClass: 2
Flags: W
LayerCount: 2
Fore
SplineSet
178 603 m 1,0,-1
 183 499 l 2,1,2
 183 475 183 475 171 460 c 0,3,4
 159 446 159 446 138 446 c 0,5,6
 96 446 96 446 96 499 c 2,7,-1
 100 603 l 1,8,-1
 97 707 l 2,9,10
 97 760 97 760 138 760 c 0,11,12
 159 760 159 760 170 746 c 0,13,14
 182 731 182 731 182 707 c 2,15,-1
 178 603 l 1,0,-1
178 147 m 1,16,-1
 183 43 l 2,17,18
 183 19 183 19 171 4 c 0,19,20
 159 -10 159 -10 138 -10 c 0,21,22
 96 -10 96 -10 96 43 c 2,23,-1
 100 147 l 1,24,-1
 97 251 l 2,25,26
 97 304 97 304 138 304 c 0,27,28
 159 304 159 304 170 290 c 0,29,30
 182 275 182 275 182 251 c 2,31,-1
 178 147 l 1,16,-1
EndSplineSet
Validated: 1
EndChar

StartChar: braceright
Encoding: 125 125 96
Width: 369
GlyphClass: 2
Flags: W
LayerCount: 2
Fore
SplineSet
180 376 m 1,0,1
 165 394 165 394 156 408 c 0,2,3
 148 421 148 421 142 454 c 0,4,5
 134 483 134 483 134 534 c 0,6,7
 134 584 134 584 141 634 c 0,8,9
 148 683 148 683 148 706 c 0,10,11
 148 725 148 725 134 734 c 0,12,13
 120 745 120 745 102 747 c 0,14,15
 84 749 84 749 70 760 c 0,16,17
 56 769 56 769 56 790 c 0,18,19
 56 810 56 810 68 822 c 0,20,21
 80 835 80 835 101 835 c 0,22,23
 153 835 153 835 196 803 c 0,24,25
 236 771 236 771 236 713 c 0,26,27
 236 679 236 679 228 628 c 0,28,29
 221 558 221 558 221 538 c 0,30,31
 221 445 221 445 243 426 c 1,32,33
 258 433 258 433 282 433 c 0,34,35
 302 433 302 433 322 418 c 0,36,37
 340 404 340 404 340 374 c 0,38,39
 340 344 340 344 322 330 c 0,40,41
 304 315 304 315 283 315 c 0,42,43
 261 315 261 315 244 322 c 1,44,45
 222 303 222 303 222 210 c 0,46,47
 222 173 222 173 230 122 c 0,48,49
 237 57 237 57 237 39 c 0,50,51
 237 -20 237 -20 196 -51 c 0,52,53
 156 -83 156 -83 102 -83 c 0,54,55
 81 -83 81 -83 69 -70 c 0,56,57
 57 -58 57 -58 57 -38 c 0,58,59
 57 -17 57 -17 72 -8 c 0,60,61
 85 3 85 3 103 5 c 0,62,63
 121 7 121 7 134 18 c 0,64,65
 149 27 149 27 149 46 c 0,66,67
 149 68 149 68 142 116 c 0,68,69
 135 165 135 165 135 214 c 0,70,71
 135 262 135 262 142 296 c 0,72,73
 149 326 149 326 156 344 c 1,74,75
 180 376 l 1,0,1
EndSplineSet
Validated: 1
EndChar

StartChar: asciitilde
Encoding: 126 126 97
Width: 622
GlyphClass: 2
Flags: W
LayerCount: 2
Fore
SplineSet
549 404 m 0,0,1
 549 374 549 374 507 344 c 0,2,3
 466 312 466 312 422 312 c 0,4,5
 377 312 377 312 322 340 c 0,6,7
 267 368 267 368 240 368 c 0,8,9
 214.5 368 214.5 368 180 338 c 0,10,11
 145 309 145 309 122 309 c 0,12,13
 99 309 99 309 86 320 c 0,14,15
 74 330 74 330 74 349 c 0,16,17
 74 381 74 381 122 413 c 0,18,19
 169 444 169 444 225 444 c 0,20,21
 278 444 278 444 337 416 c 0,22,23
 392 387 392 387 420 387 c 0,24,25
 446 387 446 387 472 412 c 0,26,27
 498 436 498 436 514 436 c 0,28,29
 531 436 531 436 540 426 c 0,30,31
 549 417 549 417 549 404 c 0,0,1
EndSplineSet
Validated: 1
EndChar

StartChar: exclamdown
Encoding: 161 161 99
Width: 267
GlyphClass: 2
Flags: W
LayerCount: 2
Fore
SplineSet
174.5 671.5 m 128,-1,1
 188 653 188 653 188 628 c 128,-1,2
 188 603 188 603 171.5 583 c 128,-1,3
 155 563 155 563 130 563 c 128,-1,4
 105 563 105 563 92 580 c 128,-1,5
 79 597 79 597 79 622.5 c 128,-1,6
 79 648 79 648 96 669 c 128,-1,7
 113 690 113 690 137 690 c 128,-1,0
 161 690 161 690 174.5 671.5 c 128,-1,1
177 208 m 1,8,-1
 185 -20 l 2,9,10
 185 -50 185 -50 171.5 -67.5 c 128,-1,11
 158 -85 158 -85 134 -85 c 128,-1,12
 110 -85 110 -85 96.5 -67.5 c 128,-1,13
 83 -50 83 -50 83 -20 c 2,14,-1
 90 208 l 1,15,-1
 89 409 l 2,16,17
 89 435 89 435 101 450 c 128,-1,18
 113 465 113 465 134 465 c 128,-1,19
 155 465 155 465 167 450 c 128,-1,20
 179 435 179 435 179 409 c 2,21,-1
 177 208 l 1,8,-1
EndSplineSet
Validated: 1
EndChar

StartChar: cent
Encoding: 162 162 100
Width: 728
GlyphClass: 2
Flags: W
LayerCount: 2
Fore
SplineSet
665 112 m 0,0,1
 665 82 665 82 604.5 40.5 c 128,-1,2
 544 -1 544 -1 462 -11 c 1,3,4
 462 -82 462 -82 416 -82 c 128,-1,5
 370 -82 370 -82 370 -7 c 1,6,7
 238 12 238 12 155 113.5 c 128,-1,8
 72 215 72 215 72 352.5 c 128,-1,9
 72 490 72 490 154 590 c 128,-1,10
 236 690 236 690 369 713 c 1,11,12
 369 787 369 787 415 787 c 128,-1,13
 461 787 461 787 461 716 c 1,14,15
 542 711 542 711 597.5 681.5 c 128,-1,16
 653 652 653 652 653 615 c 0,17,18
 653 597 653 597 641 586 c 128,-1,19
 629 575 629 575 608.5 575 c 128,-1,20
 588 575 588 575 544.5 601.5 c 128,-1,21
 501 628 501 628 459 635 c 1,22,23
 455 507 455 507 455 353.5 c 128,-1,24
 455 200 455 200 459 72 c 1,25,26
 529 81 529 81 592 130 c 0,27,28
 613 145 613 145 628 145 c 0,29,30
 665 145 665 145 665 112 c 0,0,1
372 74 m 1,31,32
 375 266 375 266 375 321.5 c 128,-1,33
 375 377 375 377 371 633 c 1,34,35
 281 615 281 615 224 534.5 c 128,-1,36
 167 454 167 454 167 354.5 c 128,-1,37
 167 255 167 255 224.5 173.5 c 128,-1,38
 282 92 282 92 372 74 c 1,31,32
EndSplineSet
Validated: 1
EndChar

StartChar: sterling
Encoding: 163 163 101
Width: 583
GlyphClass: 2
Flags: W
LayerCount: 2
Fore
SplineSet
395 310 m 2,0,-1
 252 313 l 1,1,2
 258 225 258 225 242 179.5 c 128,-1,3
 226 134 226 134 200 86 c 1,4,5
 235 82 235 82 287 82 c 128,-1,6
 339 82 339 82 394 85.5 c 128,-1,7
 449 89 449 89 466 89 c 128,-1,8
 483 89 483 89 499.5 76.5 c 128,-1,9
 516 64 516 64 516 42 c 128,-1,10
 516 20 516 20 499.5 7.5 c 128,-1,11
 483 -5 483 -5 456 -5 c 2,12,-1
 301 0 l 1,13,-1
 147 -5 l 2,14,15
 119 -5 119 -5 102.5 10 c 128,-1,16
 86 25 86 25 86 53 c 128,-1,17
 86 81 86 81 104.5 112 c 128,-1,18
 123 143 123 143 142 182 c 128,-1,19
 161 221 161 221 161.5 257.5 c 128,-1,20
 162 294 162 294 161 311 c 1,21,22
 153 310 153 310 130 310 c 0,23,24
 75 310 75 310 75 350.5 c 128,-1,25
 75 391 75 391 128 391 c 0,26,27
 132 391 132 391 139 390.5 c 128,-1,28
 146 390 146 390 149 390 c 1,29,30
 146 406 146 406 138 437 c 0,31,32
 122 505 122 505 122 544 c 0,33,34
 122 616 122 616 174.5 664.5 c 128,-1,35
 227 713 227 713 319 713 c 0,36,37
 378 713 378 713 434 683 c 128,-1,38
 490 653 490 653 490 621 c 0,39,40
 490 604 490 604 480 590.5 c 128,-1,41
 470 577 470 577 450 577 c 128,-1,42
 430 577 430 577 392 601.5 c 128,-1,43
 354 626 354 626 311.5 626 c 128,-1,44
 269 626 269 626 243.5 603 c 128,-1,45
 218 580 218 580 218 544 c 128,-1,46
 218 508 218 508 241 388 c 1,47,-1
 395 391 l 2,48,49
 417 391 417 391 431.5 380 c 128,-1,50
 446 369 446 369 446 351 c 128,-1,51
 446 333 446 333 431.5 321.5 c 128,-1,52
 417 310 417 310 395 310 c 2,0,-1
EndSplineSet
Validated: 33
EndChar

StartChar: currency
Encoding: 164 164 102
Width: 701
GlyphClass: 2
Flags: W
LayerCount: 2
Fore
SplineSet
487 189 m 1,0,1
 432 147 432 147 350 147 c 128,-1,2
 268 147 268 147 213 189 c 1,3,4
 205 180 205 180 193.5 168 c 128,-1,5
 182 156 182 156 177.5 151 c 128,-1,6
 173 146 173 146 165.5 138.5 c 128,-1,7
 158 131 158 131 154.5 128.5 c 128,-1,8
 151 126 151 126 146 124 c 0,9,10
 136 119 136 119 120.5 119 c 128,-1,11
 105 119 105 119 91 132 c 128,-1,12
 77 145 77 145 77 162 c 128,-1,13
 77 179 77 179 89 193.5 c 128,-1,14
 101 208 101 208 156 256 c 1,15,16
 128 309 128 309 128 371 c 128,-1,17
 128 433 128 433 157 488 c 1,18,19
 102 536 102 536 90 550.5 c 128,-1,20
 78 565 78 565 78 582 c 128,-1,21
 78 599 78 599 92 612 c 128,-1,22
 106 625 106 625 118.5 625 c 128,-1,23
 131 625 131 625 136 624 c 128,-1,24
 141 623 141 623 146.5 620.5 c 128,-1,25
 152 618 152 618 155.5 615.5 c 128,-1,26
 159 613 159 613 166.5 605.5 c 128,-1,27
 174 598 174 598 178.5 593 c 128,-1,28
 183 588 183 588 194.5 576 c 128,-1,29
 206 564 206 564 214 555 c 1,30,31
 268 596 268 596 350 596 c 128,-1,32
 432 596 432 596 486 555 c 1,33,34
 539 611 539 611 550 618 c 128,-1,35
 561 625 561 625 577.5 625 c 128,-1,36
 594 625 594 625 608 612 c 128,-1,37
 622 599 622 599 622 582 c 128,-1,38
 622 565 622 565 610 550.5 c 128,-1,39
 598 536 598 536 543 488 c 1,40,41
 572 433 572 433 572 369.5 c 128,-1,42
 572 306 572 306 544 256 c 1,43,44
 599 208 599 208 611 193.5 c 128,-1,45
 623 179 623 179 623 162 c 128,-1,46
 623 145 623 145 609.5 132 c 128,-1,47
 596 119 596 119 585 119 c 128,-1,48
 574 119 574 119 570 119.5 c 128,-1,49
 566 120 566 120 561.5 121.5 c 128,-1,50
 557 123 557 123 554 124.5 c 128,-1,51
 551 126 551 126 546 130 c 128,-1,52
 541 134 541 134 538 137 c 128,-1,53
 535 140 535 140 528 146.5 c 128,-1,54
 521 153 521 153 516.5 157.5 c 128,-1,55
 512 162 512 162 503 172 c 128,-1,56
 494 182 494 182 487 189 c 1,0,1
445.5 475 m 128,-1,58
 405 518 405 518 350 518 c 128,-1,59
 295 518 295 518 254.5 475 c 128,-1,60
 214 432 214 432 214 372 c 128,-1,61
 214 312 214 312 254 269 c 128,-1,62
 294 226 294 226 350 226 c 128,-1,63
 406 226 406 226 446 269 c 128,-1,64
 486 312 486 312 486 372 c 128,-1,57
 486 432 486 432 445.5 475 c 128,-1,58
EndSplineSet
Validated: 1
EndChar

StartChar: yen
Encoding: 165 165 103
Width: 646
GlyphClass: 2
Flags: W
LayerCount: 2
Fore
SplineSet
373 151 m 1,0,-1
 375 48 l 2,1,2
 375 22 375 22 361 6 c 128,-1,3
 347 -10 347 -10 324.5 -10 c 128,-1,4
 302 -10 302 -10 287.5 6 c 128,-1,5
 273 22 273 22 273 41.5 c 128,-1,6
 273 61 273 61 277 151 c 1,7,8
 197 149 197 149 139 149 c 0,9,10
 117 149 117 149 103.5 160 c 128,-1,11
 90 171 90 171 90 189 c 128,-1,12
 90 207 90 207 103.5 218 c 128,-1,13
 117 229 117 229 139 229 c 2,14,-1
 279 226 l 1,15,-1
 279 294 l 1,16,-1
 139 292 l 2,17,18
 117 292 117 292 103.5 303 c 128,-1,19
 90 314 90 314 90 332 c 128,-1,20
 90 350 90 350 103.5 361 c 128,-1,21
 117 372 117 372 137.5 372 c 128,-1,22
 158 372 158 372 189.5 371.5 c 128,-1,23
 221 371 221 371 234 371 c 1,24,25
 175 471 175 471 156.5 501 c 128,-1,26
 138 531 138 531 124.5 553.5 c 128,-1,27
 111 576 111 576 103 589 c 128,-1,28
 95 602 95 602 88 614.5 c 128,-1,29
 81 627 81 627 77.5 633.5 c 128,-1,30
 74 640 74 640 72 647 c 0,31,32
 68 657 68 657 68 671 c 128,-1,33
 68 685 68 685 82.5 699 c 128,-1,34
 97 713 97 713 119 713 c 0,35,36
 131 713 131 713 137.5 708.5 c 128,-1,37
 144 704 144 704 148 701 c 128,-1,38
 152 698 152 698 157 691 c 128,-1,39
 162 684 162 684 165 679.5 c 128,-1,40
 168 675 168 675 174 665 c 128,-1,41
 180 655 180 655 183.5 649 c 128,-1,42
 187 643 187 643 194 629.5 c 128,-1,43
 201 616 201 616 249.5 528.5 c 128,-1,44
 298 441 298 441 330 394 c 1,45,46
 351 426 351 426 393.5 504.5 c 128,-1,47
 436 583 436 583 444.5 597.5 c 128,-1,48
 453 612 453 612 460 624.5 c 128,-1,49
 467 637 467 637 470.5 644 c 128,-1,50
 474 651 474 651 480 661 c 128,-1,51
 486 671 486 671 490 676.5 c 128,-1,52
 494 682 494 682 499 689 c 128,-1,53
 504 696 504 696 508 699.5 c 128,-1,54
 512 703 512 703 517 706 c 0,55,56
 526 713 526 713 542.5 713 c 128,-1,57
 559 713 559 713 572 700 c 128,-1,58
 585 687 585 687 585 671.5 c 128,-1,59
 585 656 585 656 572 632 c 0,60,61
 560 608 560 608 417 371 c 1,62,-1
 517 372 l 2,63,64
 539 372 539 372 552.5 361 c 128,-1,65
 566 350 566 350 566 332 c 128,-1,66
 566 314 566 314 552.5 303 c 128,-1,67
 539 292 539 292 517 292 c 2,68,-1
 371 294 l 1,69,-1
 371 226 l 1,70,-1
 517 229 l 2,71,72
 539 229 539 229 552.5 218 c 128,-1,73
 566 207 566 207 566 189 c 128,-1,74
 566 171 566 171 552.5 160 c 128,-1,75
 539 149 539 149 517 149 c 0,76,77
 457 149 457 149 373 151 c 1,0,-1
EndSplineSet
Validated: 1
EndChar

StartChar: brokenbar
Encoding: 166 166 104
Width: 279
GlyphClass: 2
Flags: W
LayerCount: 2
Fore
SplineSet
178 603 m 1,0,-1
 183 499 l 2,1,2
 183 475 183 475 171 460.5 c 128,-1,3
 159 446 159 446 138 446 c 0,4,5
 96 446 96 446 96 499 c 2,6,-1
 100 603 l 1,7,-1
 97 707 l 2,8,9
 97 760 97 760 138 760 c 0,10,11
 159 760 159 760 170.5 745.5 c 128,-1,12
 182 731 182 731 182 707 c 2,13,-1
 178 603 l 1,0,-1
178 147 m 1,14,-1
 183 43 l 2,15,16
 183 19 183 19 171 4.5 c 128,-1,17
 159 -10 159 -10 138 -10 c 0,18,19
 96 -10 96 -10 96 43 c 2,20,-1
 100 147 l 1,21,-1
 97 251 l 2,22,23
 97 304 97 304 138 304 c 0,24,25
 159 304 159 304 170.5 289.5 c 128,-1,26
 182 275 182 275 182 251 c 2,27,-1
 178 147 l 1,14,-1
EndSplineSet
Validated: 1
EndChar

StartChar: section
Encoding: 167 167 105
Width: 586
GlyphClass: 2
Flags: W
LayerCount: 2
Fore
SplineSet
488 407.5 m 128,-1,1
 520 371 520 371 520 329 c 128,-1,2
 520 287 520 287 494 250.5 c 128,-1,3
 468 214 468 214 426 191 c 1,4,5
 485 149 485 149 485 83 c 128,-1,6
 485 17 485 17 426 -34 c 128,-1,7
 367 -85 367 -85 272 -85 c 0,8,9
 202 -85 202 -85 135.5 -48 c 128,-1,10
 69 -11 69 -11 69 26 c 0,11,12
 69 43 69 43 80 53 c 128,-1,13
 91 63 91 63 108 63 c 128,-1,14
 125 63 125 63 146 48 c 0,15,16
 208 2 208 2 266 2 c 128,-1,17
 324 2 324 2 357 25 c 128,-1,18
 390 48 390 48 390 81 c 128,-1,19
 390 114 390 114 358 139.5 c 128,-1,20
 326 165 326 165 280.5 187 c 128,-1,21
 235 209 235 209 189.5 233.5 c 128,-1,22
 144 258 144 258 112 293.5 c 128,-1,23
 80 329 80 329 80 373 c 128,-1,24
 80 417 80 417 114 451 c 128,-1,25
 148 485 148 485 204 499 c 1,26,27
 115 561 115 561 115 620.5 c 128,-1,28
 115 680 115 680 170.5 722.5 c 128,-1,29
 226 765 226 765 301.5 765 c 128,-1,30
 377 765 377 765 429 738 c 128,-1,31
 481 711 481 711 481 675 c 0,32,33
 481 660 481 660 470.5 650 c 128,-1,34
 460 640 460 640 444.5 640 c 128,-1,35
 429 640 429 640 392 659 c 128,-1,36
 355 678 355 678 312 678 c 128,-1,37
 269 678 269 678 239.5 662 c 128,-1,38
 210 646 210 646 210 619 c 128,-1,39
 210 592 210 592 242 565.5 c 128,-1,40
 274 539 274 539 319.5 516.5 c 128,-1,41
 365 494 365 494 410.5 469 c 128,-1,0
 456 444 456 444 488 407.5 c 128,-1,1
405 276 m 128,-1,43
 429 299 429 299 429 329.5 c 128,-1,44
 429 360 429 360 376 394.5 c 128,-1,45
 323 429 323 429 277 429 c 128,-1,46
 231 429 231 429 201 414 c 128,-1,47
 171 399 171 399 171 374.5 c 128,-1,48
 171 350 171 350 206.5 323.5 c 128,-1,49
 242 297 242 297 340 243 c 1,50,42
 381 253 381 253 405 276 c 128,-1,43
EndSplineSet
Validated: 1
EndChar

StartChar: dieresis
Encoding: 168 168 106
Width: 476
GlyphClass: 2
Flags: W
LayerCount: 2
Fore
SplineSet
377.5 690 m 128,-1,1
 391 673 391 673 391 646.5 c 128,-1,2
 391 620 391 620 374 599 c 128,-1,3
 357 578 357 578 332.5 578 c 128,-1,4
 308 578 308 578 294 596 c 128,-1,5
 280 614 280 614 280 640 c 128,-1,6
 280 666 280 666 296.5 686.5 c 128,-1,7
 313 707 313 707 338.5 707 c 128,-1,0
 364 707 364 707 377.5 690 c 128,-1,1
182.5 690 m 128,-1,9
 196 673 196 673 196 646.5 c 128,-1,10
 196 620 196 620 179 599 c 128,-1,11
 162 578 162 578 137.5 578 c 128,-1,12
 113 578 113 578 99 596 c 128,-1,13
 85 614 85 614 85 640 c 128,-1,14
 85 666 85 666 101.5 686.5 c 128,-1,15
 118 707 118 707 143.5 707 c 128,-1,8
 169 707 169 707 182.5 690 c 128,-1,9
EndSplineSet
Validated: 1
EndChar

StartChar: copyright
Encoding: 169 169 107
Width: 787
GlyphClass: 2
Flags: W
LayerCount: 2
Fore
SplineSet
398 644 m 0,0,1
 443 644 443 644 480 625.5 c 128,-1,2
 517 607 517 607 517 583 c 0,3,4
 517 548 517 548 481 548 c 0,5,6
 467 548 467 548 450 560 c 0,7,8
 424 575 424 575 403 575 c 0,9,10
 351 575 351 575 322.5 537 c 128,-1,11
 294 499 294 499 294 447.5 c 128,-1,12
 294 396 294 396 325.5 359 c 128,-1,13
 357 322 357 322 403 322 c 0,14,15
 433 322 433 322 457.5 334.5 c 128,-1,16
 482 347 482 347 494 347 c 0,17,18
 525 347 525 347 525 316 c 0,19,20
 525 299 525 299 488 276 c 128,-1,21
 451 253 451 253 398 253 c 0,22,23
 321 253 321 253 268 311 c 128,-1,24
 215 369 215 369 215 449.5 c 128,-1,25
 215 530 215 530 266.5 587 c 128,-1,26
 318 644 318 644 398 644 c 0,0,1
707 449 m 128,-1,28
 707 318 707 318 615 225.5 c 128,-1,29
 523 133 523 133 393 133 c 128,-1,30
 263 133 263 133 171 225.5 c 128,-1,31
 79 318 79 318 79 449 c 128,-1,32
 79 580 79 580 171 672.5 c 128,-1,33
 263 765 263 765 393 765 c 128,-1,34
 523 765 523 765 615 672.5 c 128,-1,27
 707 580 707 580 707 449 c 128,-1,28
559.5 275.5 m 128,-1,36
 629 347 629 347 629 449.5 c 128,-1,37
 629 552 629 552 559.5 623 c 128,-1,38
 490 694 490 694 392.5 694 c 128,-1,39
 295 694 295 694 226 623 c 128,-1,40
 157 552 157 552 157 449.5 c 128,-1,41
 157 347 157 347 226 275.5 c 128,-1,42
 295 204 295 204 392.5 204 c 128,-1,35
 490 204 490 204 559.5 275.5 c 128,-1,36
EndSplineSet
Validated: 1
EndChar

StartChar: ordfeminine
Encoding: 170 170 108
Width: 616
GlyphClass: 2
Flags: W
LayerCount: 2
Fore
SplineSet
377.5234375 320.103515625 m 5,0,-1
 455.479492188 323.274414062 l 6,1,2
 462.6015625 323.274414062 462.6015625 323.274414062 467.15234375 312.701171875 c 132,-1,3
 471.704101562 302.125976562 471.704101562 302.125976562 471.704101562 286.264648438 c 132,-1,4
 471.704101562 270.40234375 471.704101562 270.40234375 467.15234375 259.827148438 c 132,-1,5
 462.6015625 249.252929688 462.6015625 249.252929688 455.479492188 249.252929688 c 6,6,-1
 377.5234375 252.424804688 l 5,7,-1
 299.568359375 249.252929688 l 6,8,9
 292.444335938 249.252929688 292.444335938 249.252929688 287.89453125 259.827148438 c 132,-1,10
 283.34375 270.40234375 283.34375 270.40234375 283.34375 286.264648438 c 132,-1,11
 283.34375 302.125976562 283.34375 302.125976562 287.89453125 312.701171875 c 132,-1,12
 292.444335938 323.274414062 292.444335938 323.274414062 299.568359375 323.274414062 c 6,13,14
 299.568359375 323.274414062 299.568359375 323.274414062 377.5234375 320.103515625 c 5,0,-1
427.264648438 507.08984375 m 0,15,16
 444 492 444 492 443.475585938 469.133789062 c 0,17,18
 443 446 443 446 423.061523438 427.205078125 c 0,19,20
 401 408 401 408 373.227539062 408.2265625 c 0,21,22
 343 409 343 409 326.997070312 424.115234375 c 0,23,24
 310 442 310 442 310.186523438 462.955078125 c 0,25,26
 311 486 311 486 330 504 c 0,27,28
 350 522 350 522 380.432617188 522.094726562 c 0,29,30
 411 523 411 523 427.264648438 507.08984375 c 0,15,16
423.607421875 137.575195312 m 0,31,32
 440 122 440 122 439.818359375 99.619140625 c 0,33,34
 439 76 439 76 419.404296875 57.6904296875 c 0,35,36
 398 39 398 39 369.5703125 38.7119140625 c 0,37,38
 339 39 339 39 323.33984375 54.6005859375 c 0,39,40
 306 72 306 72 306.529296875 93.4404296875 c 0,41,42
 307 116 307 116 326.342773438 134.485351562 c 0,43,44
 347 153 347 153 376.775390625 152.580078125 c 0,45,46
 407 153 407 153 423.607421875 137.575195312 c 0,31,32
194 358 m 1,47,48
 194 228 194 228 197 148 c 128,-1,49
 200 68 200 68 200 61 c 0,50,51
 200 -10 200 -10 149 -10 c 128,-1,52
 98 -10 98 -10 98 61 c 0,53,54
 98 82 98 82 99 108 c 0,55,-1
 97 670 l 1,56,57
 85 690 85 690 85 710 c 0,58,59
 85 756.675675676 85 756.675675676 147 755 c 2,60,-1
 332 750 l 1,61,-1
 492 756 l 2,62,63
 519 757 519 757 535 744 c 0,64,65
 552 731 552 731 552 709 c 128,-1,66
 552 687 552 687 535 674 c 0,67,68
 518.985294118 660.988051471 518.985294118 660.988051471 492 662 c 2,69,-1
 332 668 l 2,70,71
 280 670 280 670 194 663 c 1,72,-1
 194 441 l 1,73,-1
 194 358 l 1,47,48
EndSplineSet
EndChar

StartChar: guillemotleft
Encoding: 171 171 109
Width: 605
GlyphClass: 2
Flags: W
LayerCount: 2
Fore
SplineSet
150 376 m 132,-1,1
 150 368 150 368 207 327 c 4,2,3
 215 321 215 321 233 309.5 c 132,-1,4
 251 298 251 298 260 291 c 4,5,6
 288 271 288 271 288 253 c 132,-1,7
 288 235 288 235 276 223.5 c 132,-1,8
 264 212 264 212 246.5 212 c 132,-1,9
 229 212 229 212 215.5 220 c 132,-1,10
 202 228 202 228 184 245 c 132,-1,11
 166 262 166 262 128.5 292.5 c 132,-1,12
 91 323 91 323 75 341 c 132,-1,13
 59 359 59 359 59 376 c 132,-1,14
 59 393 59 393 75 411 c 132,-1,15
 91 429 91 429 128.5 459.5 c 132,-1,16
 166 490 166 490 180.5 503.5 c 132,-1,17
 195 517 195 517 203 524 c 4,18,19
 223 540 223 540 243.5 540 c 132,-1,20
 264 540 264 540 276 528.5 c 132,-1,21
 288 517 288 517 288 501.5 c 132,-1,22
 288 486 288 486 277.5 475 c 132,-1,23
 267 464 267 464 239 446 c 132,-1,24
 211 428 211 428 207 425 c 4,25,0
 150 384 150 384 150 376 c 132,-1,1
390 376 m 128,-1,27
 390 368 390 368 447 327 c 0,28,29
 455 321 455 321 473 309.5 c 128,-1,30
 491 298 491 298 500 291 c 0,31,32
 528 271 528 271 528 253 c 128,-1,33
 528 235 528 235 516 223.5 c 128,-1,34
 504 212 504 212 486.5 212 c 128,-1,35
 469 212 469 212 455.5 220 c 128,-1,36
 442 228 442 228 424 245 c 128,-1,37
 406 262 406 262 368.5 292.5 c 128,-1,38
 331 323 331 323 315 341 c 128,-1,39
 299 359 299 359 299 376 c 128,-1,40
 299 393 299 393 315 411 c 128,-1,41
 331 429 331 429 368.5 459.5 c 128,-1,42
 406 490 406 490 420.5 503.5 c 128,-1,43
 435 517 435 517 443 524 c 0,44,45
 463 540 463 540 483.5 540 c 128,-1,46
 504 540 504 540 516 528.5 c 128,-1,47
 528 517 528 517 528 501.5 c 128,-1,48
 528 486 528 486 517.5 475 c 128,-1,49
 507 464 507 464 479 446 c 128,-1,50
 451 428 451 428 447 425 c 0,51,26
 390 384 390 384 390 376 c 128,-1,27
EndSplineSet
Validated: 1
EndChar

StartChar: logicalnot
Encoding: 172 172 110
Width: 704
GlyphClass: 2
Flags: W
LayerCount: 2
Fore
SplineSet
609 305 m 1,0,-1
 611 237 l 2,1,2
 611 215 611 215 599 202 c 128,-1,3
 587 189 587 189 567.5 189 c 128,-1,4
 548 189 548 189 536 202 c 128,-1,5
 524 215 524 215 524 237 c 2,6,7
 524 237 524 237 527 334 c 1,8,9
 439 336 439 336 349 336 c 2,10,-1
 143 333 l 2,11,12
 121 333 121 333 107 345 c 128,-1,13
 93 357 93 357 93 375 c 128,-1,14
 93 393 93 393 107 405 c 128,-1,15
 121 417 121 417 143 417 c 2,16,-1
 349 414 l 1,17,-1
 560 417 l 2,18,19
 578 417 578 417 594.5 405.5 c 128,-1,20
 611 394 611 394 611 365 c 2,21,-1
 609 305 l 1,0,-1
EndSplineSet
Validated: 1
EndChar

StartChar: uni00AD
Encoding: 173 173 111
Width: 438
GlyphClass: 2
Flags: W
LayerCount: 2
Fore
SplineSet
317 219 m 2,0,-1
 218 222 l 1,1,-1
 119 219 l 2,2,3
 97 219 97 219 83.5 231 c 128,-1,4
 70 243 70 243 70 261 c 128,-1,5
 70 279 70 279 83.5 291 c 128,-1,6
 97 303 97 303 119 303 c 2,7,-1
 218 300 l 1,8,9
 218 300 218 300 317 303 c 0,10,11
 339 303 339 303 352.5 291 c 128,-1,12
 366 279 366 279 366 261 c 128,-1,13
 366 243 366 243 352.5 231 c 128,-1,14
 339 219 339 219 317 219 c 2,0,-1
EndSplineSet
Validated: 1
EndChar

StartChar: registered
Encoding: 174 174 112
Width: 786
GlyphClass: 2
Flags: W
LayerCount: 2
Fore
SplineSet
261 461 m 1,0,-1
 256 594 l 2,1,2
 256 647 256 647 385 647 c 0,3,4
 460 647 460 647 498.5 610 c 128,-1,5
 537 573 537 573 537 526 c 0,6,7
 537 454 537 454 461 416 c 1,8,9
 468 404 468 404 477.5 388 c 128,-1,10
 487 372 487 372 492 363.5 c 128,-1,11
 497 355 497 355 504 346 c 0,12,13
 515 330 515 330 533.5 330 c 128,-1,14
 552 330 552 330 552 316 c 0,15,16
 552 295 552 295 537 279.5 c 128,-1,17
 522 264 522 264 504.5 264 c 128,-1,18
 487 264 487 264 476 269.5 c 128,-1,19
 465 275 465 275 454 289 c 0,20,21
 437 311 437 311 417 349.5 c 128,-1,22
 397 388 397 388 391 398 c 1,23,24
 367 395 367 395 353 395 c 128,-1,25
 339 395 339 395 334 396 c 1,26,-1
 336 308 l 2,27,28
 336 289 336 289 325 276 c 128,-1,29
 314 263 314 263 296 263 c 0,30,31
 257 263 257 263 257 308 c 2,32,-1
 261 461 l 1,0,-1
447.5 488 m 128,-1,34
 461 504 461 504 461 525.5 c 128,-1,35
 461 547 461 547 443.5 563 c 128,-1,36
 426 579 426 579 392 579 c 128,-1,37
 358 579 358 579 334 572 c 1,38,39
 334 558 334 558 332.5 527 c 128,-1,40
 331 496 331 496 331 477 c 1,41,42
 347 481 347 481 366.5 481 c 128,-1,43
 386 481 386 481 419 470 c 1,44,33
 434 472 434 472 447.5 488 c 128,-1,34
707 449 m 128,-1,46
 707 318 707 318 615 225.5 c 128,-1,47
 523 133 523 133 393 133 c 128,-1,48
 263 133 263 133 171 225.5 c 128,-1,49
 79 318 79 318 79 449 c 128,-1,50
 79 580 79 580 171 672.5 c 128,-1,51
 263 765 263 765 393 765 c 128,-1,52
 523 765 523 765 615 672.5 c 128,-1,45
 707 580 707 580 707 449 c 128,-1,46
559.5 275.5 m 128,-1,54
 629 347 629 347 629 449.5 c 128,-1,55
 629 552 629 552 559.5 623 c 128,-1,56
 490 694 490 694 392.5 694 c 128,-1,57
 295 694 295 694 226 623 c 128,-1,58
 157 552 157 552 157 449.5 c 128,-1,59
 157 347 157 347 226 275.5 c 128,-1,60
 295 204 295 204 392.5 204 c 128,-1,53
 490 204 490 204 559.5 275.5 c 128,-1,54
EndSplineSet
Validated: 1
EndChar

StartChar: macron
Encoding: 175 175 113
Width: 496
GlyphClass: 2
Flags: W
LayerCount: 2
Fore
SplineSet
248 630 m 1,0,-1
 114 627 l 2,1,2
 93 627 93 627 79 639 c 128,-1,3
 65 651 65 651 65 669 c 128,-1,4
 65 687 65 687 78.5 699 c 128,-1,5
 92 711 92 711 114 711 c 2,6,-1
 248 708 l 1,7,-1
 382 711 l 2,8,9
 403 711 403 711 417 699 c 128,-1,10
 431 687 431 687 431 669 c 128,-1,11
 431 651 431 651 417.5 639 c 128,-1,12
 404 627 404 627 382 627 c 2,13,14
 382 627 382 627 248 630 c 1,0,-1
EndSplineSet
Validated: 1
EndChar

StartChar: degree
Encoding: 176 176 114
Width: 402
GlyphClass: 2
Flags: W
LayerCount: 2
Fore
SplineSet
300 719.5 m 128,-1,1
 338 676 338 676 338 613.5 c 128,-1,2
 338 551 338 551 300 507.5 c 128,-1,3
 262 464 262 464 201 464 c 128,-1,4
 140 464 140 464 102 507 c 128,-1,5
 64 550 64 550 64 613 c 128,-1,6
 64 676 64 676 102 719.5 c 128,-1,7
 140 763 140 763 201 763 c 128,-1,0
 262 763 262 763 300 719.5 c 128,-1,1
260 613 m 128,-1,9
 260 648 260 648 244.5 671 c 128,-1,10
 229 694 229 694 201 694 c 128,-1,11
 173 694 173 694 157 671 c 128,-1,12
 141 648 141 648 141 613.5 c 128,-1,13
 141 579 141 579 157 556 c 128,-1,14
 173 533 173 533 201 533 c 128,-1,15
 229 533 229 533 244.5 555.5 c 128,-1,8
 260 578 260 578 260 613 c 128,-1,9
EndSplineSet
Validated: 1
EndChar

StartChar: plusminus
Encoding: 177 177 115
Width: 645
GlyphClass: 2
Flags: W
LayerCount: 2
Fore
SplineSet
132 502 m 2,0,-1
 284 499 l 1,1,2
 284 557 284 557 282 586 c 128,-1,3
 280 615 280 615 280 617 c 0,4,5
 280 640 280 640 291.5 653 c 128,-1,6
 303 666 303 666 322 666 c 128,-1,7
 341 666 341 666 353 652.5 c 128,-1,8
 365 639 365 639 365 616 c 0,9,10
 365 614 365 614 364 600 c 0,11,12
 361 556 361 556 361 498 c 1,13,-1
 513 501 l 2,14,15
 535 501 535 501 549 489 c 128,-1,16
 563 477 563 477 563 459 c 128,-1,17
 563 441 563 441 549 429 c 128,-1,18
 535 417 535 417 513 417 c 2,19,-1
 361 420 l 1,20,-1
 365 289 l 2,21,22
 365 266 365 266 353.5 252 c 128,-1,23
 342 238 342 238 322.5 238 c 128,-1,24
 303 238 303 238 291.5 252.5 c 128,-1,25
 280 267 280 267 280 290 c 2,26,-1
 284 421 l 1,27,-1
 132 418 l 2,28,29
 110 418 110 418 96 430 c 128,-1,30
 82 442 82 442 82 460 c 128,-1,31
 82 478 82 478 96 490 c 128,-1,32
 110 502 110 502 132 502 c 2,0,-1
321 91 m 1,33,-1
 131 88 l 2,34,35
 109 88 109 88 95.5 100 c 128,-1,36
 82 112 82 112 82 130 c 128,-1,37
 82 148 82 148 95.5 160 c 128,-1,38
 109 172 109 172 131 172 c 2,39,-1
 321 169 l 1,40,-1
 511 172 l 2,41,42
 533 172 533 172 546.5 160 c 128,-1,43
 560 148 560 148 560 130 c 128,-1,44
 560 112 560 112 546.5 100 c 128,-1,45
 533 88 533 88 511 88 c 2,46,-1
 321 91 l 1,33,-1
EndSplineSet
Validated: 1
EndChar

StartChar: twosuperior
Encoding: 178 178 116
Width: 435
GlyphClass: 2
Flags: W
LayerCount: 2
Fore
SplineSet
213 336 m 1,0,-1
 113 332 l 2,1,2
 94 332 94 332 79 343 c 128,-1,3
 64 354 64 354 64 373 c 128,-1,4
 64 392 64 392 79.5 412.5 c 128,-1,5
 95 433 95 433 129.5 469.5 c 128,-1,6
 164 506 164 506 176.5 521.5 c 128,-1,7
 189 537 189 537 202 552 c 128,-1,8
 215 567 215 567 223.5 578 c 128,-1,9
 232 589 232 589 243 604 c 0,10,11
 265 634 265 634 265 651.5 c 128,-1,12
 265 669 265 669 250.5 681 c 128,-1,13
 236 693 236 693 214.5 693 c 128,-1,14
 193 693 193 693 163.5 671 c 128,-1,15
 134 649 134 649 115 649 c 128,-1,16
 96 649 96 649 86.5 659 c 128,-1,17
 77 669 77 669 77 689 c 128,-1,18
 77 709 77 709 116.5 737 c 128,-1,19
 156 765 156 765 216 765 c 128,-1,20
 276 765 276 765 311.5 733 c 128,-1,21
 347 701 347 701 347 660 c 0,22,23
 347 623 347 623 318 580 c 0,24,25
 298 550 298 550 284 532.5 c 128,-1,26
 270 515 270 515 257.5 498 c 128,-1,27
 245 481 245 481 179 405 c 1,28,29
 246 405 246 405 281 407 c 128,-1,30
 316 409 316 409 322 409 c 0,31,32
 372 409 372 409 372 370.5 c 128,-1,33
 372 332 372 332 322 332 c 2,34,-1
 213 336 l 1,0,-1
EndSplineSet
Validated: 1
EndChar

StartChar: threesuperior
Encoding: 179 179 117
Width: 431
GlyphClass: 2
Flags: W
LayerCount: 2
Fore
SplineSet
207 750 m 1,0,-1
 288 753 l 2,1,2
 319 753 319 753 334.5 740 c 128,-1,3
 350 727 350 727 350 710.5 c 128,-1,4
 350 694 350 694 340.5 683 c 128,-1,5
 331 672 331 672 305 648.5 c 128,-1,6
 279 625 279 625 257 598 c 1,7,8
 311 584 311 584 340.5 547.5 c 128,-1,9
 370 511 370 511 370 459 c 128,-1,10
 370 407 370 407 325.5 363 c 128,-1,11
 281 319 281 319 207 319 c 0,12,13
 152 319 152 319 107.5 350.5 c 128,-1,14
 63 382 63 382 63 407 c 0,15,16
 63 442 63 442 96 442 c 0,17,18
 114 442 114 442 144.5 417.5 c 128,-1,19
 175 393 175 393 211 393 c 128,-1,20
 247 393 247 393 268.5 412.5 c 128,-1,21
 290 432 290 432 290 464 c 128,-1,22
 290 496 290 496 267 517.5 c 128,-1,23
 244 539 244 539 209 543 c 1,24,25
 172 511 172 511 141 511 c 0,26,27
 96 511 96 511 96 552 c 0,28,29
 96 567 96 567 113 582 c 128,-1,30
 130 597 130 597 163 604 c 1,31,32
 224 660 224 660 242 679 c 1,33,34
 230 680 230 680 197 680 c 2,35,-1
 119 677 l 2,36,37
 98 677 98 677 84.5 686.5 c 128,-1,38
 71 696 71 696 71 713.5 c 128,-1,39
 71 731 71 731 84 742 c 128,-1,40
 97 753 97 753 119 753 c 2,41,-1
 207 750 l 1,0,-1
EndSplineSet
Validated: 1
EndChar

StartChar: acute
Encoding: 180 180 118
Width: 330
GlyphClass: 2
Flags: W
LayerCount: 2
Fore
SplineSet
245 696 m 0,0,1
 245 652 245 652 197.5 607.5 c 128,-1,2
 150 563 150 563 118 563 c 0,3,4
 102 563 102 563 93.5 571 c 128,-1,5
 85 579 85 579 85 591 c 128,-1,6
 85 603 85 603 109 632.5 c 128,-1,7
 133 662 133 662 142 682 c 128,-1,8
 151 702 151 702 156.5 711.5 c 128,-1,9
 162 721 162 721 174.5 730.5 c 128,-1,10
 187 740 187 740 204.5 740 c 128,-1,11
 222 740 222 740 233.5 726.5 c 128,-1,12
 245 713 245 713 245 696 c 0,0,1
EndSplineSet
Validated: 1
EndChar

StartChar: mu
Encoding: 181 181 119
AltUni2: 0003bc.ffffffff.0
Width: 871
GlyphClass: 2
Flags: W
LayerCount: 2
Fore
SplineSet
595 360 m 1,0,-1
 591 688 l 2,1,2
 591 757 591 757 642 757 c 0,3,4
 704 757 704 757 704 655 c 128,-1,5
 704 553 704 553 677 360 c 1,6,7
 677 250 677 250 691.5 173.5 c 128,-1,8
 706 97 706 97 727 88 c 0,9,10
 735 84 735 84 746.5 82.5 c 128,-1,11
 758 81 758 81 763 78 c 128,-1,12
 768 75 768 75 768 67 c 0,13,14
 768 30 768 30 746 7.5 c 128,-1,15
 724 -15 724 -15 690 -15 c 0,16,17
 646 -15 646 -15 625 35 c 128,-1,18
 604 85 604 85 604 164 c 1,19,20
 584 127 584 127 571 107 c 128,-1,21
 558 87 558 87 529 53 c 0,22,23
 471 -15 471 -15 380 -15 c 0,24,25
 345 -15 345 -15 298 3.5 c 128,-1,26
 251 22 251 22 223 51 c 1,27,28
 225 -9 225 -9 225 -12 c 0,29,30
 225 -83 225 -83 174 -83 c 128,-1,31
 123 -83 123 -83 123 -12 c 0,32,33
 123 -2 123 -2 124 52 c 0,34,35
 128 178 128 178 128 317.5 c 128,-1,36
 128 457 128 457 126.5 527.5 c 128,-1,37
 125 598 125 598 123.5 640.5 c 128,-1,38
 122 683 122 683 122 691 c 0,39,40
 122 762 122 762 173 762 c 128,-1,41
 224 762 224 762 224 691 c 0,42,43
 224 685 224 685 222 638 c 0,44,45
 218 499 218 499 218 307 c 0,46,47
 218 211 218 211 271.5 141.5 c 128,-1,48
 325 72 325 72 388.5 72 c 128,-1,49
 452 72 452 72 510.5 159 c 128,-1,50
 569 246 569 246 595 360 c 1,0,-1
EndSplineSet
Validated: 1
EndChar

StartChar: paragraph
Encoding: 182 182 120
Width: 662
GlyphClass: 2
Flags: W
LayerCount: 2
Fore
SplineSet
405 750 m 1,0,-1
 489 753 l 2,1,2
 515 753 515 753 530 737.5 c 128,-1,3
 545 722 545 722 545 704 c 128,-1,4
 545 686 545 686 544 622 c 0,5,6
 540 473 540 473 540 324 c 128,-1,7
 540 175 540 175 543 75.5 c 128,-1,8
 546 -24 546 -24 546 -27 c 0,9,10
 544 -85 544 -85 497.5 -85 c 128,-1,11
 451 -85 451 -85 451 -27 c 0,12,13
 451 -19 451 -19 452 25 c 0,14,15
 457 157 457 157 457 266 c 2,16,-1
 452 676 l 1,17,-1
 357 676 l 1,18,-1
 352 266 l 2,19,20
 352 175 352 175 355 75.5 c 128,-1,21
 358 -24 358 -24 358 -27 c 0,22,23
 358 -84 358 -84 310.5 -84 c 128,-1,24
 263 -84 263 -84 263 -27 c 0,25,26
 263 -20 263 -20 264 26 c 0,27,28
 269 164 269 164 269 319 c 1,29,30
 175 324 175 324 117 382.5 c 128,-1,31
 59 441 59 441 59 526 c 0,32,33
 59 632 59 632 125 691.5 c 128,-1,34
 191 751 191 751 307 753 c 1,35,-1
 405 750 l 1,0,-1
EndSplineSet
Validated: 1
EndChar

StartChar: periodcentered
Encoding: 183 183 121
Width: 269
GlyphClass: 2
Flags: W
LayerCount: 2
Fore
SplineSet
176.5 427 m 132,-1,1
 190 410 190 410 190 384 c 132,-1,2
 190 358 190 358 173 336.5 c 132,-1,3
 156 315 156 315 131.5 315 c 132,-1,4
 107 315 107 315 93 333 c 132,-1,5
 79 351 79 351 79 377 c 132,-1,6
 79 403 79 403 95.5 423.5 c 132,-1,7
 112 444 112 444 137.5 444 c 132,-1,0
 163 444 163 444 176.5 427 c 132,-1,1
EndSplineSet
Validated: 1
EndChar

StartChar: cedilla
Encoding: 184 184 122
Width: 341
GlyphClass: 2
Flags: W
LayerCount: 2
Fore
SplineSet
281 -133 m 0,0,1
 281 -175 281 -175 243.5 -202.5 c 128,-1,2
 206 -230 206 -230 154 -230 c 128,-1,3
 102 -230 102 -230 70.5 -205.5 c 128,-1,4
 39 -181 39 -181 39 -155 c 0,5,6
 39 -146 39 -146 46.5 -138 c 128,-1,7
 54 -130 54 -130 65.5 -130 c 128,-1,8
 77 -130 77 -130 102.5 -142 c 128,-1,9
 128 -154 128 -154 147 -154 c 128,-1,10
 166 -154 166 -154 178 -147 c 128,-1,11
 190 -140 190 -140 190 -130.5 c 128,-1,12
 190 -121 190 -121 175.5 -110.5 c 128,-1,13
 161 -100 161 -100 143.5 -90 c 128,-1,14
 126 -80 126 -80 111.5 -62.5 c 128,-1,15
 97 -45 97 -45 97 -24 c 2,16,-1
 97 19 l 1,17,-1
 178 19 l 1,18,-1
 178 -9 l 2,19,20
 178 -24 178 -24 194 -39 c 128,-1,21
 210 -54 210 -54 229.5 -64.5 c 128,-1,22
 249 -75 249 -75 265 -93 c 128,-1,23
 281 -111 281 -111 281 -133 c 0,0,1
EndSplineSet
Validated: 1
EndChar

StartChar: onesuperior
Encoding: 185 185 123
Width: 350
GlyphClass: 2
Flags: W
LayerCount: 2
Fore
SplineSet
264 544 m 1,0,-1
 267 377 l 2,1,2
 267 356 267 356 256 343.5 c 128,-1,3
 245 331 245 331 226 331 c 128,-1,4
 207 331 207 331 196 343.5 c 128,-1,5
 185 356 185 356 185 377 c 2,6,-1
 188 544 l 1,7,-1
 188 636 l 1,8,9
 177 625 177 625 162.5 611.5 c 128,-1,10
 148 598 148 598 140.5 590.5 c 128,-1,11
 133 583 133 583 123 574 c 128,-1,12
 113 565 113 565 107.5 561 c 128,-1,13
 102 557 102 557 96 552 c 0,14,15
 85 545 85 545 72 545 c 128,-1,16
 59 545 59 545 49 554 c 128,-1,17
 39 563 39 563 39 574.5 c 128,-1,18
 39 586 39 586 41 592.5 c 128,-1,19
 43 599 43 599 50 607.5 c 128,-1,20
 57 616 57 616 64 623.5 c 128,-1,21
 71 631 71 631 88 648.5 c 128,-1,22
 105 666 105 666 137 700.5 c 128,-1,23
 169 735 169 735 184.5 747.5 c 128,-1,24
 200 760 200 760 223 760 c 0,25,26
 267 760 267 760 267 703 c 2,27,-1
 264 544 l 1,0,-1
EndSplineSet
Validated: 1
EndChar

StartChar: ordmasculine
Encoding: 186 186 124
Width: 425
GlyphClass: 2
Flags: W
LayerCount: 2
Fore
SplineSet
320 718 m 128,-1,1
 362 671 362 671 362 599.5 c 128,-1,2
 362 528 362 528 320.5 482.5 c 128,-1,3
 279 437 279 437 212 437 c 128,-1,4
 145 437 145 437 104 482.5 c 128,-1,5
 63 528 63 528 63 599 c 128,-1,6
 63 670 63 670 104.5 717.5 c 128,-1,7
 146 765 146 765 212 765 c 128,-1,0
 278 765 278 765 320 718 c 128,-1,1
266 531.5 m 128,-1,9
 285 557 285 557 285 599.5 c 128,-1,10
 285 642 285 642 265.5 669 c 128,-1,11
 246 696 246 696 212.5 696 c 128,-1,12
 179 696 179 696 159.5 669 c 128,-1,13
 140 642 140 642 140 599.5 c 128,-1,14
 140 557 140 557 159 531.5 c 128,-1,15
 178 506 178 506 212.5 506 c 128,-1,8
 247 506 247 506 266 531.5 c 128,-1,9
EndSplineSet
Validated: 1
EndChar

StartChar: guillemotright
Encoding: 187 187 125
Width: 604
GlyphClass: 2
Flags: W
LayerCount: 2
Fore
SplineSet
546 376 m 128,-1,1
 546 359 546 359 530 341 c 128,-1,2
 514 323 514 323 476.5 292.5 c 128,-1,3
 439 262 439 262 424.5 248.5 c 128,-1,4
 410 235 410 235 402 228 c 0,5,6
 382 212 382 212 361.5 212 c 128,-1,7
 341 212 341 212 329 223.5 c 128,-1,8
 317 235 317 235 317 250.5 c 128,-1,9
 317 266 317 266 327.5 277 c 128,-1,10
 338 288 338 288 366 306 c 128,-1,11
 394 324 394 324 398 327 c 0,12,13
 455 368 455 368 455 376 c 128,-1,14
 455 384 455 384 398 425 c 0,15,16
 390 431 390 431 372 442.5 c 128,-1,17
 354 454 354 454 344 461 c 0,18,19
 317 481 317 481 317 499 c 128,-1,20
 317 517 317 517 329 528.5 c 128,-1,21
 341 540 341 540 358.5 540 c 128,-1,22
 376 540 376 540 389.5 532 c 128,-1,23
 403 524 403 524 421 507 c 128,-1,24
 439 490 439 490 476.5 459.5 c 128,-1,25
 514 429 514 429 530 411 c 128,-1,0
 546 393 546 393 546 376 c 128,-1,1
306 376 m 132,-1,27
 306 359 306 359 290 341 c 132,-1,28
 274 323 274 323 236.5 292.5 c 132,-1,29
 199 262 199 262 184.5 248.5 c 132,-1,30
 170 235 170 235 162 228 c 4,31,32
 142 212 142 212 121.5 212 c 132,-1,33
 101 212 101 212 89 223.5 c 132,-1,34
 77 235 77 235 77 250.5 c 132,-1,35
 77 266 77 266 87.5 277 c 132,-1,36
 98 288 98 288 126 306 c 132,-1,37
 154 324 154 324 158 327 c 4,38,39
 215 368 215 368 215 376 c 132,-1,40
 215 384 215 384 158 425 c 4,41,42
 150 431 150 431 132 442.5 c 132,-1,43
 114 454 114 454 104 461 c 4,44,45
 77 481 77 481 77 499 c 132,-1,46
 77 517 77 517 89 528.5 c 132,-1,47
 101 540 101 540 118.5 540 c 132,-1,48
 136 540 136 540 149.5 532 c 132,-1,49
 163 524 163 524 181 507 c 132,-1,50
 199 490 199 490 236.5 459.5 c 132,-1,51
 274 429 274 429 290 411 c 132,-1,26
 306 393 306 393 306 376 c 132,-1,27
EndSplineSet
Validated: 1
EndChar

StartChar: onequarter
Encoding: 188 188 126
Width: 927
GlyphClass: 2
Flags: W
LayerCount: 2
Fore
SplineSet
276 544 m 1,0,-1
 279 377 l 2,1,2
 279 356 279 356 267.5 343.5 c 128,-1,3
 256 331 256 331 237.5 331 c 128,-1,4
 219 331 219 331 207.5 343.5 c 128,-1,5
 196 356 196 356 196 377 c 2,6,7
 196 377 196 377 199 544 c 2,8,-1
 199 636 l 1,9,10
 182 619 182 619 163.5 598 c 128,-1,11
 145 577 145 577 136 567 c 0,12,13
 113 542 113 542 96 542 c 128,-1,14
 79 542 79 542 67.5 552.5 c 128,-1,15
 56 563 56 563 56 576.5 c 128,-1,16
 56 590 56 590 61 598.5 c 128,-1,17
 66 607 66 607 74 614 c 0,18,19
 114 652 114 652 141 683.5 c 128,-1,20
 168 715 168 715 174.5 722 c 128,-1,21
 181 729 181 729 190 738.5 c 128,-1,22
 199 748 199 748 204 752 c 0,23,24
 218 760 218 760 234 760 c 0,25,26
 279 760 279 760 279 703 c 2,27,-1
 276 544 l 1,0,-1
804 125 m 1,28,-1
 807 40 l 2,29,30
 807 -10 807 -10 767.5 -10 c 128,-1,31
 728 -10 728 -10 728 40 c 2,32,-1
 731 128 l 1,33,-1
 566 126 l 2,34,35
 544 126 544 126 534 137.5 c 128,-1,36
 524 149 524 149 524 163.5 c 128,-1,37
 524 178 524 178 540.5 202.5 c 128,-1,38
 557 227 557 227 597 278 c 128,-1,39
 637 329 637 329 644 338 c 128,-1,40
 651 347 651 347 663 362.5 c 128,-1,41
 675 378 675 378 686 392 c 0,42,43
 718 434 718 434 752 434 c 0,44,45
 775 434 775 434 791 415.5 c 128,-1,46
 807 397 807 397 807 371 c 0,47,48
 807 370 807 370 805.5 312 c 128,-1,49
 804 254 804 254 804 193 c 1,50,51
 808 194 808 194 818 194 c 0,52,53
 866 194 866 194 866 160 c 0,54,55
 866 124 866 124 814 124 c 1,56,-1
 804 125 l 1,28,-1
622 192 m 1,57,-1
 730 192 l 1,58,59
 731 226 731 226 731 332 c 1,60,61
 689 282 689 282 622 192 c 1,57,-1
545 531 m 128,-1,63
 510 442 510 442 485.5 374.5 c 128,-1,64
 461 307 461 307 374 47 c 0,65,66
 363 15 363 15 350.5 2.5 c 128,-1,67
 338 -10 338 -10 321 -10 c 128,-1,68
 304 -10 304 -10 291 1 c 128,-1,69
 278 12 278 12 278 30.5 c 128,-1,70
 278 49 278 49 292.5 89 c 128,-1,71
 307 129 307 129 341.5 216.5 c 128,-1,72
 376 304 376 304 402 375.5 c 128,-1,73
 428 447 428 447 467.5 566.5 c 128,-1,74
 507 686 507 686 515 710 c 0,75,76
 531 760 531 760 569 760 c 0,77,78
 583 760 583 760 596 749 c 128,-1,79
 609 738 609 738 609 719.5 c 128,-1,80
 609 701 609 701 594.5 660.5 c 128,-1,62
 580 620 580 620 545 531 c 128,-1,63
EndSplineSet
Validated: 1
EndChar

StartChar: onehalf
Encoding: 189 189 127
Width: 930
GlyphClass: 2
Flags: W
LayerCount: 2
Fore
SplineSet
676 70 m 1,0,-1
 813 75 l 2,1,2
 864 75 864 75 864 36 c 128,-1,3
 864 -3 864 -3 813 -3 c 2,4,-1
 710 1 l 1,5,6
 710 1 710 1 619 -3 c 0,7,8
 600 -3 600 -3 585.5 8.5 c 128,-1,9
 571 20 571 20 571 39 c 128,-1,10
 571 58 571 58 580.5 73 c 128,-1,11
 590 88 590 88 624 127.5 c 128,-1,12
 658 167 658 167 670.5 183.5 c 128,-1,13
 683 200 683 200 697 217 c 128,-1,14
 711 234 711 234 718 243.5 c 128,-1,15
 725 253 725 253 736 268 c 0,16,17
 756 299 756 299 756 316.5 c 128,-1,18
 756 334 756 334 743 346 c 128,-1,19
 730 358 730 358 705 358 c 128,-1,20
 680 358 680 358 657.5 336 c 128,-1,21
 635 314 635 314 619 314 c 128,-1,22
 603 314 603 314 593 324 c 128,-1,23
 583 334 583 334 583 354 c 128,-1,24
 583 374 583 374 620 402 c 128,-1,25
 657 430 657 430 714 430 c 128,-1,26
 771 430 771 430 805 398 c 128,-1,27
 839 366 839 366 839 328.5 c 128,-1,28
 839 291 839 291 812 247.5 c 128,-1,29
 785 204 785 204 738 147.5 c 128,-1,30
 691 91 691 91 676 70 c 1,0,-1
276 544 m 1,31,-1
 279 377 l 2,32,33
 279 356 279 356 267.5 343.5 c 128,-1,34
 256 331 256 331 237.5 331 c 128,-1,35
 219 331 219 331 207.5 343.5 c 128,-1,36
 196 356 196 356 196 377 c 2,37,-1
 199 544 l 1,38,-1
 199 636 l 1,39,40
 182 619 182 619 163.5 598 c 128,-1,41
 145 577 145 577 136 567 c 0,42,43
 113 542 113 542 96 542 c 128,-1,44
 79 542 79 542 67.5 552.5 c 128,-1,45
 56 563 56 563 56 576.5 c 128,-1,46
 56 590 56 590 61 598.5 c 128,-1,47
 66 607 66 607 74 614 c 0,48,49
 114 652 114 652 141 683.5 c 128,-1,50
 168 715 168 715 174.5 722 c 128,-1,51
 181 729 181 729 190 738.5 c 128,-1,52
 199 748 199 748 204 752 c 0,53,54
 218 760 218 760 234 760 c 0,55,56
 279 760 279 760 279 703 c 2,57,-1
 276 544 l 1,31,-1
545 531 m 128,-1,59
 510 442 510 442 485.5 374.5 c 128,-1,60
 461 307 461 307 374 47 c 0,61,62
 363 15 363 15 350.5 2.5 c 128,-1,63
 338 -10 338 -10 321 -10 c 128,-1,64
 304 -10 304 -10 291 1 c 128,-1,65
 278 12 278 12 278 30.5 c 128,-1,66
 278 49 278 49 292.5 89 c 128,-1,67
 307 129 307 129 341.5 216.5 c 128,-1,68
 376 304 376 304 402 375.5 c 128,-1,69
 428 447 428 447 467.5 566.5 c 128,-1,70
 507 686 507 686 515 710 c 0,71,72
 531 760 531 760 569 760 c 0,73,74
 583 760 583 760 596 749 c 128,-1,75
 609 738 609 738 609 719.5 c 128,-1,76
 609 701 609 701 594.5 660.5 c 128,-1,58
 580 620 580 620 545 531 c 128,-1,59
EndSplineSet
Validated: 1
EndChar

StartChar: threequarters
Encoding: 190 190 128
Width: 978
GlyphClass: 2
Flags: W
LayerCount: 2
Fore
SplineSet
208 750 m 1,0,-1
 283 752 l 2,1,2
 346 752 346 752 346 709 c 0,3,4
 346 683 346 683 289 630 c 0,5,6
 264 606 264 606 257 598 c 1,7,8
 309 584 309 584 337.5 547.5 c 128,-1,9
 366 511 366 511 366 459 c 128,-1,10
 366 407 366 407 320 363 c 128,-1,11
 274 319 274 319 198 319 c 0,12,13
 149 319 149 319 109 350.5 c 128,-1,14
 69 382 69 382 69 407 c 0,15,16
 69 442 69 442 102 442 c 0,17,18
 116 442 116 442 129 430 c 128,-1,19
 142 418 142 418 160 405.5 c 128,-1,20
 178 393 178 393 209 393 c 128,-1,21
 240 393 240 393 262.5 412.5 c 128,-1,22
 285 432 285 432 285 464 c 128,-1,23
 285 496 285 496 263.5 517.5 c 128,-1,24
 242 539 242 539 210 543 c 1,25,26
 189 511 189 511 151 511 c 0,27,28
 132 511 132 511 119.5 521.5 c 128,-1,29
 107 532 107 532 107 549.5 c 128,-1,30
 107 567 107 567 122.5 582 c 128,-1,31
 138 597 138 597 169 604 c 1,32,33
 222 656 222 656 243 679 c 1,34,-1
 124 678 l 2,35,36
 77 678 77 678 77 713 c 0,37,38
 77 731 77 731 89.5 741.5 c 128,-1,39
 102 752 102 752 124 752 c 2,40,-1
 208 750 l 1,0,-1
857 125 m 1,41,-1
 860 40 l 2,42,43
 860 -10 860 -10 820.5 -10 c 128,-1,44
 781 -10 781 -10 781 40 c 2,45,-1
 784 128 l 1,46,-1
 619 126 l 2,47,48
 597 126 597 126 587 137.5 c 128,-1,49
 577 149 577 149 577 163.5 c 128,-1,50
 577 178 577 178 593.5 202.5 c 128,-1,51
 610 227 610 227 650 278 c 128,-1,52
 690 329 690 329 697 338 c 128,-1,53
 704 347 704 347 716 362.5 c 128,-1,54
 728 378 728 378 739 392 c 0,55,56
 771 434 771 434 805 434 c 0,57,58
 828 434 828 434 844 415.5 c 128,-1,59
 860 397 860 397 860 371 c 0,60,61
 860 370 860 370 858.5 312 c 128,-1,62
 857 254 857 254 857 193 c 1,63,64
 861 194 861 194 871 194 c 0,65,66
 919 194 919 194 919 160 c 0,67,68
 919 124 919 124 867 124 c 1,69,-1
 857 125 l 1,41,-1
675 192 m 1,70,-1
 783 192 l 1,71,72
 784 226 784 226 784 332 c 1,73,74
 742 282 742 282 675 192 c 1,70,-1
598 531 m 128,-1,76
 563 442 563 442 538.5 374.5 c 128,-1,77
 514 307 514 307 427 47 c 0,78,79
 416 15 416 15 403.5 2.5 c 128,-1,80
 391 -10 391 -10 374 -10 c 128,-1,81
 357 -10 357 -10 344 1 c 128,-1,82
 331 12 331 12 331 30.5 c 128,-1,83
 331 49 331 49 345.5 89 c 128,-1,84
 360 129 360 129 394.5 216.5 c 128,-1,85
 429 304 429 304 455 375.5 c 128,-1,86
 481 447 481 447 520.5 566.5 c 128,-1,87
 560 686 560 686 568 710 c 0,88,89
 584 760 584 760 622 760 c 0,90,91
 636 760 636 760 649 749 c 128,-1,92
 662 738 662 738 662 719.5 c 128,-1,93
 662 701 662 701 647.5 660.5 c 128,-1,75
 633 620 633 620 598 531 c 128,-1,76
EndSplineSet
Validated: 1
EndChar

StartChar: questiondown
Encoding: 191 191 129
Width: 513
GlyphClass: 2
Flags: W
LayerCount: 2
Fore
SplineSet
62 101 m 0,0,1
 62 139 62 139 78.5 175 c 128,-1,2
 95 211 95 211 110.5 229.5 c 128,-1,3
 126 248 126 248 158 281 c 1,4,5
 188 306 188 306 203.5 320.5 c 128,-1,6
 219 335 219 335 233.5 359 c 128,-1,7
 248 383 248 383 248 407 c 0,8,9
 248 473 248 473 293 473 c 0,10,11
 313 473 313 473 326 455.5 c 128,-1,12
 339 438 339 438 339 409 c 128,-1,13
 339 380 339 380 331 356 c 128,-1,14
 323 332 323 332 304 308 c 0,15,16
 278 278 278 278 230 235 c 1,17,18
 206 208 206 208 194 193 c 128,-1,19
 182 178 182 178 170 152 c 128,-1,20
 158 126 158 126 158 101 c 0,21,22
 158 58 158 58 190.5 30.5 c 128,-1,23
 223 3 223 3 264 3 c 0,24,25
 325 3 325 3 369 47 c 0,26,27
 393 75 393 75 412.5 75 c 128,-1,28
 432 75 432 75 443 62.5 c 128,-1,29
 454 50 454 50 454 33 c 0,30,31
 454 -5 454 -5 396.5 -45 c 128,-1,32
 339 -85 339 -85 269 -85 c 0,33,34
 177 -85 177 -85 119.5 -31.5 c 128,-1,35
 62 22 62 22 62 101 c 0,0,1
254 586 m 128,-1,37
 241 603 241 603 241 628.5 c 128,-1,38
 241 654 241 654 258 675 c 128,-1,39
 275 696 275 696 299 696 c 128,-1,40
 323 696 323 696 336.5 677.5 c 128,-1,41
 350 659 350 659 350 634 c 128,-1,42
 350 609 350 609 333.5 589 c 128,-1,43
 317 569 317 569 292 569 c 128,-1,36
 267 569 267 569 254 586 c 128,-1,37
EndSplineSet
Validated: 1
EndChar

StartChar: Agrave
Encoding: 192 192 130
Width: 583
GlyphClass: 2
Flags: W
LayerCount: 2
Fore
SplineSet
336 310 m 1,0,-1
 252 313 l 1,1,2
 258 224 258 224 242 180 c 0,3,4
 226 135 226 135 200 86 c 1,5,6
 231 82 231 82 287 82 c 0,7,8
 345 82 345 82 394 86 c 0,9,10
 449.5 89 449.5 89 466 89 c 0,11,12
 483 89 483 89 500 76 c 0,13,14
 516 63 516 63 516 42 c 0,15,16
 516 20 516 20 500 8 c 0,17,18
 481 -6 481 -6 456 -5 c 2,19,-1
 301 0 l 1,20,-1
 147 -5 l 2,21,22
 120 -6.5 120 -6.5 102 10 c 0,23,24
 86 25 86 25 86 53 c 0,25,26
 86 80 86 80 104 112 c 0,27,28
 120 137 120 137 142 182 c 0,29,30
 160 219 160 219 162 258 c 0,31,32
 162 300 162 300 161 311 c 1,33,34
 156 310 156 310 130 310 c 0,35,36
 75 310 75 310 75 350 c 0,37,38
 75 391 75 391 128 391 c 0,39,40
 134 391 134 391 139 390 c 2,41,-1
 149 390 l 2,42,43
 148 393 148 393 138 437 c 0,44,45
 122 502 122 502 122 544 c 0,46,47
 122 663 122 663 174 712 c 0,48,49
 227 761 227 761 319 761 c 1,50,-1
 312 666 l 1,51,52
 269 666 269 666 244 643 c 0,53,54
 218 621 218 621 218 564 c 0,55,56
 218 511 218 511 241 388 c 1,57,-1
 336 391 l 1,58,-1
 356 380 l 2,59,60
 370 369 370 369 370 351 c 0,61,62
 370 328 370 328 356 322 c 2,63,-1
 336 310 l 1,0,-1
EndSplineSet
Refer: 67 96 N 1 0 0 1 151 250 2
EndChar

StartChar: Aacute
Encoding: 193 193 131
Width: 692
GlyphClass: 2
Flags: W
LayerCount: 2
Fore
SplineSet
476 241 m 1,0,-1
 347 244 l 2,1,2
 251 244 251 244 207 242 c 1,3,4
 196 209 196 209 175.5 138.5 c 128,-1,5
 155 68 155 68 142 29 c 128,-1,6
 129 -10 129 -10 96 -10 c 0,7,8
 77 -10 77 -10 65.5 2 c 128,-1,9
 54 14 54 14 54 28.5 c 128,-1,10
 54 43 54 43 55.5 52 c 128,-1,11
 57 61 57 61 62.5 79 c 128,-1,12
 68 97 68 97 74 113 c 0,13,14
 103 199 103 199 116 239 c 1,15,16
 87 239 87 239 70.5 251.5 c 128,-1,17
 54 264 54 264 54 285 c 0,18,19
 54 332 54 332 128 332 c 2,20,-1
 146 332 l 1,21,22
 242 600 242 600 256.5 638.5 c 128,-1,23
 271 677 271 677 273 683 c 128,-1,24
 275 689 275 689 279.5 700.5 c 128,-1,25
 284 712 284 712 287.5 717.5 c 128,-1,26
 291 723 291 723 296 731 c 128,-1,27
 301 739 301 739 305.5 743.5 c 128,-1,28
 310 748 310 748 316 752 c 0,29,30
 329 760 329 760 343.5 760 c 128,-1,31
 358 760 358 760 367 757 c 128,-1,32
 376 754 376 754 384 746 c 128,-1,33
 392 738 392 738 397.5 729 c 128,-1,34
 403 720 403 720 410.5 701 c 128,-1,35
 418 682 418 682 424 666 c 0,36,37
 472 519 472 519 544 332 c 1,38,-1
 580 333 l 2,39,40
 606 333 606 333 622.5 319 c 128,-1,41
 639 305 639 305 639 284 c 0,42,43
 639 240 639 240 573 237 c 1,44,45
 583 205 583 205 600 156 c 0,46,47
 639 50 639 50 639 33.5 c 128,-1,48
 639 17 639 17 627.5 3.5 c 128,-1,49
 616 -10 616 -10 596 -10 c 0,50,51
 560 -10 560 -10 544 29 c 0,52,53
 527 78 527 78 476 241 c 1,0,-1
232 328 m 1,54,55
 296 326 296 326 355.5 326 c 128,-1,56
 415 326 415 326 451 328 c 1,57,58
 346 630 346 630 344 630 c 0,59,60
 338 630 338 630 258 404 c 2,61,-1
 232 328 l 1,54,55
466 946 m 0,62,63
 466 902 466 902 418.5 857.5 c 128,-1,64
 371 813 371 813 339 813 c 0,65,66
 323 813 323 813 314.5 821 c 128,-1,67
 306 829 306 829 306 841 c 128,-1,68
 306 853 306 853 330 882.5 c 128,-1,69
 354 912 354 912 363 932 c 128,-1,70
 372 952 372 952 377.5 961.5 c 128,-1,71
 383 971 383 971 395.5 980.5 c 128,-1,72
 408 990 408 990 425.5 990 c 128,-1,73
 443 990 443 990 454.5 976.5 c 128,-1,74
 466 963 466 963 466 946 c 0,62,63
EndSplineSet
Validated: 1
EndChar

StartChar: Acircumflex
Encoding: 194 194 132
Width: 583
GlyphClass: 2
Flags: W
LayerCount: 2
Fore
SplineSet
336 310 m 1,0,-1
 252 313 l 1,1,2
 258 224 258 224 242 180 c 0,3,4
 226 135 226 135 200 86 c 1,5,6
 231 82 231 82 287 82 c 0,7,8
 345 82 345 82 394 86 c 0,9,10
 449.5 89 449.5 89 466 89 c 0,11,12
 483 89 483 89 500 76 c 0,13,14
 516 63 516 63 516 42 c 0,15,16
 516 20 516 20 500 8 c 0,17,18
 481 -6 481 -6 456 -5 c 2,19,-1
 301 0 l 1,20,-1
 147 -5 l 2,21,22
 120 -6.5 120 -6.5 102 10 c 0,23,24
 86 25 86 25 86 53 c 0,25,26
 86 80 86 80 104 112 c 0,27,28
 120 137 120 137 142 182 c 0,29,30
 160 219 160 219 162 258 c 0,31,32
 162 300 162 300 161 311 c 1,33,34
 156 310 156 310 130 310 c 0,35,36
 75 310 75 310 75 350 c 0,37,38
 75 391 75 391 128 391 c 0,39,40
 134 391 134 391 139 390 c 2,41,-1
 149 390 l 2,42,43
 148 393 148 393 138 437 c 0,44,45
 122 502 122 502 122 544 c 0,46,47
 122 663 122 663 174 712 c 0,48,49
 227 761 227 761 319 761 c 1,50,-1
 312 666 l 1,51,52
 269 666 269 666 244 643 c 0,53,54
 218 621 218 621 218 564 c 0,55,56
 218 511 218 511 241 388 c 1,57,-1
 336 391 l 1,58,-1
 356 380 l 2,59,60
 370 369 370 369 370 351 c 0,61,62
 370 328 370 328 356 322 c 2,63,-1
 336 310 l 1,0,-1
EndSplineSet
Refer: 220 710 N 1 0 0 1 106 250 2
EndChar

StartChar: Atilde
Encoding: 195 195 133
Width: 692
GlyphClass: 2
Flags: W
LayerCount: 2
Fore
SplineSet
476 241 m 1,0,-1
 347 244 l 2,1,2
 251 244 251 244 207 242 c 1,3,4
 196 209 196 209 175.5 138.5 c 128,-1,5
 155 68 155 68 142 29 c 128,-1,6
 129 -10 129 -10 96 -10 c 0,7,8
 77 -10 77 -10 65.5 2 c 128,-1,9
 54 14 54 14 54 28.5 c 128,-1,10
 54 43 54 43 55.5 52 c 128,-1,11
 57 61 57 61 62.5 79 c 128,-1,12
 68 97 68 97 74 113 c 0,13,14
 103 199 103 199 116 239 c 1,15,16
 87 239 87 239 70.5 251.5 c 128,-1,17
 54 264 54 264 54 285 c 0,18,19
 54 332 54 332 128 332 c 2,20,-1
 146 332 l 1,21,22
 242 600 242 600 256.5 638.5 c 128,-1,23
 271 677 271 677 273 683 c 128,-1,24
 275 689 275 689 279.5 700.5 c 128,-1,25
 284 712 284 712 287.5 717.5 c 128,-1,26
 291 723 291 723 296 731 c 128,-1,27
 301 739 301 739 305.5 743.5 c 128,-1,28
 310 748 310 748 316 752 c 0,29,30
 329 760 329 760 343.5 760 c 128,-1,31
 358 760 358 760 367 757 c 128,-1,32
 376 754 376 754 384 746 c 128,-1,33
 392 738 392 738 397.5 729 c 128,-1,34
 403 720 403 720 410.5 701 c 128,-1,35
 418 682 418 682 424 666 c 0,36,37
 472 519 472 519 544 332 c 1,38,-1
 580 333 l 2,39,40
 606 333 606 333 622.5 319 c 128,-1,41
 639 305 639 305 639 284 c 0,42,43
 639 240 639 240 573 237 c 1,44,45
 583 205 583 205 600 156 c 0,46,47
 639 50 639 50 639 33.5 c 128,-1,48
 639 17 639 17 627.5 3.5 c 128,-1,49
 616 -10 616 -10 596 -10 c 0,50,51
 560 -10 560 -10 544 29 c 0,52,53
 527 78 527 78 476 241 c 1,0,-1
232 328 m 1,54,55
 296 326 296 326 355.5 326 c 128,-1,56
 415 326 415 326 451 328 c 1,57,58
 346 630 346 630 344 630 c 0,59,60
 338 630 338 630 258 404 c 2,61,-1
 232 328 l 1,54,55
544 915 m 0,62,63
 544 879 544 879 513 852 c 128,-1,64
 482 825 482 825 443 825 c 128,-1,65
 404 825 404 825 350 856 c 0,66,67
 306 878 306 878 284 878 c 128,-1,68
 262 878 262 878 237.5 848.5 c 128,-1,69
 213 819 213 819 192.5 819 c 128,-1,70
 172 819 172 819 159.5 831.5 c 128,-1,71
 147 844 147 844 147 862 c 0,72,73
 147 898 147 898 184 926.5 c 128,-1,74
 221 955 221 955 270 955 c 128,-1,75
 319 955 319 955 372 927.5 c 128,-1,76
 425 900 425 900 442.5 900 c 128,-1,77
 460 900 460 900 480.5 925 c 128,-1,78
 501 950 501 950 514.5 950 c 128,-1,79
 528 950 528 950 536 939.5 c 128,-1,80
 544 929 544 929 544 915 c 0,62,63
EndSplineSet
Validated: 1
EndChar

StartChar: Adieresis
Encoding: 196 196 134
Width: 583
GlyphClass: 2
Flags: W
LayerCount: 2
Fore
SplineSet
336 310 m 1,0,-1
 252 313 l 1,1,2
 258 224 258 224 242 180 c 0,3,4
 226 135 226 135 200 86 c 1,5,6
 231 82 231 82 287 82 c 0,7,8
 345 82 345 82 394 86 c 0,9,10
 449.5 89 449.5 89 466 89 c 0,11,12
 483 89 483 89 500 76 c 0,13,14
 516 63 516 63 516 42 c 0,15,16
 516 20 516 20 500 8 c 0,17,18
 481 -6 481 -6 456 -5 c 2,19,-1
 301 0 l 1,20,-1
 147 -5 l 2,21,22
 120 -6.5 120 -6.5 102 10 c 0,23,24
 86 25 86 25 86 53 c 0,25,26
 86 80 86 80 104 112 c 0,27,28
 120 137 120 137 142 182 c 0,29,30
 160 219 160 219 162 258 c 0,31,32
 162 300 162 300 161 311 c 1,33,34
 156 310 156 310 130 310 c 0,35,36
 75 310 75 310 75 350 c 0,37,38
 75 391 75 391 128 391 c 0,39,40
 134 391 134 391 139 390 c 2,41,-1
 149 390 l 2,42,43
 148 393 148 393 138 437 c 0,44,45
 122 502 122 502 122 544 c 0,46,47
 122 663 122 663 174 712 c 0,48,49
 227 761 227 761 319 761 c 1,50,-1
 312 666 l 1,51,52
 269 666 269 666 244 643 c 0,53,54
 218 621 218 621 218 564 c 0,55,56
 218 511 218 511 241 388 c 1,57,-1
 336 391 l 1,58,-1
 356 380 l 2,59,60
 370 369 370 369 370 351 c 0,61,62
 370 328 370 328 356 322 c 2,63,-1
 336 310 l 1,0,-1
EndSplineSet
Refer: 106 168 N 1 0 0 1 108 250 2
EndChar

StartChar: Aring
Encoding: 197 197 135
Width: 355
GlyphClass: 2
Flags: W
LayerCount: 2
Fore
SplineSet
121.927734375 -0.591796875 m 128,-1,1
 118.353515625 2.5107421875 118.353515625 2.5107421875 115.41796875 6.83984375 c 0,2,3
 103 20.7880859375 103 20.7880859375 103 40.4892578125 c 2,4,-1
 103.0625 55.7802734375 l 2,5,6
 103.125976562 63.4296875 103.125976562 63.4296875 103.25 71.0791015625 c 0,7,8
 103.313476562 74.904296875 103.313476562 74.904296875 103.391601562 78.728515625 c 128,-1,9
 103.470703125 82.552734375 103.470703125 82.552734375 103.564453125 86.3779296875 c 128,-1,10
 103.659179688 90.203125 103.659179688 90.203125 103.768554688 94.0244140625 c 128,-1,11
 103.877929688 97.84765625 103.877929688 97.84765625 104.002929688 101.672851562 c 0,12,13
 109 256.002929688 109 256.002929688 109 375.862304688 c 2,14,-1
 109 431.568359375 l 1,15,-1
 109 434.720703125 l 1,16,-1
 105.881835938 434.598632812 l 1,17,-1
 65.1376953125 433 l 2,18,19
 61.611328125 433 61.611328125 433 58.3720703125 433.265625 c 128,-1,20
 55.1337890625 433.532226562 55.1337890625 433.532226562 52.130859375 434.0703125 c 128,-1,21
 49.1279296875 434.609375 49.1279296875 434.609375 46.3427734375 435.426757812 c 0,22,23
 44.26171875 436.037109375 44.26171875 436.037109375 42.3212890625 436.791992188 c 128,-1,24
 40.380859375 437.546875 40.380859375 437.546875 38.5771484375 438.44921875 c 128,-1,25
 36.7724609375 439.3515625 36.7724609375 439.3515625 35.1064453125 440.403320312 c 128,-1,26
 33.4404296875 441.455078125 33.4404296875 441.455078125 31.921875 442.651367188 c 0,27,28
 29.931640625 444.219726562 29.931640625 444.219726562 28.2666015625 446.022460938 c 128,-1,29
 26.6015625 447.825195312 26.6015625 447.825195312 25.2685546875 449.860351562 c 128,-1,30
 23.9345703125 451.89453125 23.9345703125 451.89453125 22.9443359375 454.146484375 c 0,31,32
 20 460.841796875 20 460.841796875 20 470 c 0,33,34
 20 489.564453125 20 489.564453125 33.8828125 499.66015625 c 0,35,36
 46.7236328125 509 46.7236328125 509 65.140625 509 c 2,37,-1
 104.879882812 507.41015625 l 1,38,-1
 108 507.286132812 l 1,39,-1
 108 510.46484375 l 1,40,-1
 108 583.095703125 l 2,41,42
 108 629.674804688 108 629.674804688 117.791992188 663.266601562 c 0,43,44
 122.703125 680.119140625 122.703125 680.119140625 129.861328125 693.763671875 c 128,-1,45
 137.01953125 707.408203125 137.01953125 707.408203125 146.689152644 717.827148438 c 2,46,-1
 146.737830529 717.877929688 l 1,47,-1
 146.789550781 717.92578125 l 2,48,49
 192.197904147 760 192.197904147 760 249.799804688 760 c 0,50,51
 262.61328125 760 262.61328125 760 274.18359375 758.813476562 c 128,-1,52
 285.752929688 757.626953125 285.752929688 757.626953125 296.0859375 755.248046875 c 0,53,54
 316.813476562 750.474609375 316.813476562 750.474609375 332.59375 741.0078125 c 0,55,56
 368 719.985351562 368 719.985351562 368 695 c 0,57,58
 368 655 368 655 333 655 c 0,59,60
 331.217773438 655 331.217773438 655 329.361328125 655.171875 c 128,-1,61
 327.50390625 655.342773438 327.50390625 655.342773438 325.58984375 655.681640625 c 128,-1,62
 323.674804688 656.020507812 323.674804688 656.020507812 321.68359375 656.52734375 c 0,63,64
 318.622070312 657.307617188 318.622070312 657.307617188 315.534179688 658.388671875 c 128,-1,65
 312.4453125 659.46875 312.4453125 659.46875 309.33203125 660.84765625 c 2,66,-1
 295.52734375 667.921875 l 1,67,-1
 285.84765625 672.8046875 l 2,68,69
 284.256835938 673.499023438 284.256835938 673.499023438 282.67578125 674.11328125 c 128,-1,70
 281.095703125 674.728515625 281.095703125 674.728515625 279.528320312 675.262695312 c 128,-1,71
 277.961914062 675.796875 277.961914062 675.796875 276.40625 676.251953125 c 2,72,-1
 267.11328125 678.3125 l 2,73,74
 264.811523438 678.65625 264.811523438 678.65625 262.534179688 678.828125 c 128,-1,75
 260.255859375 679 260.255859375 679 258 679 c 0,76,77
 238.067683293 679 238.067683293 679 224.492638221 667.569335938 c 128,-1,78
 210.917593149 656.138671875 210.917593149 656.138671875 203.969839243 632.603515625 c 128,-1,79
 197.021071214 609.068359375 197.021071214 609.068359375 197.021071214 573.407226562 c 2,80,-1
 197.021071214 510.287109375 l 1,81,-1
 197.021071214 507.155273438 l 1,82,-1
 199.712552584 507.208984375 l 1,83,-1
 292.923828125 509 l 2,84,85
 295.234375 509 295.234375 509 297.44140625 508.85546875 c 128,-1,86
 299.649414062 508.7109375 299.649414062 508.7109375 301.770507812 508.420898438 c 128,-1,87
 303.890625 508.130859375 303.890625 508.130859375 305.922851562 507.692382812 c 128,-1,88
 307.956054688 507.254882812 307.956054688 507.254882812 309.907226562 506.66796875 c 0,89,90
 317.708007812 504.322265625 317.708007812 504.322265625 324.118164062 499.66015625 c 0,91,92
 331.124023438 494.565429688 331.124023438 494.565429688 334.576171875 487.23828125 c 0,93,94
 335.7265625 484.796875 335.7265625 484.796875 336.489257812 482.05078125 c 128,-1,95
 337.251953125 479.3046875 337.251953125 479.3046875 337.625976562 476.301757812 c 128,-1,96
 338 473.298828125 338 473.298828125 338 470 c 0,97,98
 338 468.171875 338 468.171875 337.881835938 466.440429688 c 128,-1,99
 337.763671875 464.709960938 337.763671875 464.709960938 337.526367188 463.075195312 c 128,-1,100
 337.288085938 461.435546875 337.288085938 461.435546875 336.931640625 459.892578125 c 128,-1,101
 336.576171875 458.350585938 336.576171875 458.350585938 336.1015625 456.907226562 c 2,102,-1
 333.6953125 451.44921875 l 1,103,-1
 330.340820312 446.713867188 l 2,104,105
 329.393554688 445.627929688 329.393554688 445.627929688 328.325195312 444.616210938 c 128,-1,106
 327.255859375 443.603515625 327.255859375 443.603515625 326.067382812 442.666992188 c 0,107,108
 319.990234375 437.874023438 319.990234375 437.874023438 311.66796875 435.422851562 c 128,-1,109
 303.438476562 433 303.438476562 433 292.923828125 433 c 2,110,-1
 199.709510216 434.791015625 l 1,111,-1
 197.021071214 434.844726562 l 1,112,-1
 197.021071214 431.760742188 l 1,113,-1
 197.021071214 375.862304688 l 2,114,115
 197.021071214 241.231445312 197.021071214 241.231445312 200.416353666 147.869140625 c 0,116,117
 202.120079627 101.021484375 202.120079627 101.021484375 202.96890024 74.236328125 c 128,-1,118
 203.818734976 47.4501953125 203.818734976 47.4501953125 203.818734976 40.48046875 c 0,119,120
 203.818734976 31.0693359375 203.818734976 31.0693359375 200.101975661 22.373046875 c 128,-1,121
 196.354792668 13.60546875 196.354792668 13.60546875 189.945537861 7.2490234375 c 0,122,123
 182.818284255 -0.1142578125 182.818284255 -0.1142578125 182.350773738 -0.478515625 c 0,124,125
 178.293269231 -3.6572265625 178.293269231 -3.6572265625 173.372746394 -5.7734375 c 0,126,127
 170.052509014 -7.1865234375 170.052509014 -7.1865234375 166.44121845 -8.126953125 c 128,-1,128
 162.829927885 -9.0673828125 162.829927885 -9.0673828125 158.963078425 -9.5341796875 c 128,-1,129
 155.095214844 -10 155.095214844 -10 150.951509916 -10 c 0,130,131
 145.006723257 -10 145.006723257 -10 139.80859375 -8.9736328125 c 2,132,-1
 129.985351562 -5.84375 l 2,133,0
 125.510742188 -3.716796875 125.510742188 -3.716796875 121.927734375 -0.591796875 c 128,-1,1
EndSplineSet
EndChar

StartChar: AE
Encoding: 198 198 136
Width: 891
GlyphClass: 2
Flags: W
LayerCount: 2
Fore
SplineSet
338 623 m 1,0,1
 332 623 332 623 257 402 c 2,2,-1
 232 328 l 1,3,4
 280 325 280 325 310 325 c 128,-1,5
 340 325 340 325 360.5 325.5 c 128,-1,6
 381 326 381 326 392 326 c 1,7,8
 353 563 353 563 338 623 c 1,0,1
676 0 m 1,9,-1
 503 -5 l 2,10,11
 445 -5 445 -5 436 44 c 0,12,13
 420 131 420 131 403 242 c 1,14,15
 377 243 377 243 303 243 c 128,-1,16
 229 243 229 243 207 242 c 1,17,18
 196 209 196 209 175.5 138.5 c 128,-1,19
 155 68 155 68 142 29 c 128,-1,20
 129 -10 129 -10 96 -10 c 0,21,22
 77 -10 77 -10 65.5 2 c 128,-1,23
 54 14 54 14 54 28.5 c 128,-1,24
 54 43 54 43 55.5 52 c 128,-1,25
 57 61 57 61 62.5 79 c 128,-1,26
 68 97 68 97 74 113 c 0,27,28
 103 199 103 199 116 239 c 1,29,30
 87 239 87 239 70.5 251.5 c 128,-1,31
 54 264 54 264 54 285 c 0,32,33
 54 332 54 332 128 332 c 2,34,-1
 146 332 l 1,35,36
 203 492 203 492 231.5 569 c 128,-1,37
 260 646 260 646 265 660.5 c 128,-1,38
 270 675 270 675 273.5 684.5 c 128,-1,39
 277 694 277 694 284.5 708.5 c 128,-1,40
 292 723 292 723 300 732 c 0,41,42
 319 755 319 755 341 755 c 2,43,-1
 548 750 l 1,44,-1
 677 756 l 2,45,46
 704 756 704 756 720.5 743.5 c 128,-1,47
 737 731 737 731 737 709 c 128,-1,48
 737 687 737 687 720.5 674.5 c 128,-1,49
 704 662 704 662 677 662 c 2,50,-1
 548 668 l 2,51,52
 476 668 476 668 419 663 c 1,53,54
 420 662 420 662 459 446 c 1,55,56
 493 444 493 444 533 444 c 2,57,-1
 682 449 l 2,58,59
 709 449 709 449 725 436.5 c 128,-1,60
 741 424 741 424 741 403 c 0,61,62
 741 359 741 359 682 359 c 2,63,-1
 533 363 l 2,64,65
 495 363 495 363 475 362 c 1,66,67
 518 124 518 124 527 89 c 1,68,69
 606 82 606 82 676 82 c 2,70,-1
 805 88 l 2,71,72
 832 88 832 88 848.5 75.5 c 128,-1,73
 865 63 865 63 865 41 c 128,-1,74
 865 19 865 19 848.5 6.5 c 128,-1,75
 832 -6 832 -6 805 -6 c 2,76,-1
 676 0 l 1,9,-1
EndSplineSet
Validated: 1
EndChar

StartChar: Ccedilla
Encoding: 199 199 137
Width: 708
GlyphClass: 2
Flags: W
LayerCount: 2
Fore
SplineSet
515 -133 m 0,0,1
 515 -175 515 -175 477.5 -202.5 c 128,-1,2
 440 -230 440 -230 388 -230 c 128,-1,3
 336 -230 336 -230 304.5 -205.5 c 128,-1,4
 273 -181 273 -181 273 -155 c 0,5,6
 273 -146 273 -146 280.5 -138 c 128,-1,7
 288 -130 288 -130 299.5 -130 c 128,-1,8
 311 -130 311 -130 336.5 -142 c 128,-1,9
 362 -154 362 -154 381 -154 c 128,-1,10
 400 -154 400 -154 412 -147 c 128,-1,11
 424 -140 424 -140 424 -131 c 128,-1,12
 424 -122 424 -122 409.5 -111.5 c 128,-1,13
 395 -101 395 -101 378 -90.5 c 128,-1,14
 361 -80 361 -80 346 -57.5 c 128,-1,15
 331 -35 331 -35 331 -6 c 1,16,17
 215 22 215 22 143.5 128.5 c 128,-1,18
 72 235 72 235 72 376 c 0,19,20
 72 539 72 539 167.5 652 c 128,-1,21
 263 765 263 765 407 765 c 0,22,23
 495 765 495 765 564.5 732 c 128,-1,24
 634 699 634 699 634 658 c 0,25,26
 634 638 634 638 622 626 c 128,-1,27
 610 614 610 614 590.5 614 c 128,-1,28
 571 614 571 614 535 637 c 0,29,30
 477 678 477 678 407 678 c 0,31,32
 303 678 303 678 235.5 588.5 c 128,-1,33
 168 499 168 499 168 376.5 c 128,-1,34
 168 254 168 254 235.5 163 c 128,-1,35
 303 72 303 72 401 72 c 128,-1,36
 499 72 499 72 580 121 c 0,37,38
 613 139 613 139 624.5 139 c 128,-1,39
 636 139 636 139 645.5 129.5 c 128,-1,40
 655 120 655 120 655 106 c 0,41,42
 655 71 655 71 583 29 c 128,-1,43
 511 -13 511 -13 412 -15 c 1,44,45
 415 -32 415 -32 441 -49 c 128,-1,46
 467 -66 467 -66 491 -86 c 128,-1,47
 515 -106 515 -106 515 -133 c 0,0,1
EndSplineSet
Validated: 1
EndChar

StartChar: Egrave
Encoding: 200 200 138
Width: 696
GlyphClass: 2
Flags: W
LayerCount: 2
Fore
SplineSet
328 311 m 1,0,1
 312 285 312 285 260 202 c 0,2,3
 242 172 242 172 223 141.5 c 0,4,5
 204 111 204 111 202 108 c 0,6,7
 199 104 199 104 191.5 92.5 c 0,8,9
 184 81 184 81 180 75 c 0,10,11
 177 70 177 70 174 65 c 0,12,13
 171 60 171 60 168.5 55.5 c 0,14,15
 166 51 166 51 165 50 c 2,16,-1
 152 31 l 2,17,18
 141 15 141 15 131 6 c 0,19,20
 115 -10 115 -10 96 -10 c 0,21,22
 79 -10 79 -10 67 2 c 0,23,24
 55 14 55 14 55 28 c 0,25,26
 55 43 55 43 62 56 c 0,27,28
 67 68 67 68 86 100 c 0,29,30
 92 108 92 108 98.5 118 c 0,31,32
 105 128 105 128 113 140.5 c 0,33,34
 121 153 121 153 126 160 c 0,35,36
 221 296 221 296 278 387 c 1,37,38
 185 552 185 552 130 636 c 0,39,40
 106 672 106 672 74 672 c 0,41,42
 56 672 56 672 52 678 c 0,43,44
 48 683 48 683 48 695 c 0,45,46
 48 726 48 726 66 744 c 0,47,48
 85 763 85 763 110 763 c 0,49,50
 137 763 137 763 154 750 c 0,51,52
 174 737 174 737 201 698 c 0,53,54
 217 673 217 673 336 465 c 1,55,56
 343 476 343 476 366.5 515 c 0,57,58
 390 554 390 554 408 582 c 0,59,60
 454 662 454 662 464 676 c 0,61,62
 477 698 477 698 478 701 c 0,63,64
 482 706 482 706 490 720 c 0,65,66
 493 725 493 725 497.5 731 c 0,67,68
 502 737 502 737 503 738 c 2,69,-1
 514 749 l 2,70,71
 527 760 527 760 544 760 c 0,72,73
 562 760 562 760 574 748 c 0,74,75
 585 734 585 734 585 718 c 0,76,77
 585 703 585 703 565 666 c 0,78,79
 553 646 553 646 480 532 c 0,80,81
 463 507 463 507 442 474.5 c 0,82,83
 421 442 421 442 407.5 421.5 c 0,84,85
 394 401 394 401 386 388 c 1,86,87
 525 165 525 165 562 123 c 0,88,89
 598 78 598 78 626 78 c 0,90,91
 641 78 641 78 644 72 c 0,92,93
 648 68 648 68 648 57 c 0,94,95
 648 27 648 27 630 6 c 0,96,97
 609 -13 609 -13 585 -13 c 0,98,99
 544.5 -13 544.5 -13 495 53 c 0,100,101
 465 93 465 93 328 311 c 1,0,1
EndSplineSet
Refer: 67 96 N 1 0 0 1 144 250 2
EndChar

StartChar: Eacute
Encoding: 201 201 139
Width: 673
GlyphClass: 2
Flags: W
LayerCount: 2
Fore
SplineSet
397 710 m 0,0,1
 380 760 380 760 336 760 c 0,2,3
 293 760 293 760 276 710 c 0,4,5
 142 333 142 333 120 270 c 0,6,7
 116 257 116 257 88 177 c 0,8,9
 56 91 56 91 52 80 c 0,10,11
 40 48 40 48 40 34 c 128,-1,12
 40 20 40 20 52 5 c 0,13,14
 65 -10 65 -10 87 -10 c 0,15,16
 125 -10 125 -10 140 35 c 0,17,18
 331 617 331 617 337 617 c 0,19,20
 347.5 617 347.5 617 538 35 c 0,21,22
 553 -10 553 -10 586 -10 c 0,23,24
 608 -10 608 -10 620 5 c 0,25,26
 633 19 633 19 633 34 c 0,27,28
 633 48 633 48 621 80 c 0,29,30
 561 243 561 243 554 268 c 0,31,32
 550 277 550 277 534 323.5 c 128,-1,33
 518 370 518 370 476.5 486.5 c 128,-1,34
 435 603 435 603 397 710 c 0,0,1
EndSplineSet
EndChar

StartChar: Ecircumflex
Encoding: 202 202 140
Width: 639
GlyphClass: 2
Flags: W
LayerCount: 2
Fore
SplineSet
463 445 m 2,0,-1
 284 440 l 2,1,2
 237 440 237 440 218 441 c 1,3,-1
 218 663 l 1,4,5
 278 668 278 668 355 668 c 2,6,-1
 514 662 l 2,7,8
 541 662 541 662 557.5 674.5 c 128,-1,9
 574 687 574 687 574 709 c 128,-1,10
 574 731 574 731 557.5 743.5 c 128,-1,11
 541 756 541 756 514 756 c 2,12,-1
 355 750 l 1,13,-1
 171 755 l 2,14,15
 109 755 109 755 109 710 c 0,16,17
 109 689 109 689 121 670 c 1,18,19
 126 632 126 632 128 445 c 1,20,21
 99 445 99 445 80 433.5 c 128,-1,22
 61 422 61 422 61 399 c 0,23,24
 61 355 61 355 128 355 c 1,25,26
 128 235 128 235 125.5 155.5 c 128,-1,27
 123 76 123 76 123 41 c 0,28,29
 123 -5 123 -5 177 -5 c 2,30,-1
 358 0 l 1,31,-1
 517 -6 l 2,32,33
 544 -6 544 -6 560.5 6.5 c 128,-1,34
 577 19 577 19 577 41 c 128,-1,35
 577 63 577 63 560.5 75.5 c 128,-1,36
 544 88 544 88 517 88 c 2,37,-1
 358 82 l 2,38,39
 282 82 282 82 222 87 c 1,40,41
 218 133 218 133 218 279 c 2,42,-1
 218 358 l 1,43,44
 241 359 241 359 284 359 c 2,45,-1
 463 355 l 2,46,47
 522 355 522 355 522 399 c 0,48,49
 522 420 522 420 506 432.5 c 128,-1,50
 490 445 490 445 463 445 c 2,0,-1
415 842 m 0,51,52
 346 923 346 923 332 923 c 0,53,54
 316 923 316 923 252 846 c 0,55,56
 247 840 247 840 244 838 c 2,57,-1
 237 830 l 2,58,59
 224 817 224 817 206.5 817 c 128,-1,60
 189 817 189 817 178 827.5 c 128,-1,61
 167 838 167 838 167 856.5 c 128,-1,62
 167 875 167 875 193 896.5 c 128,-1,63
 219 918 219 918 245.5 948 c 128,-1,64
 272 978 272 978 291 994 c 128,-1,65
 310 1010 310 1010 331.5 1010 c 128,-1,66
 353 1010 353 1010 372.5 994 c 128,-1,67
 392 978 392 978 418 948 c 128,-1,68
 444 918 444 918 470.5 896 c 128,-1,69
 497 874 497 874 497 856 c 128,-1,70
 497 838 497 838 486 827.5 c 128,-1,71
 475 817 475 817 462 817 c 128,-1,72
 449 817 449 817 440 822 c 0,73,74
 427 829 427 829 415 842 c 0,51,52
EndSplineSet
Validated: 9
EndChar

StartChar: Edieresis
Encoding: 203 203 141
Width: 620
GlyphClass: 2
Flags: W
LayerCount: 2
Fore
SplineSet
535 376 m 128,-1,1
 535 358 535 358 526.5 344 c 128,-1,2
 518 330 518 330 495 316.5 c 128,-1,3
 472 303 472 303 454.5 295 c 128,-1,4
 437 287 437 287 393.5 270.5 c 128,-1,5
 350 254 350 254 323.5 243 c 128,-1,6
 297 232 297 232 259 216 c 128,-1,7
 221 200 221 200 201.5 191.5 c 128,-1,8
 182 183 182 183 159 174 c 0,9,10
 117 159 117 159 98.5 159 c 128,-1,11
 80 159 80 159 68 169.5 c 128,-1,12
 56 180 56 180 56 196 c 0,13,14
 56 223 56 223 90 238 c 0,15,16
 127 253 127 253 185 274.5 c 128,-1,17
 243 296 243 296 267 306 c 0,18,19
 418 366 418 366 418 376 c 0,20,21
 418 384 418 384 304 430 c 2,22,-1
 266 446 l 2,23,24
 242 456 242 456 184 477.5 c 128,-1,25
 126 499 126 499 89 514 c 0,26,27
 55 529 55 529 55 556 c 0,28,29
 55 572 55 572 67 582.5 c 128,-1,30
 79 593 79 593 92.5 593 c 128,-1,31
 106 593 106 593 120.5 589.5 c 128,-1,32
 135 586 135 586 158 577.5 c 128,-1,33
 181 569 181 569 200 560 c 0,34,35
 310 513 310 513 373 489 c 128,-1,36
 436 465 436 465 454 457 c 128,-1,37
 472 449 472 449 495 435.5 c 128,-1,38
 518 422 518 422 526.5 408 c 128,-1,0
 535 394 535 394 535 376 c 128,-1,1
EndSplineSet
EndChar

StartChar: Igrave
Encoding: 204 204 142
Width: 620
GlyphClass: 2
Flags: W
LayerCount: 2
Fore
SplineSet
85 376 m 128,-1,1
 85 394 85 394 93.5 408 c 128,-1,2
 102 422 102 422 125 435.5 c 128,-1,3
 148 449 148 449 166 457 c 128,-1,4
 184 465 184 465 227.5 481.5 c 128,-1,5
 271 498 271 498 297.5 509 c 128,-1,6
 324 520 324 520 362 536 c 128,-1,7
 400 552 400 552 419.5 560.5 c 128,-1,8
 439 569 439 569 462 578 c 0,9,10
 504 593 504 593 522.5 593 c 128,-1,11
 541 593 541 593 553 582.5 c 128,-1,12
 565 572 565 572 565 556 c 0,13,14
 565 529 565 529 531 514 c 0,15,16
 494 499 494 499 436 477.5 c 128,-1,17
 378 456 378 456 354 446 c 0,18,19
 202 386 202 386 202 376 c 0,20,21
 202 368 202 368 316 322 c 2,22,-1
 353 306 l 2,23,24
 377 296 377 296 435 274.5 c 128,-1,25
 493 253 493 253 530 238 c 0,26,27
 564 223 564 223 564 196 c 0,28,29
 564 180 564 180 552 169.5 c 128,-1,30
 540 159 540 159 526.5 159 c 128,-1,31
 513 159 513 159 498.5 162.5 c 128,-1,32
 484 166 484 166 461 174.5 c 128,-1,33
 438 183 438 183 418 192 c 0,34,35
 309 239 309 239 246 263 c 128,-1,36
 183 287 183 287 165.5 295 c 128,-1,37
 148 303 148 303 125 316.5 c 128,-1,38
 102 330 102 330 93.5 344 c 128,-1,0
 85 358 85 358 85 376 c 128,-1,1
EndSplineSet
EndChar

StartChar: Iacute
Encoding: 205 205 143
Width: 662
GlyphClass: 2
Flags: W
LayerCount: 2
Fore
SplineSet
326 96 m 5,0,-1
 142 93 l 6,1,2
 120 93 120 93 106.5 105 c 132,-1,3
 93 117 93 117 93 135 c 132,-1,4
 93 153 93 153 106.5 165 c 132,-1,5
 120 177 120 177 142 177 c 6,6,-1
 326 174 l 5,7,-1
 520 177 l 6,8,9
 542 177 542 177 555.5 165 c 132,-1,10
 569 153 569 153 569 135 c 132,-1,11
 569 117 569 117 555.5 105 c 132,-1,12
 542 93 542 93 520 93 c 6,13,-1
 326 96 l 5,0,-1
326 412 m 1,14,-1
 142 409 l 2,15,16
 120 409 120 409 106.5 421 c 128,-1,17
 93 433 93 433 93 451 c 128,-1,18
 93 469 93 469 106.5 481 c 128,-1,19
 120 493 120 493 142 493 c 2,20,-1
 326 490 l 1,21,-1
 520 493 l 2,22,23
 542 493 542 493 555.5 481 c 128,-1,24
 569 469 569 469 569 451 c 128,-1,25
 569 433 569 433 555.5 421 c 128,-1,26
 542 409 542 409 520 409 c 2,27,-1
 326 412 l 1,14,-1
326 258 m 1,28,-1
 142 255 l 2,29,30
 120 255 120 255 106.5 267 c 128,-1,31
 93 279 93 279 93 297 c 128,-1,32
 93 315 93 315 106.5 327 c 128,-1,33
 120 339 120 339 142 339 c 2,34,-1
 326 336 l 1,35,-1
 520 339 l 2,36,37
 542 339 542 339 555.5 327 c 128,-1,38
 569 315 569 315 569 297 c 128,-1,39
 569 279 569 279 555.5 267 c 128,-1,40
 542 255 542 255 520 255 c 2,41,-1
 326 258 l 1,28,-1
EndSplineSet
EndChar

StartChar: Icircumflex
Encoding: 206 206 144
Width: 486
GlyphClass: 2
Flags: W
LayerCount: 2
Fore
SplineSet
374 661 m 2,0,-1
 292 665 l 1,1,2
 288 568 288 568 288 386.5 c 128,-1,3
 288 205 288 205 293 83 c 1,4,-1
 374 87 l 2,5,6
 401 87 401 87 417.5 74.5 c 128,-1,7
 434 62 434 62 434 40.5 c 128,-1,8
 434 19 434 19 417.5 6.5 c 128,-1,9
 401 -6 401 -6 374 -6 c 2,10,-1
 243 0 l 1,11,-1
 112 -6 l 2,12,13
 85 -6 85 -6 68.5 6.5 c 128,-1,14
 52 19 52 19 52 40.5 c 128,-1,15
 52 62 52 62 68.5 74.5 c 128,-1,16
 85 87 85 87 112 87 c 2,17,-1
 193 82 l 1,18,19
 198 204 198 204 198 386 c 128,-1,20
 198 568 198 568 194 665 c 1,21,-1
 112 661 l 2,22,23
 85 661 85 661 68.5 674 c 128,-1,24
 52 687 52 687 52 709 c 128,-1,25
 52 731 52 731 68.5 743.5 c 128,-1,26
 85 756 85 756 112 756 c 2,27,-1
 243 750 l 1,28,-1
 374 756 l 2,29,30
 401 756 401 756 417.5 743.5 c 128,-1,31
 434 731 434 731 434 709 c 128,-1,32
 434 687 434 687 417.5 674 c 128,-1,33
 401 661 401 661 374 661 c 2,0,-1
329 842 m 0,34,35
 260 923 260 923 246 923 c 0,36,37
 230 923 230 923 166 846 c 0,38,39
 161 840 161 840 158 838 c 2,40,-1
 151 830 l 2,41,42
 138 817 138 817 120.5 817 c 128,-1,43
 103 817 103 817 92 827.5 c 128,-1,44
 81 838 81 838 81 856.5 c 128,-1,45
 81 875 81 875 107 896.5 c 128,-1,46
 133 918 133 918 159.5 948 c 128,-1,47
 186 978 186 978 205 994 c 128,-1,48
 224 1010 224 1010 245.5 1010 c 128,-1,49
 267 1010 267 1010 286.5 994 c 128,-1,50
 306 978 306 978 332 948 c 128,-1,51
 358 918 358 918 384.5 896 c 128,-1,52
 411 874 411 874 411 856 c 128,-1,53
 411 838 411 838 400 827.5 c 128,-1,54
 389 817 389 817 376 817 c 128,-1,55
 363 817 363 817 354 822 c 0,56,57
 341 829 341 829 329 842 c 0,34,35
EndSplineSet
Validated: 1
EndChar

StartChar: Idieresis
Encoding: 207 207 145
Width: 604
GlyphClass: 2
Flags: W
LayerCount: 2
Fore
SplineSet
403 661 m 2,0,-1
 304 664 l 1,1,-1
 205 661 l 2,2,3
 182 661 182 661 170 673 c 0,4,5
 156 684 156 684 156 703 c 0,6,7
 156 722 156 722 170 733 c 0,8,9
 182 745 182 745 205 745 c 2,10,-1
 304 742 l 1,11,-1
 403 745 l 2,12,13
 426 745 426 745 438 733 c 0,14,15
 452 722 452 722 452 703 c 0,16,17
 452 684 452 684 438 673 c 0,18,19
 426 661 426 661 403 661 c 2,0,-1
351 589 m 2,20,-1
 346 373 l 1,21,-1
 326 122 l 1,22,23
 348.5 170 348.5 170 419 302 c 0,24,25
 430 323 430 323 442 323 c 0,26,27
 453 323 453 323 461 312 c 0,28,29
 468 301 468 301 468 287 c 0,30,31
 468 278 468 278 466 264 c 0,32,33
 464 254 464 254 457 241 c 0,34,35
 455 238 455 238 450.5 229 c 0,36,37
 446 220 446 220 443 215 c 0,38,39
 429 190 429 190 401 144 c 0,40,41
 390 125 390 125 367 83 c 0,42,43
 346 44 346 44 328 14 c 0,44,45
 314.5 -7 314.5 -7 301 -7 c 0,46,47
 286 -7 286 -7 274 14 c 0,48,49
 257.5 45.5 257.5 45.5 235 83 c 0,50,51
 220 108 220 108 206 136 c 0,52,53
 195 155 195 155 182 177 c 0,54,55
 170 197 170 197 159 215 c 0,56,57
 156 220 156 220 151.5 229 c 0,58,59
 147 238 147 238 145 241 c 0,60,61
 134 265 134 265 134 282 c 0,62,63
 134 301 134 301 142 312 c 0,64,65
 148 323 148 323 160 323 c 0,66,67
 172 323 172 323 183 302 c 0,68,69
 250.5 168.5 250.5 168.5 276 122 c 1,70,-1
 265 373 l 1,71,-1
 260 589 l 2,72,73
 259 614 259 614 272 632 c 0,74,75
 286 649 286 649 305 649 c 0,76,77
 330 649 330 649 338 632 c 0,78,79
 351 596 351 596 351 589 c 2,20,-1
EndSplineSet
Refer: 106 168 N 1 0 0 1 5 260 2
Validated: 1
EndChar

StartChar: Eth
Encoding: 208 208 146
Width: 770
GlyphClass: 2
Flags: W
LayerCount: 2
Fore
SplineSet
138 411 m 1,0,-1
 133 636 l 1,1,2
 89 640 89 640 89 677.5 c 128,-1,3
 89 715 89 715 168 739.5 c 128,-1,4
 247 764 247 764 331.5 764 c 128,-1,5
 416 764 416 764 489 731 c 128,-1,6
 562 698 562 698 606 642 c 0,7,8
 697 528 697 528 697 372 c 0,9,10
 697 220 697 220 610 108 c 0,11,12
 567 52 567 52 496 18.5 c 128,-1,13
 425 -15 425 -15 327 -15 c 128,-1,14
 229 -15 229 -15 157 10 c 128,-1,15
 85 35 85 35 85 74 c 0,16,17
 85 111 85 111 135 111 c 1,18,-1
 138 334 l 1,19,20
 118 333 118 333 82.5 333 c 128,-1,21
 47 333 47 333 33.5 344 c 128,-1,22
 20 355 20 355 20 373 c 128,-1,23
 20 391 20 391 33.5 402 c 128,-1,24
 47 413 47 413 72.5 413 c 128,-1,25
 98 413 98 413 138 411 c 1,0,-1
232 661 m 1,26,27
 229 606 229 606 229 411 c 1,28,29
 273 413 273 413 301 413 c 128,-1,30
 329 413 329 413 342.5 402 c 128,-1,31
 356 391 356 391 356 373 c 128,-1,32
 356 355 356 355 342.5 344 c 128,-1,33
 329 333 329 333 301 333 c 128,-1,34
 273 333 273 333 229 335 c 1,35,36
 229 170 229 170 234 85 c 1,37,38
 270 72 270 72 335 72 c 128,-1,39
 400 72 400 72 452.5 98 c 128,-1,40
 505 124 505 124 536 168 c 0,41,42
 601 258 601 258 601 379.5 c 128,-1,43
 601 501 601 501 529.5 589.5 c 128,-1,44
 458 678 458 678 323 678 c 0,45,46
 266 678 266 678 232 661 c 1,26,27
EndSplineSet
Validated: 1
EndChar

StartChar: Ocircumflex
Encoding: 212 212 150
Width: 959
GlyphClass: 2
Flags: W
LayerCount: 2
Fore
SplineSet
314 434 m 0,0,1
 327 468 327 468 380 586 c 0,2,3
 399 627 399 627 445 732 c 0,4,5
 461 769 461 769 487 769 c 0,6,7
 514 769 514 769 530 730 c 0,8,9
 664 429 664 429 670 410 c 0,10,11
 679 386 679 386 679 371 c 128,-1,12
 679 356 679 356 670 343 c 0,13,14
 660 330 660 330 642 330 c 0,15,16
 625 330 625 330 613 360 c 0,17,18
 607 376 607 376 538 546 c 0,19,20
 490 658 490 658 488 658 c 0,21,22
 485 658 485 658 438 548 c 0,23,24
 420 504 420 504 392.5 437 c 128,-1,25
 365 370 365 370 361 360 c 0,26,27
 356 345 356 345 348 338 c 0,28,29
 337 330 337 330 326 330 c 128,-1,30
 315 330 315 330 306 343 c 0,31,32
 296 356 296 356 296 374 c 128,-1,33
 296 392 296 392 314 434 c 0,0,1
714 38 m 0,34,35
 698 -10 698 -10 654 -10 c 128,-1,36
 610 -10 610 -10 593 35 c 0,37,38
 573 88 573 88 530 178 c 0,39,40
 482 285 482 285 479 285 c 0,41,42
 477 285 477 285 456 212 c 0,43,44
 434 140 434 140 407 104 c 0,45,46
 382 73 382 73 370 38 c 0,47,48
 355 -10 355 -10 310 -10 c 0,49,50
 266.5 -10 266.5 -10 250 35 c 0,51,52
 239 68 239 68 227 106 c 0,53,54
 222 122 222 122 207.5 169 c 128,-1,55
 193 216 193 216 184 246 c 0,56,57
 174 277 174 277 161.5 316.5 c 128,-1,58
 149 356 149 356 146 364 c 0,59,60
 142 377 142 377 132 407 c 128,-1,61
 122 437 122 437 117 454 c 2,62,63
 89 538 l 1,64,65
 78 584 78 584 66 611 c 2,66,-1
 42 653 l 1,67,68
 42 676 42 676 55 688 c 0,69,70
 68 702 68 702 86 702 c 0,71,72
 126.5 702 126.5 702 140 657 c 0,73,74
 187 507 187 507 258 290 c 0,75,76
 313.5 119 313.5 119 315 119 c 0,77,78
 318 119 318 119 365 198 c 0,79,80
 412 279 412 279 425 340 c 0,81,82
 430 363 430 363 446 378 c 0,83,84
 460 395 460 395 483 395 c 0,85,86
 516 395 516 395 542 344 c 0,87,88
 647 119 647 119 660 119 c 1,89,-1
 695 247 l 2,90,91
 726 360 726 360 771 498 c 0,92,93
 811.5 621 811.5 621 822 657 c 0,94,95
 834 702 834 702 867 702 c 0,96,97
 890 702 890 702 902 688 c 0,98,99
 914 673 914 673 914 651 c 0,100,101
 914 630 914 630 867 504 c 0,102,103
 819 375 819 375 790 280 c 0,104,105
 727 76 727 76 714 38 c 0,34,35
EndSplineSet
EndChar

StartChar: Odieresis
Encoding: 214 214 152
Width: 824
GlyphClass: 2
Flags: W
LayerCount: 2
Fore
SplineSet
586.5 164 m 128,-1,1
 656 256 656 256 656 377 c 128,-1,2
 656 498 656 498 587 588.5 c 128,-1,3
 518 679 518 679 412.5 679 c 128,-1,4
 307 679 307 679 237.5 588.5 c 128,-1,5
 168 498 168 498 168 377.5 c 128,-1,6
 168 257 168 257 238 164.5 c 128,-1,7
 308 72 308 72 412.5 72 c 128,-1,0
 517 72 517 72 586.5 164 c 128,-1,1
752 376 m 128,-1,9
 752 213 752 213 654.5 99 c 128,-1,10
 557 -15 557 -15 411.5 -15 c 128,-1,11
 266 -15 266 -15 169 99 c 128,-1,12
 72 213 72 213 72 376 c 128,-1,13
 72 539 72 539 170 652 c 128,-1,14
 268 765 268 765 413.5 765 c 128,-1,15
 559 765 559 765 655.5 652 c 128,-1,8
 752 539 752 539 752 376 c 128,-1,9
551.5 950 m 128,-1,17
 565 933 565 933 565 907 c 128,-1,18
 565 881 565 881 548 859.5 c 128,-1,19
 531 838 531 838 506.5 838 c 128,-1,20
 482 838 482 838 468 856 c 128,-1,21
 454 874 454 874 454 900 c 128,-1,22
 454 926 454 926 470.5 946.5 c 128,-1,23
 487 967 487 967 512.5 967 c 128,-1,16
 538 967 538 967 551.5 950 c 128,-1,17
356.5 950 m 128,-1,25
 370 933 370 933 370 907 c 128,-1,26
 370 881 370 881 353 859.5 c 128,-1,27
 336 838 336 838 311.5 838 c 128,-1,28
 287 838 287 838 273 856 c 128,-1,29
 259 874 259 874 259 900 c 128,-1,30
 259 926 259 926 275.5 946.5 c 128,-1,31
 292 967 292 967 317.5 967 c 128,-1,24
 343 967 343 967 356.5 950 c 128,-1,25
EndSplineSet
Validated: 1
EndChar

StartChar: multiply
Encoding: 215 215 153
Width: 573
GlyphClass: 2
Flags: W
LayerCount: 2
Fore
SplineSet
286 322 m 1,0,1
 283 319 283 319 243.5 282.5 c 128,-1,2
 204 246 204 246 161 203 c 0,3,4
 145 187 145 187 127 187 c 128,-1,5
 109 187 109 187 97 199 c 128,-1,6
 85 211 85 211 85 227.5 c 128,-1,7
 85 244 85 244 105.5 264 c 128,-1,8
 126 284 126 284 170.5 321.5 c 128,-1,9
 215 359 215 359 233 376 c 1,10,11
 215 393 215 393 172 428 c 128,-1,12
 129 463 129 463 108 483.5 c 128,-1,13
 87 504 87 504 87 522 c 128,-1,14
 87 540 87 540 99.5 551.5 c 128,-1,15
 112 563 112 563 129 563 c 128,-1,16
 146 563 146 563 167 545 c 128,-1,17
 188 527 188 527 227.5 488 c 128,-1,18
 267 449 267 449 286 432 c 1,19,20
 301 445 301 445 341.5 485.5 c 128,-1,21
 382 526 382 526 403.5 545 c 128,-1,22
 425 564 425 564 442 564 c 128,-1,23
 459 564 459 564 471.5 552.5 c 128,-1,24
 484 541 484 541 484 523 c 128,-1,25
 484 505 484 505 463 485 c 128,-1,26
 442 465 442 465 400 430 c 128,-1,27
 358 395 358 395 339 377 c 1,28,29
 356 361 356 361 400.5 323.5 c 128,-1,30
 445 286 445 286 472 261 c 0,31,32
 488 245 488 245 488 228.5 c 128,-1,33
 488 212 488 212 476 200 c 128,-1,34
 464 188 464 188 446 188 c 128,-1,35
 428 188 428 188 412 204 c 0,36,37
 359 257 359 257 286 322 c 1,0,1
EndSplineSet
Validated: 1
EndChar

